/* XPM */
static char * coin_xpm[] = {
"48 48 531 2",
"  	c #000000",
". 	c #111111",
"+ 	c #D0D0D0",
"@ 	c #090909",
"# 	c #353535",
"$ 	c #262626",
"% 	c #0B0B0B",
"& 	c #060606",
"* 	c #121212",
"= 	c #1A1A1A",
"- 	c #080808",
"; 	c #878787",
"> 	c #C7C7C7",
", 	c #101010",
"' 	c #222222",
") 	c #323232",
"! 	c #050505",
"~ 	c #030B0C",
"{ 	c #191919",
"] 	c #242424",
"^ 	c #525041",
"/ 	c #8D8A73",
"( 	c #767462",
"_ 	c #A8A58D",
": 	c #8F8D79",
"< 	c #BAB89D",
"[ 	c #97978F",
"} 	c #0A0A0A",
"| 	c #010101",
"1 	c #070707",
"2 	c #696752",
"3 	c #CECAA5",
"4 	c #E9E4BD",
"5 	c #E4DFBB",
"6 	c #F3EFCA",
"7 	c #EFEBC9",
"8 	c #F5F2CF",
"9 	c #E4E2C3",
"0 	c #939783",
"a 	c #313131",
"b 	c #69664F",
"c 	c #EEE8BA",
"d 	c #F8F2C5",
"e 	c #F8F3CA",
"f 	c #F8F4CE",
"g 	c #F9F5D0",
"h 	c #F7F3CF",
"i 	c #E8E5C4",
"j 	c #91937F",
"k 	c #151515",
"l 	c #FCFCFC",
"m 	c #6A6751",
"n 	c #EBE6B6",
"o 	c #F8F2C3",
"p 	c #F8F3C8",
"q 	c #F8F4CD",
"r 	c #EBE7C5",
"s 	c #D4D0B2",
"t 	c #848574",
"u 	c #414141",
"v 	c #0D0D0D",
"w 	c #727059",
"x 	c #EBE5B4",
"y 	c #F7F1C1",
"z 	c #F8F2C6",
"A 	c #F8F4CB",
"B 	c #F6F2CC",
"C 	c #E7E2C1",
"D 	c #D1CCAE",
"E 	c #818270",
"F 	c #2E2E2E",
"G 	c #030303",
"H 	c #74715A",
"I 	c #E6E1B2",
"J 	c #F6F0BE",
"K 	c #F6F2CB",
"L 	c #E9E4C2",
"M 	c #D4D0B1",
"N 	c #868874",
"O 	c #212121",
"P 	c #858585",
"Q 	c #020202",
"R 	c #89876A",
"S 	c #E5E0B1",
"T 	c #F3EEBC",
"U 	c #F8F3C9",
"V 	c #F7F2CB",
"W 	c #EBE7C3",
"X 	c #D8D4B3",
"Y 	c #9C9D86",
"Z 	c #1E1E1E",
"` 	c #141414",
" .	c #EFEFEF",
"..	c #999475",
"+.	c #E2DDAE",
"@.	c #F0EAB9",
"#.	c #F7F2C1",
"$.	c #F8F3C7",
"%.	c #F7F2CA",
"&.	c #EDE9C4",
"*.	c #DBD7B5",
"=.	c #ADAD93",
"-.	c #171F1C",
";.	c #E0E0E0",
">.	c #3D3D3D",
",.	c #181818",
"'.	c #A7A280",
").	c #DED9AB",
"!.	c #ECE7B6",
"~.	c #F6F1BF",
"{.	c #F0EBC5",
"].	c #DEDBB7",
"^.	c #BBBA9D",
"/.	c #343A32",
"(.	c #868686",
"_.	c #383838",
":.	c #2C2C2C",
"<.	c #13130D",
"[.	c #B3AF8A",
"}.	c #DCD7A9",
"|.	c #E9E4B4",
"1.	c #F5F0BE",
"2.	c #F8F2C4",
"3.	c #F2EDC7",
"4.	c #E5E1BC",
"5.	c #CCCBAB",
"6.	c #494E43",
"7.	c #292929",
"8.	c #5D5C50",
"9.	c #C2BD95",
"0.	c #F5EFBE",
"a.	c #F6F1C9",
"b.	c #E5E3BF",
"c.	c #89907B",
"d.	c #0C0C0C",
"e.	c #0C0D0D",
"f.	c #1A1B1C",
"g.	c #8A897A",
"h.	c #D7D4B3",
"i.	c #D5D0A4",
"j.	c #DDD8AA",
"k.	c #EAE5B4",
"l.	c #F8F3CB",
"m.	c #F7F3CB",
"n.	c #F7F4CC",
"o.	c #E8E7BF",
"p.	c #999E83",
"q.	c #24312B",
"r.	c #545244",
"s.	c #B1AD91",
"t.	c #EEEAC4",
"u.	c #E7E2B7",
"v.	c #D4CFA3",
"w.	c #DED9AA",
"x.	c #EBE5B5",
"y.	c #F8F3CC",
"z.	c #F8F4CC",
"A.	c #F8F5CC",
"B.	c #F8F4CA",
"C.	c #F4EFC2",
"D.	c #C9CBA9",
"E.	c #767E6B",
"F.	c #011215",
"G.	c #3D3C34",
"H.	c #9C987D",
"I.	c #E1DCB5",
"J.	c #F7F2C8",
"K.	c #DCD7AD",
"L.	c #D5CFA3",
"M.	c #EBE6B5",
"N.	c #F8F5CB",
"O.	c #F9F2C5",
"P.	c #ECEAC3",
"Q.	c #B5B99C",
"R.	c #5D6558",
"S.	c #061216",
"T.	c #898775",
"U.	c #DAD6B1",
"V.	c #F5EEC2",
"W.	c #F2EDC3",
"X.	c #D5D0A5",
"Y.	c #D7D1A4",
"Z.	c #DFDAAB",
"`.	c #E6E5C1",
" +	c #ABB099",
".+	c #27342E",
"++	c #151516",
"@+	c #A19E7F",
"#+	c #EAE6B8",
"$+	c #F9F2C4",
"%+	c #F9F4CA",
"&+	c #E9E4B9",
"*+	c #D2CEA1",
"=+	c #D8D2A5",
"-+	c #EAE5B5",
";+	c #F8F5CD",
">+	c #F7F3CA",
",+	c #F5F1C9",
"'+	c #C2C5A8",
")+	c #465147",
"!+	c #848167",
"~+	c #ECE8B7",
"{+	c #F7F2C0",
"]+	c #F7F2C3",
"^+	c #F7F3C9",
"/+	c #DFDAAE",
"(+	c #D3CEA1",
"_+	c #D9D2A6",
":+	c #F5EFBD",
"<+	c #F7F2C4",
"[+	c #C4C7AB",
"}+	c #424946",
"|+	c #1C1C1C",
"1+	c #484637",
"2+	c #D2CDA2",
"3+	c #F5EFBC",
"4+	c #F7F1BF",
"5+	c #F9F3C6",
"6+	c #F3EEC4",
"7+	c #D6D2A6",
"8+	c #D4CFA2",
"9+	c #DAD3A6",
"0+	c #F7F2C5",
"a+	c #F4F0C9",
"b+	c #929883",
"c+	c #CDCDCD",
"d+	c #A09E7C",
"e+	c #E9E4B3",
"f+	c #F2ECBA",
"g+	c #F7F2C2",
"h+	c #EBE6BA",
"i+	c #D5D0A3",
"j+	c #DAD4A7",
"k+	c #F4EEBC",
"l+	c #F7F3C8",
"m+	c #F3EEC6",
"n+	c #D0D0AE",
"o+	c #525A52",
"p+	c #565543",
"q+	c #D0CBA0",
"r+	c #E4DFB0",
"s+	c #EEE8B7",
"t+	c #F6F0BD",
"u+	c #E3DDB1",
"v+	c #D1CCA0",
"w+	c #D6D0A4",
"x+	c #DBD4A7",
"y+	c #E0DBAC",
"z+	c #F3EDBB",
"A+	c #F8F3C6",
"B+	c #F9F4CC",
"C+	c #F7F4C9",
"D+	c #F6F1C0",
"E+	c #EAE6BF",
"F+	c #969B83",
"G+	c #948F71",
"H+	c #DCD6A8",
"I+	c #DFDBAC",
"J+	c #F4EEBB",
"K+	c #F7F1C0",
"L+	c #F7F1C3",
"M+	c #DAD5AA",
"N+	c #D0CCA0",
"O+	c #DBD5A7",
"P+	c #D1CDA0",
"Q+	c #D9D5A7",
"R+	c #E6E1BB",
"S+	c #F3EEC7",
"T+	c #F8F3CD",
"U+	c #F7F4CA",
"V+	c #F4EEBE",
"W+	c #F9F2C6",
"X+	c #F4EFC5",
"Y+	c #EBE6BE",
"Z+	c #C6C7A4",
"`+	c #3A443A",
" @	c #2D2C22",
".@	c #B7B28D",
"+@	c #EDE8B7",
"@@	c #F1ECBD",
"#@	c #D3CEA4",
"$@	c #D6CFA2",
"%@	c #A39C83",
"&@	c #A49D83",
"*@	c #EDE7B5",
"=@	c #FAF4C6",
"-@	c #DED9B2",
";@	c #9D9683",
">@	c #CAC4A5",
",@	c #F9F5CC",
"'@	c #EFEABD",
")@	c #F2EDBB",
"!@	c #F6F0C4",
"~@	c #EBE6BC",
"{@	c #D9D7AF",
"]@	c #7A7F6B",
"^@	c #040404",
"/@	c #5A5745",
"(@	c #C3BE95",
"_@	c #CCC79D",
":@	c #E3DEAE",
"<@	c #EDE7B6",
"[@	c #CEC99E",
"}@	c #CAC499",
"|@	c #978C79",
"1@	c #988C76",
"2@	c #E5DEAF",
"3@	c #FBF5C6",
"4@	c #CAC39E",
"5@	c #9A8E7D",
"6@	c #AEA68C",
"7@	c #F0EBC2",
"8@	c #E7E2B2",
"9@	c #F6F1C2",
"0@	c #ECE7BB",
"a@	c #DCD8AF",
"b@	c #A3A487",
"c@	c #5A5A5A",
"d@	c #76745C",
"e@	c #C2BE96",
"f@	c #C4C097",
"g@	c #C8C39A",
"h@	c #CFCA9F",
"i@	c #E0DBAD",
"j@	c #E8E3B3",
"k@	c #CBC69B",
"l@	c #CECA9F",
"m@	c #C5BF96",
"n@	c #4D4131",
"o@	c #615440",
"p@	c #C2BA96",
"q@	c #463729",
"r@	c #898068",
"s@	c #F9F4CB",
"t@	c #F5F0C7",
"u@	c #DFD9AD",
"v@	c #E4DFAF",
"w@	c #F0EBB9",
"x@	c #ECE8B9",
"y@	c #DAD6AC",
"z@	c #B6B694",
"A@	c #161616",
"B@	c #827E64",
"C@	c #BCB892",
"D@	c #BDB892",
"E@	c #C0BB94",
"F@	c #C6C198",
"G@	c #CDC89E",
"H@	c #DBD6A8",
"I@	c #CAC69C",
"J@	c #C8C399",
"K@	c #D2CDA1",
"L@	c #C4BF96",
"M@	c #3D3427",
"N@	c #554B39",
"O@	c #E4DEAF",
"P@	c #FAF5C5",
"Q@	c #C2BC97",
"R@	c #34261C",
"S@	c #857D64",
"T@	c #FAF5CA",
"U@	c #F7F2C9",
"V@	c #DBD6AB",
"W@	c #ECE6B6",
"X@	c #D7D2A7",
"Y@	c #BBBA96",
"Z@	c #7F7B62",
"`@	c #B8B28E",
" #	c #B9B48F",
".#	c #BDB992",
"+#	c #C4BF97",
"@#	c #CBC69C",
"##	c #C3BF97",
"$#	c #C3BE96",
"%#	c #C7C299",
"&#	c #C9C49A",
"*#	c #453F30",
"=#	c #5A5440",
"-#	c #E3DEAF",
";#	c #F1EBB9",
">#	c #F9F3C1",
",#	c #D0CBA2",
"'#	c #2F271D",
")#	c #989175",
"!#	c #FCF6C8",
"~#	c #D7D2A8",
"{#	c #C9C49B",
"]#	c #B3B18D",
"^#	c #76735C",
"/#	c #B7B18D",
"(#	c #BCB791",
"_#	c #C2BD96",
":#	c #C6C299",
"<#	c #BEB992",
"[#	c #C0BC94",
"}#	c #CAC59B",
"|#	c #A19D7B",
"1#	c #AAA682",
"2#	c #E6E1B1",
"3#	c #A8A380",
"4#	c #DDD7AB",
"5#	c #F8F3C3",
"6#	c #D1CCA3",
"7#	c #BFBA93",
"8#	c #D4CEA2",
"9#	c #DAD5A8",
"0#	c #D2CEA2",
"a#	c #A09F7F",
"b#	c #53503F",
"c#	c #AFA987",
"d#	c #B5AF8B",
"e#	c #B3AE8A",
"f#	c #B4AF8B",
"g#	c #BBB790",
"h#	c #BAB58F",
"i#	c #DBD5A8",
"j#	c #F6F1BE",
"k#	c #F6F0BF",
"l#	c #F3EEBF",
"m#	c #CBC69E",
"n#	c #C5C097",
"o#	c #B7B38D",
"p#	c #A39F7D",
"q#	c #797C65",
"r#	c #161510",
"s#	c #878369",
"t#	c #A6A280",
"u#	c #A29E7C",
"v#	c #A19D7C",
"w#	c #A09C7B",
"x#	c #A5A17F",
"y#	c #ABA783",
"z#	c #B2AD89",
"A#	c #B6B18C",
"B#	c #D9D3A6",
"C#	c #9E9A79",
"D#	c #A4A07E",
"E#	c #9F9B7A",
"F#	c #928D6F",
"G#	c #7F8065",
"H#	c #3D473B",
"I#	c #333228",
"J#	c #79765E",
"K#	c #8A866A",
"L#	c #878367",
"M#	c #837F64",
"N#	c #848065",
"O#	c #898669",
"P#	c #9C9777",
"Q#	c #ACA884",
"R#	c #B5B08B",
"S#	c #E0DCAD",
"T#	c #CDC89D",
"U#	c #B9B48E",
"V#	c #8C8B6E",
"W#	c #7F7D62",
"X#	c #827F64",
"Y#	c #807D62",
"Z#	c #7A785E",
"`#	c #6D6E58",
" $	c #424A3E",
".$	c #181812",
"+$	c #424032",
"@$	c #514E3E",
"#$	c #504E3E",
"$$	c #4B493A",
"%$	c #3D3B2F",
"&$	c #7A765E",
"*$	c #A7A380",
"=$	c #B1AC88",
"-$	c #D3CDA1",
";$	c #A8A481",
">$	c #84856A",
",$	c #343E34",
"'$	c #3C4135",
")$	c #4B4E3E",
"!$	c #494D3D",
"~$	c #3C4236",
"{$	c #1F2822",
"]$	c #3E3D30",
"^$	c #939072",
"/$	c #A6A27F",
"($	c #A9A582",
"_$	c #ADA885",
":$	c #B0AC88",
"<$	c #BAB690",
"[$	c #BCB891",
"}$	c #AEAA86",
"|$	c #9B9676",
"1$	c #838267",
"2$	c #464F41",
"3$	c #514F3F",
"4$	c #8D896C",
"5$	c #969273",
"6$	c #979373",
"7$	c #9A9676",
"8$	c #9D9979",
"9$	c #9F9A7A",
"0$	c #9B9777",
"a$	c #989374",
"b$	c #918D6F",
"c$	c #868267",
"d$	c #76765E",
"e$	c #4A5344",
"f$	c #3C3A2F",
"g$	c #686551",
"h$	c #75725A",
"i$	c #7E7B61",
"j$	c #817E63",
"k$	c #827E63",
"l$	c #7E7A60",
"m$	c #78765E",
"n$	c #707059",
"o$	c #646651",
"p$	c #525746",
"q$	c #313A30",
"r$	c #131313",
"s$	c #1D1C16",
"t$	c #3C3A2E",
"u$	c #494739",
"v$	c #4B4A3B",
"w$	c #4E4D3D",
"x$	c #494839",
"y$	c #424639",
"z$	c #30382F",
"A$	c #141D19",
"B$	c #515151",
"C$	c #565656",
"D$	c #0E0E0E",
"E$	c #FFFFFF",
"F$	c #434343",
"                                        . + .                                                   ",
"                                        @ # @                                                   ",
"                                          $                                                     ",
"                                          %                                           & * &     ",
"= -                                                                                   % ; %     ",
"> ,                                                                                   & ' &     ",
") -                                               ! , ! ~                               {       ",
"]                                       ^ / ( _ : < [ }             | | |               1       ",
"}                                     2 3 4 5 6 7 8 9 0             % a %                       ",
"                                      b c d e f g h i j             k l k                       ",
"                    | | |             m n o p q f r s t             } u }                       ",
"                    | v |             w x y z A B C D E               F                         ",
"  ! * !             | G |             H I J d e K L M N               v               } O }     ",
"  % P %               Q               R S T o U V W X Y                   @ Z @       `  .`     ",
"  ! O !                               ..+.@.#.$.%.&.*.=.-.          & * & * ;.*       } >.}     ",
"    ,.                                '.).!.~.d U {.].^./.          % (.% @ _.@         :.      ",
"    1                               <.[.}.|.1.2.p 3.4.5.6.          & ' &   7.          v       ",
"                                  v 8.9.}.|.0.2.p a.{.b.c.            ,.    d.                  ",
"                              e.f.g.h.i.j.k.J 2.U l.m.n.o.p.q.        1                         ",
"                              r.s.t.u.v.w.x.J 2.U y.z.A.B.C.D.E.F.                              ",
"                          G.H.I.U J.K.L.).M.J 2.U y.z.A.N.O.z P.Q.R.S.                          ",
"                      v T.U.V.$.U W.X.Y.Z.M.J 2.U l.z.A.A.$.O.p e `. +.+                        ",
"                    ++@+#+2.$+$.%+&+*+=+Z.-+J 2.U l.z.A.;+>+2.$.U l.,+'+)+                      ",
"                    !+~+{+]+$+$.^+/+(+_+Z.k.:+2.U l.z.A.;+z.<+O.p e l.m.[+}+|+-                 ",
"                  1+2+3+4+]+$+5+6+7+8+9+Z.|.:+o p l.y.z.A.f 0+o $.U l.l.a+b+c+.                 ",
"                  d+e+f+4+g+$+5+h+*+i+j+Z.e+k+o $.e l.z.A.;+l+g+d p e e m+n+o+-                 ",
"                p+q+r+s+t+#.2.O.u+v+w+x+y+|.z+g+A+e B+y.z.A.C+D+o z p U m+E+F+                  ",
"                G+H+I+|.J+K+]+L+M+N+w+O+P+Q+z+#.z J.R+S+T+z.U+V+K+2.W+p X+Y+Z+`+                ",
"               @.@L.j++.+@t+{+@@#@N+w+$@%@&@*@#.=@-@;@>@,@y.y.'@)@#.2.O.!@~@{@]@    ^@% ^@      ",
"              /@(@_@v+j+:@<@3+S [@q+w+}@|@1@2@{+3@4@5@6@l.l.y.7@8@)@K+]+9@0@a@b@    1 c@1       ",
"              d@e@f@g@h@=+i@j@i.k@l@L.m@n@o@2@4+3@p@q@r@s@l.l.t@u@v@w@J D+x@y@z@    ^@A@^@      ",
"              B@C@D@E@F@G@w+H@I@J@_@K@L@M@N@O@t+P@Q@R@S@T@U e U@V@w++.+@k+W@X@Y@      ,         ",
"              Z@`@`@ #.#+#@#q+##$#%#_@&#*#=#-#;#>#,#'#)#!#z A+$.~#{#i.y+j@v@q+]#      ^@        ",
"              ^#/#/#/#`@(#_#:#<#D@[#f@}#|#1#j.2#w@s+3#4#5#]+o 2.6#7#{#8#9#0#<#a#                ",
"              b#c#d#e#e#f#.@g#.@.@h#D@[#%#_@v+i#v@M.z+k+:+j#k#l#m#f#(#+#n#o#p#q#                ",
"  Q & Q       r#s#t#u#v#w#w#x#y#z#A#`@ #(#[#:#h@B#Z.v@j@!.s+e+i@A#C#v#D#E#F#G#H#                ",
"  ^@F ^@        I#J#K#L#M#N#O#P#Q#R#/#/#.@ #D@f@G@v.j+w.S#}.T#U#V#W#X#Y#Z#`# $                  ",
"  Q % Q     | ^@| .$+$@$#$$$%$&$*$=$d#A#/#/#`@(#$#}#h@-$q+[#;$>$,$'$)$!$~${$                    ",
"    -       G Z G             ]$^$/$($_$:$z#e#f#.@<$[$h#}$|$1$2$                                ",
"    Q       | - |               3$4$5$6$7$8$E#9$8$0$a$b$c$d$e$                                  ",
"              !                   f$g$h$i$j$k$j$l$m$n$o$p$q$                                    ",
"              |                     r$s$t$u$v$w$x$y$z$A$                                | G |   ",
"                                    !                                                 G d.,.Q   ",
"                                                                                      1 B$% |   ",
"                                                                      ^@% ^@          G k &     ",
"% ] %                                                                 1 C$1             D$|     ",
"A@E$A@                                                                ^@k ^@            ^@      ",
"% F$%                                   ^@v ^@                          ,                       "};
