/* XPM */
static char * coin_xpm[] = {
"48 48 100 2",
"  	c #121212",
". 	c #FD3D00",
"+ 	c #FF6100",
"@ 	c #F93100",
"# 	c #F92F00",
"$ 	c #FF6700",
"% 	c #FF5F00",
"& 	c #FD3900",
"* 	c #F92700",
"= 	c #FD5F56",
"- 	c #FFD4D1",
"; 	c #F92B00",
"> 	c #FD6156",
", 	c #FFD2D0",
"' 	c #FFEDEA",
") 	c #FFFFFF",
"! 	c #F92D00",
"~ 	c #FD3A00",
"{ 	c #FD6155",
"] 	c #FFE0DE",
"^ 	c #FFF9EA",
"/ 	c #FF6755",
"( 	c #F92900",
"_ 	c #FF8179",
": 	c #FFEEDD",
"< 	c #FF9E53",
"[ 	c #FF8679",
"} 	c #FF5E00",
"| 	c #FFE1DE",
"1 	c #FFF0DE",
"2 	c #FFF1DE",
"3 	c #FC5E53",
"4 	c #FFFAEC",
"5 	c #FFEEDE",
"6 	c #FFE4E0",
"7 	c #FFD2D1",
"8 	c #FA2D00",
"9 	c #FE3A00",
"0 	c #FF6656",
"a 	c #FFDCD1",
"b 	c #EDFFE0",
"c 	c #FFDDD2",
"d 	c #F91E00",
"e 	c #F25200",
"f 	c #C1B100",
"g 	c #F65A00",
"h 	c #F92E00",
"i 	c #F25300",
"j 	c #C6B400",
"k 	c #DEC000",
"l 	c #F65900",
"m 	c #E96B00",
"n 	c #86DC00",
"o 	c #F25100",
"p 	c #C1B000",
"q 	c #AAC500",
"r 	c #5FED00",
"s 	c #AAC600",
"t 	c #FF7600",
"u 	c #FD3B00",
"v 	c #B8BA00",
"w 	c #E28000",
"x 	c #8ADC00",
"y 	c #45F400",
"z 	c #43F500",
"A 	c #EA6B00",
"B 	c #CAA500",
"C 	c #F15600",
"D 	c #F25500",
"E 	c #C0B100",
"F 	c #E27E00",
"G 	c #62ED00",
"H 	c #63EC00",
"I 	c #D99000",
"J 	c #8ADA00",
"K 	c #00FC00",
"L 	c #62EC00",
"M 	c #FA2A00",
"N 	c #FA2E00",
"O 	c #B6BC00",
"P 	c #79E400",
"Q 	c #8CDA00",
"R 	c #DA9000",
"S 	c #65EC00",
"T 	c #45F500",
"U 	c #EA6A00",
"V 	c #77E400",
"W 	c #9ED000",
"X 	c #9ECE00",
"Y 	c #ACC400",
"Z 	c #FF7500",
"` 	c #F55D00",
" .	c #DDC000",
"..	c #BCBE00",
"+.	c #B6BA00",
"@.	c #ACC500",
"#.	c #C2B000",
"$.	c #FA2B00",
"%.	c #FF4700",
"&.	c #FF7E00",
"                                                                                                ",
".   +   .   @   @   @   @   @   .   +   .   @   @   @   @   @   .   +   .   @   @   @   @   @   ",
"                                                                                                ",
"@   @   @   @   @   .   +   .   @   @   @   @   @   .   +   .   @   @   @   @   @   .   +   .   ",
"                                                                                                ",
"#   @   @   @   @   .   +   .   #   @   @   @   @   .   +   .   #   @   @   @   @   .   +   .   ",
"                                                                                                ",
"$   .   .   +   .   @   #   .   +   .   .   +   .   @   #   .   +   .   .   +   .   @   @   @   ",
"                                                                                                ",
"$   .   .   +   .   @   @   .   +   .   .   %   &   #   @   .   +   .   .   +   .   @   @   @   ",
"                                                                                                ",
"#   @   @   @   @   @   @   @   #   *   =   -   -   =   *   #   @   @   @   @   @   @   @   @   ",
"                                                                                                ",
"@   @   @   @   .   +   .   ;   >   ,   '   )   )   '   ,   >   !   @   @   @   .   +   .   @   ",
"                                                                                                ",
".   +   .   @   .   +   ~   {   ]   )   )   ^   ^   )   )   ]   /   %   .   @   .   +   .   @   ",
"                                                                                                ",
".   +   .   @   @   @   (   _   )   )   :   <   <   :   )   )   [   }   .   @   @   @   @   @   ",
"                                                                                                ",
"@   @   @   @   @   .   %   /   |   )   1   <   <   2   )   |   {   !   @   @   @   .   +   .   ",
"                                                                                                ",
"#   @   @   @   @   .   +   ~   3   |   )   4   5   6   7   =   *   8   @   @   @   .   +   .   ",
"                                                                                                ",
"$   .   .   +   .   @   #   9   }   0   a   b   c   =   d   e   f   f   g   +   .   @   @   @   ",
"                                                                                                ",
"$   .   .   +   .   h   i   j   k   l   m   n   m   o   p   q   r   s   j   t   u   @   @   @   ",
"                                                                                                ",
"#   @   @   @   h   i   p   s   r   v   w   x   w   v   y   z   v   A   B   C   h   @   @   @   ",
"                                                                                                ",
"@   @   @   h   D   E   f   F   G   H   I   J   I   H   K   L   A   M   N   #   .   +   .   @   ",
"                                                                                                ",
".   +   .   h   C   B   e   e   O   P   I   Q   R   S   T   v   l   %   .   @   .   +   .   @   ",
"                                                                                                ",
".   +   .   @   h   D   B   e   U   V   W   S   X   H   Y   v   j   Z   u   @   @   @   @   @   ",
"                                                                                                ",
"@   @   @   @   h   `    .  ..  +.  @.  T   K   K   y   @.  +.  O   E   D   h   @   .   +   .   ",
"                                                                                                ",
"#   @   @   @   @   u   Z   j   E   A   #.  +.  v   +.  f   e   i   B   C   h   @   .   +   .   ",
"                                                                                                ",
"$   .   .   +   .   @   #   ~   %   u   ~   %   ~   $.  !   .   +   ~   .   +   .   @   @   @   ",
"                                                                                                ",
"$   .   .   +   .   @   @   .   +   .   .   +   .   @   @   .   +   .   .   +   .   @   @   @   ",
"                                                                                                ",
"#   @   @   @   @   @   @   @   @   @   @   @   @   @   @   @   @   @   @   @   @   @   @   @   ",
"                                                                                                ",
"@   @   @   @   .   +   .   @   @   @   @   @   .   +   .   @   @   @   @   @   .   +   .   @   ",
"                                                                                                ",
"@   @   @   #   %.  &.  %.  #   @   @   @   #   %.  &.  %.  #   @   @   @   #   %.  &.  %.  #   "};
