/* XPM */
static char * coin_xpm[] = {
"48 48 109 2",
"  	c #000000",
". 	c #0D0D0D",
"+ 	c #A4A4A4",
"@ 	c #070707",
"# 	c #282828",
"$ 	c #1D1D1D",
"% 	c #090909",
"& 	c #040404",
"* 	c #0E0E0E",
"= 	c #131313",
"- 	c #6A6A6A",
"; 	c #9C9C9C",
"> 	c #0C0C0C",
", 	c #1A1A1A",
"' 	c #262626",
") 	c #1B1B1B",
"! 	c #080808",
"~ 	c #606060",
"{ 	c #010101",
"] 	c #060606",
"^ 	c #181818",
"/ 	c #252525",
"( 	c #740E16",
"_ 	c #101010",
": 	c #C7C7C7",
"< 	c #EA2529",
"[ 	c #EE280F",
"} 	c #EF2810",
"| 	c #FF2B25",
"1 	c #FF2B23",
"2 	c #D9252C",
"3 	c #333333",
"4 	c #0A0A0A",
"5 	c #FF2B24",
"6 	c #D5252C",
"7 	c #232323",
"8 	c #020202",
"9 	c #ED2526",
"0 	c #D5202D",
"a 	c #DF2231",
"b 	c #E2232F",
"c 	c #EA252D",
"d 	c #191919",
"e 	c #686868",
"f 	c #F22620",
"g 	c #FF2C22",
"h 	c #FF2B2B",
"i 	c #EC2528",
"j 	c #FB2816",
"k 	c #EC252B",
"l 	c #171717",
"m 	c #0F0F0F",
"n 	c #BDBDBD",
"o 	c #FF2A1D",
"p 	c #FF2A2A",
"q 	c #E5242A",
"r 	c #B0B0B0",
"s 	c #2F2F2F",
"t 	c #121212",
"u 	c #F12710",
"v 	c #F82813",
"w 	c #720D14",
"x 	c #2B2B2B",
"y 	c #222222",
"z 	c #F62710",
"A 	c #EE2520",
"B 	c #1F1F1F",
"C 	c #F92826",
"D 	c #DB212E",
"E 	c #8B0F26",
"F 	c #DF2230",
"G 	c #CC1E2D",
"H 	c #941228",
"I 	c #AF172B",
"J 	c #B51A29",
"K 	c #951720",
"L 	c #981422",
"M 	c #C0242F",
"N 	c #F7282A",
"O 	c #F52728",
"P 	c #A51526",
"Q 	c #FF2A2B",
"R 	c #A81E28",
"S 	c #AE182A",
"T 	c #8D1027",
"U 	c #A2142A",
"V 	c #B5212B",
"W 	c #BF1B2B",
"X 	c #991921",
"Y 	c #EE251B",
"Z 	c #CF1F2F",
"` 	c #B2212B",
" .	c #981226",
"..	c #820D25",
"+.	c #AD192A",
"@.	c #A31C24",
"#.	c #C81F2D",
"$.	c #030303",
"%.	c #D7232C",
"&.	c #464646",
"*.	c #D5202A",
"=.	c #BB1A28",
"-.	c #0B0B0B",
";.	c #525252",
">.	c #141414",
",.	c #3F3F3F",
"'.	c #424242",
").	c #C9C9C9",
"!.	c #343434",
"                                        . + .                                                   ",
"                                        @ # @                                                   ",
"                                          $                                                     ",
"                                          %                                           & * &     ",
"= @                                                                                   % - %     ",
"; >                                                                                   & , &     ",
"' @                                               & > &                                 =       ",
")                                                 ! ~ !             { { {               ]       ",
"!                                                 & ^ &             % / %                       ",
"                                        ( ( ( ( ( ( ( (             _ : _                       ",
"                    { { {         ( ( ( < [ [ [ } | 1 2 ( ( (       ! 3 !                       ",
"                    { 4 {       ( < [ [ [ [ [ [ [ [ 5 | | | 6 (       7                         ",
"  & * &             { 8 {   ( ( [ [ [ 9 0 a b c c c b 0 9 [ [ 5 ( (   4               ! d !     ",
"  % e %               {   ( < [ [ 9 0 0 f | g g g g | h i 0 9 [ j k (     @ l @       m n m     ",
"  & d &                 ( < [ [ 9 0 9 } | g g g g 1 | 5 o p q 9 [ [ < ( & * r *       ! s !     ",
"    t                   ( [ [ 0 0 [ u | g g g g | j } [ v | | q 0 [ [ ( w @ x @         y       ",
"    ]                 ( [ [ 0 9 [ u | g g g g | [ [ [ z | | 1 o A 9 [ z ( w B           4       ",
"                    ( < [ 9 9 [ z | 1 g g 1 5 [ [ [ v | 1 1 | z [ C 9 | 2 ( %                   ",
"                    ( [ [ 9 [ z | 1 g g 1 j [ D E F 1 g 1 5 z [ [ z C 1 g (                     ",
"                    ( [ [ [ z | g g g | f G H I J K L M N } [ [ [ u | 1 g (                     ",
"                  ( < c [ v | 1 g g O P P H E i g Q R S T U c [ [ [ | 1 V 2 (                   ",
"                  ( [ W o | g g g | P W 9 W p g g 1 o P [ D P [ [ } | g X 1 (                   ",
"                  ( [ H M g V g 1 F P [ [ | 1 g 1 o [ [ [ Y P 9 [ Z 1 V T | (                   ",
"                  ( [ H V g K ` o W  .} | g g 1 j [ [ [ [ [ P W a K 1 K H 5 ( @                 ",
"                  ( [ I ..V ....G ..H | g 1 g o [ [ [ [ [ [ P H +...` ..W } ( .                 ",
"                  ( [ G ..K ..........V g g o [ [ [ [ [ [ G ........P ..c [ ( @                 ",
"                  ( [ D ..E ............@.q [ [ [ [ [ 9 G ..............Y [ (                   ",
"                  ( < [ K ................U D [ [ [ D ....E ..........W [ < (                   ",
"                    ( [ #...K ` ....` ....G P c [ D H G ....L ..P D ..c [ (         $.% $.      ",
"                    ( [ [ K ` g K ` 5 P G [ G U E U D [ M K %.P D 9 P [ [ (         ] &.]       ",
"                    ( < [ #.1 g ` j } G [ [ [ [ G [ [ | g ` [ D [ [ D [ < (         $._ $.      ",
"                      ( [ [ | 1 o [ [ [ [ [ [ [ [ } | g | u [ [ [ [ [ [ (             >         ",
"                        ( [ } o } [ [ [ [ [ [ [ u | g | j [ [ [ g g [ (               $.        ",
"                        ( < [ [ g [ [ [ [ [ [ v | g | j [ [ [ g [ [ < (                         ",
"                          ( < [ [ g g [ z o | 1 g 1 o g g g g [ [ *.(                           ",
"  { & {                     ( ( 9 [ [ [ } g g g g g g g [ [ [ 9 ( (                             ",
"  $.7 $.                      w ( *.9 9 [ [ v j 5 } [ [ 9 9 *.(                                 ",
"  { % {     { $.{               w ( ( ( =.0 0 0 0 0 0 =.( ( (                                   ",
"    @       8 l 8                 $.-.$.( ( ( ( ( ( ( (                                         ",
"    {       { @ {                 @ ;.@   & d &                                                 ",
"              &                   $.>.$.    t                                                   ",
"              {                     *       ]                                           { 8 {   ",
"                                    &                                                 8 % t {   ",
"                                                                                      ] ,.% {   ",
"                                                                      $.% $.          8 _ &     ",
"% ) %                                                                 ] '.]             -.{     ",
"_ )._                                                                 $._ $.            $.      ",
"% !.%                                   $.4 $.                          >                       "};
