/* XPM */
static char * d_p_xpm[] = {
"48 48 86 1",
" 	c #000000",
".	c #480000",
"+	c #6F0000",
"@	c #3A0000",
"#	c #780000",
"$	c #440000",
"%	c #370000",
"&	c #660000",
"*	c #EEBCB1",
"=	c #EACAC7",
"-	c #680000",
";	c #6B0000",
">	c #F00000",
",	c #760000",
"'	c #6D0000",
")	c #410000",
"!	c #5D0000",
"~	c #E5C7C7",
"{	c #FBFBFB",
"]	c #93372F",
"^	c #F49896",
"/	c #FB0000",
"(	c #A80000",
"_	c #D5B1B1",
":	c #E7CAC7",
"<	c #D6B1B1",
"[	c #5F0000",
"}	c #890000",
"|	c #666DEE",
"1	c #DBB6FB",
"2	c #FB002F",
"3	c #FBC7C5",
"4	c #7D0000",
"5	c #9E0800",
"6	c #DBF1FB",
"7	c #0076FB",
"8	c #0008FB",
"9	c #F04AEE",
"0	c #FBF6EE",
"a	c #0072FB",
"b	c #0051FB",
"c	c #B1D5FB",
"d	c #CAE5FB",
"e	c #C7E5FB",
"f	c #C57662",
"g	c #0024FB",
"h	c #96372F",
"i	c #C29693",
"j	c #F6DCDB",
"k	c #D5AFAF",
"l	c #F4DCDB",
"m	c #4841D9",
"n	c #0000D9",
"o	c #006DFB",
"p	c #FB6BEE",
"q	c #E1DFFB",
"r	c #A10D00",
"s	c #330000",
"t	c #7B0000",
"u	c #4441DB",
"v	c #0000DB",
"w	c #006FFB",
"x	c #FB625F",
"y	c #FBEEEE",
"z	c #A11300",
"A	c #4844DB",
"B	c #0044FB",
"C	c #DCD0F0",
"D	c #FB6666",
"E	c #E4C7C7",
"F	c #93332F",
"G	c #4A48DC",
"H	c #0000C7",
"I	c #0000AF",
"J	c #570000",
"K	c #FBA396",
"L	c #F19896",
"M	c #C79898",
"N	c #C79EB1",
"O	c #5928CA",
"P	c #0000B3",
"Q	c #960000",
"R	c #720000",
"S	c #930000",
"T	c #EE0000",
"U	c #510000",
"                                                ",
". + . @ @ @ @ @ . + . @ @ @ @ @ . + . @ @ @ @ @ ",
"                                                ",
"@ @ @ @ @ . + . @ @ @ @ @ . + . @ @ @ @ @ . + . ",
"                                                ",
"@ @ @ @ @ . + . @ @ @ @ @ . + . @ @ @ @ @ . + . ",
"                                                ",
"# . . + . @ @ $ + $ $ + $ @ % $ + . . + . @ @ @ ",
"                                                ",
"# . . + . @ % & * = = * - ; > , ' ) $ + . @ @ @ ",
"                                                ",
"@ @ @ @ @ % ! ~ { { { { ] ^ / ( _ : < [ % @ @ @ ",
"                                                ",
"@ @ @ @ $ } = { { { { { | 1 2 3 { { { 4 $ + . @ ",
"                                                ",
". + . @ $ 5 { { { 6 6 { 7 8 9 { { 0 { 4 $ + . @ ",
"                                                ",
". + . % ! ~ { { { a b c d c 7 e { f { 4 % @ @ @ ",
"                                                ",
"@ @ @ % 4 { { { { 7 g a { { a 7 { h i [ % . + . ",
"                                                ",
"@ @ @ % 4 { { { { 7 g 7 { { a a { j k [ % . + . ",
"                                                ",
"# . . + - < l { { m n o { { p q { { { r $ @ @ @ ",
"                                                ",
"# . . + $ s t { { u v w { { x { { y { z $ @ @ @ ",
"                                                ",
"@ @ @ @ @ % ! : { A v B C { D { E F { 4 % @ @ @ ",
"                                                ",
"@ @ @ @ . + ) 4 { G H I J K / L J [ M [ $ + . @ ",
"                                                ",
". + . @ . + $ [ N O P & / / / / / Q ) @ . + . @ ",
"                                                ",
". + . @ @ @ @ @ $ R $ ' / / / / / S $ @ @ @ @ @ ",
"                                                ",
"@ @ @ @ @ . + . @ @ @ % - / / / - % @ @ @ . + . ",
"                                                ",
"@ @ @ @ @ . + . @ @ @ @ % ' T ' % @ @ @ @ . + . ",
"                                                ",
"# . . + . @ @ . + . . + . @ % $ + . . + . @ @ @ ",
"                                                ",
"# . . + . @ @ . + . . + . @ @ . + . . + . @ @ @ ",
"                                                ",
"@ @ @ @ @ @ @ @ @ @ @ @ @ @ @ @ @ @ @ @ @ @ @ @ ",
"                                                ",
"@ @ @ @ . + . @ @ @ @ @ . + . @ @ @ @ @ . + . @ ",
"                                                ",
"@ @ @ @ U Q U @ @ @ @ @ U Q U @ @ @ @ @ U Q U @ "};
