/* XPM */
static char * exit_xpm[] = {
"48 48 357 2",
"  	c #0A0A0A",
". 	c #F34603",
"+ 	c #F56803",
"@ 	c #F34703",
"# 	c #EE3C03",
"$ 	c #EE3D03",
"% 	c #ED3D04",
"& 	c #ED3E04",
"* 	c #F04904",
"= 	c #F26B04",
"- 	c #EF4A04",
"; 	c #EC3F04",
"> 	c #EC3E04",
", 	c #F26A04",
"' 	c #F14904",
") 	c #EF3C03",
"! 	c #EF3B03",
"~ 	c #ED3D03",
"{ 	c #EB3F04",
"] 	c #EB4004",
"^ 	c #172415",
"/ 	c #EA4004",
"( 	c #EE4B04",
"_ 	c #F06C04",
": 	c #EF4B04",
"< 	c #F24803",
"[ 	c #F46903",
"} 	c #172515",
"| 	c #EF3A03",
"1 	c #F04A04",
"2 	c #F16B04",
"3 	c #EA3F04",
"4 	c #E94105",
"5 	c #E94205",
"6 	c #182615",
"7 	c #EC4D05",
"8 	c #EF6D05",
"9 	c #ED4C05",
"0 	c #F14803",
"a 	c #F36903",
"b 	c #F24703",
"c 	c #182515",
"d 	c #182715",
"e 	c #F46F03",
"f 	c #EE6D05",
"g 	c #EB4E05",
"h 	c #182815",
"i 	c #EC6F05",
"j 	c #EB4F05",
"k 	c #E84405",
"l 	c #E74205",
"m 	c #EC4E05",
"n 	c #182816",
"o 	c #182916",
"p 	c #192916",
"q 	c #192A16",
"r 	c #EA4104",
"s 	c #E95006",
"t 	c #192B16",
"u 	c #EA7011",
"v 	c #BA512B",
"w 	c #AB4028",
"x 	c #AC3F28",
"y 	c #BB502B",
"z 	c #EC6F10",
"A 	c #ED4D05",
"B 	c #EF6C04",
"C 	c #192C16",
"D 	c #1A2D16",
"E 	c #EE3B03",
"F 	c #E84305",
"G 	c #E74506",
"H 	c #E64606",
"I 	c #E34706",
"J 	c #DC4911",
"K 	c #1A2E16",
"L 	c #A9442A",
"M 	c #1A2F17",
"N 	c #69786A",
"O 	c #B5E6DA",
"P 	c #B6E6DB",
"Q 	c #6B796E",
"R 	c #AB422B",
"S 	c #E04510",
"T 	c #1A3017",
"U 	c #1B3017",
"V 	c #1B3117",
"W 	c #ED6E10",
"X 	c #BA4F2B",
"Y 	c #AB4128",
"Z 	c #B4492B",
"` 	c #DC4B12",
" .	c #D4490F",
"..	c #1B3317",
"+.	c #797D68",
"@.	c #1C3417",
"#.	c #BCF1DE",
"$.	c #E2FBDE",
"%.	c #BFF1E0",
"&.	c #567B6B",
"*.	c #64463A",
"=.	c #D74719",
"-.	c #1B3217",
";.	c #1C3517",
">.	c #1C3618",
",.	c #1C3718",
"'.	c #1D3718",
").	c #1D3818",
"!.	c #EA4105",
"~.	c #EC6D0D",
"{.	c #847F6E",
"].	c #AAD8CD",
"^.	c #6D8578",
"/.	c #9E4F35",
"(.	c #9B4929",
"_.	c #1D3A18",
":.	c #7D9B83",
"<.	c #1E3C19",
"[.	c #DBF9D6",
"}.	c #BDF8D7",
"|.	c #5A8976",
"1.	c #2C4F42",
"2.	c #504C3F",
"3.	c #AB4A2F",
"4.	c #DE4611",
"5.	c #E64405",
"6.	c #1C3518",
"7.	c #1E3E19",
"8.	c #1F4019",
"9.	c #1F4119",
"0.	c #E14310",
"a.	c #AC3C25",
"b.	c #80978B",
"c.	c #E1FBE1",
"d.	c #76A897",
"e.	c #2E6252",
"f.	c #568668",
"g.	c #20431A",
"h.	c #B3F1CD",
"i.	c #21471A",
"j.	c #D1F8CA",
"k.	c #75B494",
"l.	c #3D7862",
"m.	c #335B46",
"n.	c #2A5040",
"o.	c #654C3D",
"p.	c #D64819",
"q.	c #E64506",
"r.	c #E74305",
"s.	c #1E3B18",
"t.	c #1F3E19",
"u.	c #20421A",
"v.	c #21461A",
"w.	c #224A1B",
"x.	c #234D1B",
"y.	c #23501C",
"z.	c #24511C",
"A.	c #D9410D",
"B.	c #7B796D",
"C.	c #C2F9DE",
"D.	c #B2EBD7",
"E.	c #5D957B",
"F.	c #578F68",
"G.	c #24531C",
"H.	c #A0E8B9",
"I.	c #275C1E",
"J.	c #9CE9B4",
"K.	c #5CA172",
"L.	c #3A7552",
"M.	c #325D42",
"N.	c #294E3C",
"O.	c #4E493A",
"P.	c #AA4A2F",
"Q.	c #DE4711",
"R.	c #E74405",
"S.	c #25551C",
"T.	c #275D1E",
"U.	c #2A661F",
"V.	c #2C6D20",
"W.	c #2D7021",
"X.	c #EC3C04",
"Y.	c #E94305",
"Z.	c #D93E06",
"`.	c #8F988B",
" +	c #8BC0B0",
".+	c #A5DEC6",
"++	c #5C9370",
"@+	c #377744",
"#+	c #2B6B20",
"$+	c #429C50",
"%+	c #348925",
"&+	c #45AD4C",
"*+	c #459F52",
"=+	c #3C804E",
"-+	c #578B66",
";+	c #AEE5CC",
">+	c #B3E5D4",
",+	c #6A7C6C",
"'+	c #AB442B",
")+	c #1A2F16",
"!+	c #26581D",
"~+	c #2F7A22",
"{+	c #389727",
"]+	c #42BA2C",
"^+	c #47CE2F",
"/+	c #F27004",
"(+	c #B14D2A",
"_+	c #6B7A6E",
":+	c #AADDD0",
"<+	c #629584",
"[+	c #44836B",
"}+	c #3E7C56",
"|+	c #429150",
"1+	c #4CCB42",
"2+	c #62FF40",
"3+	c #8AFF5B",
"4+	c #4AC83F",
"5+	c #3C8B49",
"6+	c #6CA77B",
"7+	c #D7F9D1",
"8+	c #BDF2DA",
"9+	c #598476",
"0+	c #64493F",
"a+	c #D84517",
"b+	c #21481A",
"c+	c #358F26",
"d+	c #FFFFFF",
"e+	c #ED6C0C",
"f+	c #857E6E",
"g+	c #ABD9CF",
"h+	c #65968C",
"i+	c #447C6D",
"j+	c #509179",
"k+	c #468B66",
"l+	c #4CA361",
"m+	c #4ECF45",
"n+	c #3E8D4B",
"o+	c #589065",
"p+	c #A1D8BC",
"q+	c #59826D",
"r+	c #376961",
"s+	c #675046",
"t+	c #EB4105",
"u+	c #DB3A05",
"v+	c #90978D",
"w+	c #E4FBE5",
"x+	c #7CADA2",
"y+	c #3B6D60",
"z+	c #488470",
"A+	c #458567",
"B+	c #4B9867",
"C+	c #4CA85B",
"D+	c #47AF4E",
"E+	c #46A054",
"F+	c #438B5B",
"G+	c #366744",
"H+	c #2D523C",
"I+	c #335747",
"J+	c #396B63",
"K+	c #674F46",
"L+	c #D94517",
"M+	c #EB4104",
"N+	c #DB3B05",
"O+	c #90968D",
"P+	c #E5FCE6",
"Q+	c #79A49B",
"R+	c #2F5347",
"S+	c #3A6857",
"T+	c #417C63",
"U+	c #428362",
"V+	c #438A5F",
"W+	c #438E5D",
"X+	c #428A5E",
"Y+	c #3C7654",
"Z+	c #335E42",
"`+	c #315440",
" @	c #305244",
".@	c #325C55",
"+@	c #664B43",
"@@	c #DD4F16",
"#@	c #EE6E05",
"$@	c #DB3E0C",
"%@	c #7E7972",
"&@	c #ADDDD7",
"*@	c #628D85",
"=@	c #2F5047",
"-@	c #315344",
";@	c #386755",
">@	c #3A6D55",
",@	c #3C7357",
"'@	c #417D61",
")@	c #3B7156",
"!@	c #335D42",
"~@	c #315540",
"{@	c #315345",
"]@	c #355D54",
"^@	c #504C44",
"/@	c #AD452F",
"(@	c #E54E10",
"_@	c #DC4118",
":@	c #664641",
"<@	c #2F5756",
"[@	c #365B58",
"}@	c #304D44",
"|@	c #2F4C41",
"1@	c #2D4F40",
"2@	c #305240",
"3@	c #325843",
"4@	c #376551",
"5@	c #304F40",
"6@	c #305046",
"7@	c #325B55",
"8@	c #D94416",
"9@	c #E4400F",
"0@	c #AF422F",
"a@	c #4E4440",
"b@	c #274641",
"c@	c #274741",
"d@	c #50493F",
"e@	c #964B36",
"f@	c #504D3F",
"g@	c #294F40",
"h@	c #2C4F40",
"i@	c #2B4F40",
"j@	c #2B4D40",
"k@	c #2B4B41",
"l@	c #284941",
"m@	c #4E473F",
"n@	c #AD462F",
"o@	c #E4410F",
"p@	c #B9432C",
"q@	c #AE442F",
"r@	c #B6462C",
"s@	c #D64719",
"t@	c #B4492C",
"u@	c #A94930",
"v@	c #AA4A30",
"w@	c #AB492F",
"x@	c #AB472F",
"y@	c #AB462F",
"z@	c #B5452C",
"A@	c #EA7006",
"B@	c #E85106",
"C@	c #E54606",
"D@	c #EA4F05",
"E@	c #F03B03",
"F@	c #EE3A03",
"G@	c #F45103",
"H@	c #F38503",
"I@	c #F35204",
"J@	c #ED3C04",
"K@	c #EC3D04",
"L@	c #F15304",
"M@	c #F18604",
"N@	c #F48403",
"O@	c #F45003",
"P@	c #EF3903",
"                                                                                                ",
".   +   @   #   #   $   %   &   *   =   -   ;   ;   ;   ;   >   *   ,   '   $   #   #   )   !   ",
"                                                                                                ",
"!   )   #   $   ~   *   =   -   {   ]   ] ^ / ^ / ^ ( ^ _   :   {   ;   >   &   ~   <   [   @   ",
"                                  ^ ^ ^ ^ } } } } } } } ^ ^ ^ ^                                 ",
"|   #   $   ~   &   1   2   ( ^ 3 } 4 } 5 6 5 6 5 6 7 6 8 } 9 } 3 ^ ]   {   ;   &   0   a   b   ",
"                          ^ ^ } } c 6 6 6 d d d d d d d 6 6 6 c } } ^ ^                         ",
"e   <   0   ,   -   ] ^ 3 } 9 6 f 6 g d g h i h j h k h l d m 6 f 6 9 } ( ^ _   -   &   ~   $   ",
"                    ^ ^ } } 6 6 d h h n o p p p q p p p o n h h d 6 6 } } ^ ^                   ",
"e   0   *   2   : ^ r } 5 6 g h i o s q s t u t v t w t x q y o z h g 6 A } B ^ :   ;   &   ~   ",
"                ^ ^ } 6 6 d h o p q t t C C D D D D D C C t t q p o h d 6 6 } ^ ^               ",
"E   &   >   { ^ r } 5 6 F h G q H t I D J K L M N M O K P D Q t R q S h F 6 5 } r ^ {   >   &   ",
"              ^ } 6 6 d h p q t C D K M T U V V V V V U T M K D C t q p h d 6 6 } ^             ",
"~   >   {   / } 9 6 W h X q Y C Z M ` V  ...+.@.#.@.$...%.V &.M *.C =.q G h F 6 9 } _   -   >   ",
"          ^ ^ } 6 d h o q t D K M V -.@.;.>.,.'.).'.,.>.;.@.-.V M K D t q o h d 6 } ^ ^         ",
"'   =   : ^ !.6 A h ~.q {.C ].T ^.../.,.(._.:.<.[.<.}._.|.,.1...2.T 3.C 4.q 5.h 7 6 8 ^ :   >   ",
"          ^ } 6 d h p t C K M V ..6.)._.<.7.8.9.9.9.8.7.<._.).6...V M K C t p h d 6 } ^         ",
"*   2   ( } 5 6 0.o a.t b.M c...d.).e.7.f.g.h.i.j.i.k.g.l.7.m.).n...o.M p.t q.o r.6 5 } /   ;   ",
"        ^ } 6 d h p t C K T -.;.).s.t.u.v.w.x.y.z.y.x.w.v.u.t.s.).;.-.T K C t p h d 6 } ^       ",
">   {   r } 5 d A.q B.D O V C.,.D.7.E.i.F.G.H.I.J.I.K.G.L.i.M.7.N.,.O.V P.D Q.q R.d 7 } B   -   ",
"      ^ ^ } 6 h o q C K T -.;.).<.9.v.x.S.T.U.V.W.V.U.T.S.x.v.9.<.).;.-.T K C q o h 6 } ^ ^     ",
"X.  { ^ !.6 Y.h Z.t `.K c... +_..+g.++G.@+#+$+%+&+%+*+#+=+G.-+g.;+_.>+..,+K '+t S h 7 6 8 ^ -   ",
"      ^ } 6 d h p t D )+V @.,.s.8.v.x.!+U.~+{+]+^+]+{+~+U.!+x.v.8.s.,.@.V )+D t p h d 6 } ^     ",
"/+  : ^ 9 6 W h (+t _+M :+@.<+<.[+i.}+I.|+%+1+2+3+2+4+%+5+I.6+i.7+<.8+@.9+M 0+t a+h Y.6 !.^ ]   ",
"      ^ } 6 d h q t D M V @.).<.9.b+z.T.W.c+^+3+d+3+^+c+W.T.z.b+9.<.).@.V M D t q h d 6 } ^     ",
"/+  : ^ 9 6 e+h f+t g+M h+@.i+<.j+i.k+I.l+%+m+2+3+2+4+%+n+I.o+i.p+<.q+@.r+M s+t a+h Y.6 !.^ ]   ",
"      ^ } 6 d h p t D )+V @.,.s.8.v.x.!+U.~+{+]+^+]+{+~+U.!+x.v.8.s.,.@.V )+D t p h d 6 } ^     ",
"X.  { ^ t+6 u+h v+t w+K x+..y+_.z+g.A+G.B+#+C+%+D+%+E+#+F+G.G+g.H+_.I+..J+K K+t L+h F 6 !.^ {   ",
"      ^ ^ } 6 h o q C K T -.;.).<.9.v.x.S.T.U.V.W.V.U.T.S.x.v.9.<.).;.-.T K C q o h 6 } ^ ^     ",
">   {   M+} N+d O+q P+D Q+V R+,.S+7.T+i.U+G.V+I.W+I.X+G.Y+i.Z+7.`+,. @V .@D +@q @@d #@} (   {   ",
"        ^ } 6 d h p t C K T -.;.).s.t.u.v.w.x.y.z.y.x.w.v.u.t.s.).;.-.T K C t p h d 6 } ^       ",
"*   2   : } $@6 %@o &@t *@M =@..-@).;@7.>@g.,@i.'@i.)@g.!@7.~@).{@..]@M ^@t /@o (@6 f } (   ;   ",
"          ^ } 6 d h p t C K M V ..6.)._.<.7.8.9.9.9.8.7.<._.).6...V M K C t p h d 6 } ^         ",
"'   =   : ^ _@6 :@h <@q [@C }@T |@..1@,.2@_.3@<.4@<.3@_.2@,.5@..6@T 7@C +@q 8@h 5 6 !.^ ]   >   ",
"          ^ ^ } 6 d h o q t D K M V -.@.;.>.,.'.).'.,.>.;.@.-.V M K D t q o h d 6 } ^ ^         ",
"~   >   {   9@} 0@6 a@h b@q c@C d@M e@V f@..g@@.h@@.i@..j@V k@M l@C m@q n@h 0.6 5 } (   2   *   ",
"              ^ } 6 6 d h p q t C D K M T U V V V V V U T M K D C t q p h d 6 6 } ^             ",
"E   &   >   { ^ o@} p@6 q@h /@q r@t s@D t@K u@M v@M v@K w@D x@t y@q z@h 0.6 5 } r ^ -   =   '   ",
"                ^ ^ } 6 6 d h o p q t t C C D D D D D C C t t q p o h d 6 6 } ^ ^               ",
"e   0   *   2   : ^ r } 5 6 g h i o s q s t A@t B@t C@t C@q s o i h g 6 A } B ^ :   ;   &   ~   ",
"                    ^ ^ } } 6 6 d h h n o p p p q p p p o n h h d 6 6 } } ^ ^                   ",
"e   <   0   ,   -   ] ^ / } 9 6 f 6 g d g h i h D@h R.h r.d g 6 f 6 9 } ( ^ _   -   &   ~   $   ",
"                          ^ ^ } } c 6 6 6 d d d d d d d 6 6 6 c } } ^ ^                         ",
"|   #   $   ~   &   ;   {   ] ^ r } 4 } 5 6 5 6 5 6 5 6 5 } 4 } r ^ ]   {   ;   &   ~   $   #   ",
"                                  ^ ^ ^ ^ } } } } } } } ^ ^ ^ ^                                 ",
"!   )   #   $   0   ,   *   ;   {   ]   ] ^ / ^ ( ^ _ ^ (   ]   {   ;   >   &   0   a   b   )   ",
"                                                                                                ",
"E@  !   )   F@  G@  H@  I@  J@  >   >   ;   K@  L@  M@  L@  K@  >   &   %   E   G@  N@  O@  P@  "};
