/* XPM */
static char * exit_xpm[] = {
"48 48 307 2",
"  	c #000000",
". 	c #0D0D0D",
"+ 	c #191919",
"@ 	c #D0D0D0",
"# 	c #1F1F1F",
"$ 	c #161616",
"% 	c #222222",
"& 	c #092D2D",
"* 	c #494934",
"= 	c #373709",
"- 	c #353500",
"; 	c #323200",
"> 	c #002E2E",
", 	c #001C1C",
"' 	c #002626",
") 	c #004545",
"! 	c #005353",
"~ 	c #246262",
"{ 	c #005F5F",
"] 	c #5F5F5F",
"^ 	c #5C5C5C",
"/ 	c #535353",
"( 	c #474747",
"_ 	c #003B3B",
": 	c #2E2E00",
"< 	c #3B3B00",
"[ 	c #004B4B",
"} 	c #6D6D6D",
"| 	c #7D7D7D",
"1 	c #888888",
"2 	c #8D8D8D",
"3 	c #898989",
"4 	c #008181",
"5 	c #757575",
"6 	c #006262",
"7 	c #515151",
"8 	c #002222",
"9 	c #060606",
"0 	c #121212",
"a 	c #1A1A1A",
"b 	c #080808",
"c 	c #424200",
"d 	c #636363",
"e 	c #727272",
"f 	c #008686",
"g 	c #009999",
"h 	c #00A7A7",
"i 	c #B2B200",
"j 	c #BBBBBB",
"k 	c #00BDBD",
"l 	c #00B8B8",
"m 	c #B4B4B4",
"n 	c #ABABAB",
"o 	c #959595",
"p 	c #7F7F7F",
"q 	c #4D4D4D",
"r 	c #3B3B3B",
"s 	c #2A2A2A",
"t 	c #0B0B0B",
"u 	c #878787",
"v 	c #C7C7C7",
"w 	c #101010",
"x 	c #262626",
"y 	c #3D3D00",
"z 	c #686868",
"A 	c #9D9D9D",
"B 	c #B2B2B2",
"C 	c #C5C5C5",
"D 	c #00D0D0",
"E 	c #D8D8D8",
"F 	c #E2E2E2",
"G 	c #E4E4E4",
"H 	c #E0E0E0",
"I 	c #DBDBDB",
"J 	c #CACACA",
"K 	c #B5B5B5",
"L 	c #9E9E9E",
"M 	c #888800",
"N 	c #005151",
"O 	c #1C1C1C",
"P 	c #323232",
"Q 	c #5D5D5D",
"R 	c #007676",
"S 	c #009090",
"T 	c #A7A7A7",
"U 	c #B7B7B7",
"V 	c #C4C400",
"W 	c #D7D7D7",
"X 	c #E8E8E8",
"Y 	c #EEEEEE",
"Z 	c #F2F2F2",
"` 	c #F7F7F7",
" .	c #F9F9F9",
"..	c #F6F6F6",
"+.	c #E1E1E1",
"@.	c #CCCCCC",
"#.	c #B8B8B8",
"$.	c #8E8E8E",
"%.	c #5A5A5A",
"&.	c #004747",
"*.	c #242424",
"=.	c #4B4B4B",
"-.	c #848484",
";.	c #9F9F9F",
">.	c #B6B6B6",
",.	c #CDCDCD",
"'.	c #DCDCDC",
").	c #F0F0F0",
"!.	c #FBFBFB",
"~.	c #FCFCFC",
"{.	c #FEFEFE",
"].	c #FFFFFF",
"^.	c #EDEDED",
"/.	c #D6D6D6",
"(.	c #CBCBCB",
"_.	c #ACACAC",
":.	c #6C6C6C",
"<.	c #383800",
"[.	c #070707",
"}.	c #0A0A0A",
"|.	c #6E6E6E",
"1.	c #009393",
"2.	c #E9E9E9",
"3.	c #F3F3F3",
"4.	c #0000FF",
"5.	c #FF00FF",
"6.	c #00FEFE",
"7.	c #F5F5F5",
"8.	c #D4D4D4",
"9.	c #B3B3B3",
"0.	c #8F8F8F",
"a.	c #707070",
"b.	c #454545",
"c.	c #999999",
"d.	c #C3C3C3",
"e.	c #EFEFEF",
"f.	c #FDFDFD",
"g.	c #E7E7E7",
"h.	c #008C8C",
"i.	c #004D4D",
"j.	c #001616",
"k.	c #003838",
"l.	c #008B8B",
"m.	c #C0C0C0",
"n.	c #00FFFF",
"o.	c #C6C604",
"p.	c #AAAAAA",
"q.	c #8C8C00",
"r.	c #767676",
"s.	c #D9D9D9",
"t.	c #F1F1F1",
"u.	c #00B2B2",
"v.	c #939393",
"w.	c #737373",
"x.	c #565656",
"y.	c #050505",
"z.	c #006666",
"A.	c #EBEBEB",
"B.	c #00FBFB",
"C.	c #F4F4F4",
"D.	c #EAEAEA",
"E.	c #00B7B7",
"F.	c #009494",
"G.	c #717171",
"H.	c #2D2D0A",
"I.	c #858585",
"J.	c #4F4F4F",
"K.	c #818181",
"L.	c #B9B9B9",
"M.	c #E3E3E3",
"N.	c #FFFF00",
"O.	c #FAFAFA",
"P.	c #00B4B4",
"Q.	c #8C8C8C",
"R.	c #444413",
"S.	c #1B1B1B",
"T.	c #212121",
"U.	c #111111",
"V.	c #404040",
"W.	c #D2D2D2",
"X.	c #00FF00",
"Y.	c #007C7C",
"Z.	c #585858",
"`.	c #3C5252",
" +	c #0A2020",
".+	c #181818",
"++	c #008383",
"@+	c #E6E6E6",
"#+	c #C2C2C2",
"$+	c #2A5656",
"%+	c #002A2A",
"&+	c #004242",
"*+	c #006A6A",
"=+	c #D3D3D3",
"-+	c #00AAAA",
";+	c #606060",
">+	c #007777",
",+	c #DEDEDE",
"'+	c #F8F8F8",
")+	c #BEBEBE",
"!+	c #969696",
"~+	c #454500",
"{+	c #007E7E",
"]+	c #D1D1D1",
"^+	c #787878",
"/+	c #000D0D",
"(+	c #555555",
"_+	c #E5E5E5",
":+	c #DFDFDF",
"<+	c #008080",
"[+	c #2A2A00",
"}+	c #003535",
"|+	c #FD00FD",
"1+	c #008282",
"2+	c #424242",
"3+	c #A1A1A1",
"4+	c #FEFE00",
"5+	c #AFAFAF",
"6+	c #6A6A6A",
"7+	c #009191",
"8+	c #AAAA00",
"9+	c #007A7A",
"0+	c #004F4F",
"a+	c #005555",
"b+	c #A5A500",
"c+	c #007979",
"d+	c #00B6B6",
"e+	c #00A5A5",
"f+	c #797979",
"g+	c #8E8E00",
"h+	c #BFBFBF",
"i+	c #A8A8A8",
"j+	c #008989",
"k+	c #BDBDBD",
"l+	c #AEAEAE",
"m+	c #838383",
"n+	c #01D7D7",
"o+	c #06B2B2",
"p+	c #666666",
"q+	c #919100",
"r+	c #00FDFD",
"s+	c #D5D5D5",
"t+	c #BABABA",
"u+	c #00A3A3",
"v+	c #02CCCC",
"w+	c #404000",
"x+	c #919191",
"y+	c #004949",
"z+	c #808000",
"A+	c #00B5B5",
"B+	c #009595",
"C+	c #777777",
"D+	c #005858",
"E+	c #707000",
"F+	c #9B9B9B",
"G+	c #BCBCBC",
"H+	c #007171",
"I+	c #C9C9C9",
"J+	c #020202",
"K+	c #0E0E0E",
"L+	c #006D6D",
"M+	c #0000FE",
"N+	c #9C9C9C",
"O+	c #040404",
"P+	c #2E2E2E",
"Q+	c #737300",
"R+	c #00D1D1",
"S+	c #ECECEC",
"T+	c #CFCFCF",
"U+	c #A2A2A2",
"V+	c #757500",
"W+	c #383801",
"X+	c #7E7E7E",
"Y+	c #032323",
"Z+	c #40401D",
"`+	c #035555",
" @	c #007575",
".@	c #252525",
"+@	c #3B3B01",
"@@	c #007373",
"#@	c #005A5A",
"$@	c #004040",
"%@	c #9A9A9A",
"&@	c #FDFD00",
"*@	c #B1B1B1",
"=@	c #929292",
"-@	c #010101",
";@	c #003D3D",
">@	c #686800",
",@	c #828282",
"'@	c #009B9B",
")@	c #00A9A9",
"!@	c #030303",
"~@	c #949494",
"{@	c #ADADAD",
"]@	c #00CECE",
"^@	c #00CFCF",
"/@	c #009898",
"(@	c #0C0C0C",
"_@	c #009E9E",
":@	c #A3A3A3",
"<@	c #009F9F",
"[@	c #009D9D",
"}@	c #7D7D00",
"|@	c #7A7A7A",
"1@	c #151515",
"2@	c #434343",
"                                      . + @ # $ $ . .                                           ",
"                                  . $ % & * = - ; > % , . .                                     ",
"                            . . , ' - ) ! ~ { ] ^ / ( _ > % , $ .                               ",
"                        . $ % : < [ ^ } | 1 2 2 3 4 5 6 7 ) < : 8 .                   9 0 9     ",
"a b                   . % ; c / d e f g h i j k l m n o p } ] q r s , . .             t u t     ",
"v w                 $ x y ! z | 2 A B C D E F G H H I J K L M 5 d N y > x O .         9 % 9     ",
"P b             . O : ) Q R S T U V W X Y Z `  .` ` ..Y +.@.#.T A $.e %.&.- % .         +       ",
"*.              $ ; =.z -.;.>.,.'.G ). .!.~.{.].{.{.{.~.` ^.+.W /.(._.u :./ <., .       [.      ",
"}.            $ : =.|.1.K ,.I 2.3.` !.{.].].].4.    5.].6.!.` 3.7.Y 8.9.0.a.N - , .             ",
"            . x b.:.c.d.H e.7. .~.{.5.4.                    6.f.f. .g.{._.h.:.i.- 8 .           ",
"            j.k.^ l.m.g.` f.{.{.n.4.    4.                      n.~.Z +.o.p.q.|.! < % .         ",
"          . ' [ r.T s...{.].n.4.4.                                  !.t.H ,.u.v.w.x.<.,         ",
"  y.0 y.  O < z.c.v A.!.].n.5.                                        B.C.D./.E.F.G.i.H.x }.    ",
"  t I.t $ s J.K.L.M.` {.N.5.                                            6.O.e.W P.Q.d R.e.S.    ",
"  y.T.U.% V.z L W.t.f.n.X.                                                {.{.Y 8.p.Y.Z.`. +    ",
"    .+$ - x.++j @+ .].                                                      {.O.X #+F.|.$+%+.   ",
"    0 % &+*+A =+C.{.                                                        5.f.Z 8.-+-.;+< ,   ",
"    . ' =.>+_.,+'+N.                                                          {.` F )+!+} ~+% . ",
"    . %+7 {+B F O.                                                            ].!.Y ]+T ^+i.' /+",
"    . : (+I.L._+!.                                                              {...:+9.<+7 [+. ",
"    $ }+] 1.C A.|+                                                              {.'+H P.1+(+: . ",
"  . % 2+} 3+=+Z                                                                 {.'+:+u.K.(+: . ",
"  $ - x.| -+/.C.                                                                4+..'.5+p ! [+. ",
". % ) 6+7+>.I ..                                                                6.3./.8+9+0+%+. ",
". : a+| b+J g. .                                                                6.Z =+T c+0+%+. ",
"$ - Q 3 d+'.3.~.                                                                f.).]+e+f+0+%+. ",
"$ <.;+g+h+g.O.{.                                                                f.t.=+i+| ! : . ",
"$ - ^ j+k+g.O.{.                                                                f.Z /.l+m+%.; $ ",
". > 7 Y.n /.).!.n.                                                              f.Z n+o+1 ] k.$ ",
". % c p+q+j :+7.r+                                                            ].f.t.s+t+3 Q }+$ ",
"  $ ; N ^+u+@ Y ~.                                                            ].!.A.v+i+p x.; $ ",
"  . % w+d x+d.2.O.N.                                                        n.O.Y E >.v.|.y+' . ",
"    $ ; (+z+B '.3.f.                                                      ].f.)./.A+B+C+D+<.,   ",
"    . x &.E+F+C _+'+{.                                                4.].6.'+G G+x+H+Z.y x .   ",
"      , < Q -._.=+^.'+r+                                              ].]...g.I+F+} q <.x .     ",
"  J+9 K+%+[ L+v.L./.X ..M+                                          ].].O.g.C N+G.=.: , .       ",
"  O+P+O+, - / Q+o m R+D. .                                        5.]. .S+T+U+V+0+> $           ",
"  J+t J+. 8 W+(+w.F.>.W Y '+r+                                4.n.{.O.D.,.i+X+x.<.,             ",
"    b     . Y+Z+`+ @!+L./.g.C.~.                          4.X.].!.7.2.]+T X+Q w+x .             ",
"    J+      K+.@+@x.@@7+_.v H ^.C.B.O+              4.].].].{. .^.s.#+T K.#@$@%+$               ",
"              U.x < J.d c+%@U I+I ^.` !.f.&@|+r+{.6.{.f.!. .C.g.]+*@=@V+x._ x $                 ",
"              -@. 8 : ;@q >@,@'@t+8.F A.Y Y Y e.3.C.C.t.D._+I C )@3 6+q ; , .           -@!@-@  ",
"                  . $ , %+V.D+ @~@{@j C (.]@^@W.s+W.W.@ C j 5+/@{+d y+: , .           !@(@.+J+  ",
"                        $ x < N *+X+l.B+_@:@h i+e+<@[@N+~@3 }@*+(+w+%+$               [.7 t -@  ",
"                          . % ; ) (+;+6+w.|@| |@w.} :.:.z Q 7 &+; % . O+t O+          !@1@9     ",
"t *.t                       . $ x ; < c [ N ! 0+y+) ) ~+c < : % $ .   [.x.[.            K+-@    ",
"$ ].$                           . $ , % ' : : %+x % % % % , . .       O+1@O+            O+      ",
"t 2@t                                 . w $ w . . . . . .               w                       "};
