/* XPM */
static char * exitD_xpm[] = {
"48 48 591 2",
"  	c #090909",
". 	c #080808",
"+ 	c #070707",
"@ 	c #050505",
"# 	c #040404",
"$ 	c #020202",
"% 	c #000000",
"& 	c #060606",
"* 	c #480000",
"= 	c #6F0000",
"- 	c #3A0000",
"; 	c #3C0E12",
"> 	c #402B2B",
", 	c #433F4C",
"' 	c #030303",
") 	c #4F5465",
"! 	c #596175",
"~ 	c #706878",
"{ 	c #797979",
"] 	c #608282",
"^ 	c #838FA8",
"/ 	c #8A93A7",
"( 	c #B198AC",
"_ 	c #8894A8",
": 	c #9BA7AC",
"< 	c #8599A3",
"[ 	c #968B95",
"} 	c #697D7D",
"| 	c #705D6A",
"1 	c #4D5050",
"2 	c #404654",
"3 	c #4B3A46",
"4 	c #362B32",
"5 	c #6E2121",
"6 	c #490F0F",
"7 	c #3B0808",
"8 	c #765F6E",
"9 	c #677188",
"0 	c #7E899D",
"a 	c #B1A88C",
"b 	c #BEB496",
"c 	c #B9B9B9",
"d 	c #CFC4A3",
"e 	c #C5D3D7",
"f 	c #D8CAD8",
"g 	c #D5C8D5",
"h 	c #D4D4D4",
"i 	c #D1D1D1",
"j 	c #C4C4C4",
"k 	c #B1B1B1",
"l 	c #9F959F",
"m 	c #8B836D",
"n 	c #666666",
"o 	c #515867",
"p 	c #4E4E4E",
"q 	c #474337",
"r 	c #333333",
"s 	c #27241C",
"t 	c #3F181D",
"u 	c #675A6C",
"v 	c #6E6E6E",
"w 	c #5C8194",
"x 	c #7F8AA2",
"y 	c #6595AF",
"z 	c #C3B89A",
"A 	c #A6D4D4",
"B 	c #DEDEDE",
"C 	c #A1E4E4",
"D 	c #E9E9E9",
"E 	c #BAEFEF",
"F 	c #F1F1F1",
"G 	c #B9EFEF",
"H 	c #EEEEEE",
"I 	c #ACEDED",
"J 	c #E6E6E6",
"K 	c #87D9D9",
"L 	c #C9C9C9",
"M 	c #7EB5B6",
"N 	c #929EA2",
"O 	c #6C8E93",
"P 	c #7C8588",
"Q 	c #697179",
"R 	c #676066",
"S 	c #4E4C4C",
"T 	c #383838",
"U 	c #412C2C",
"V 	c #3C151B",
"W 	c #7B7B7B",
"X 	c #8C98A6",
"Y 	c #BAA7B3",
"Z 	c #BDBDBD",
"` 	c #C6C6C6",
" .	c #D0DFE0",
"..	c #EDEDED",
"+.	c #F3F3F3",
"@.	c #F6F6F6",
"#.	c #F8F8F8",
"$.	c #FBFBFB",
"%.	c #FCFCFC",
"&.	c #F7F7F7",
"*.	c #E7E7E7",
"=.	c #D9D9D9",
"-.	c #CBCBCB",
";.	c #BFBFBF",
">.	c #B0B0B0",
",.	c #9C9C9C",
"'.	c #757E80",
").	c #38352A",
"!.	c #2B2228",
"~.	c #3D1E1E",
"{.	c #494646",
"].	c #67604F",
"^.	c #61808A",
"/.	c #969696",
"(.	c #75ABAB",
"_.	c #B5C3C8",
":.	c #A0DADA",
"<.	c #E4E4E4",
"[.	c #B6EBEB",
"}.	c #F2F2F2",
"|.	c #C1F9F9",
"1.	c #B7F3F3",
"2.	c #E2E2E2",
"3.	c #91D5D5",
"4.	c #C8C8C8",
"5.	c #7AC2C2",
"6.	c #C3C3C3",
"7.	c #73C9C9",
"8.	c #C8DCFD",
"9.	c #8AE2F1",
"0.	c #AEF0F0",
"a.	c #B0E2E2",
"b.	c #E1E1E1",
"c.	c #ACDCDC",
"d.	c #88AAAA",
"e.	c #5B5360",
"f.	c #45352A",
"g.	c #481015",
"h.	c #746371",
"i.	c #889295",
"j.	c #B4B4B4",
"k.	c #DADADA",
"l.	c #F5F5F5",
"m.	c #E7F8F9",
"n.	c #D7E9FB",
"o.	c #CADDFE",
"p.	c #EAB6D7",
"q.	c #8A8A8A",
"r.	c #191919",
"s.	c #A76283",
"t.	c #85CCCE",
"u.	c #C5C5C5",
"v.	c #CDDFF8",
"w.	c #CACACA",
"x.	c #AA98A3",
"y.	c #363328",
"z.	c #780000",
"A.	c #4A1318",
"B.	c #6D4040",
"C.	c #70606D",
"D.	c #7A9999",
"E.	c #BEBEBE",
"F.	c #AADADA",
"G.	c #EBEBEB",
"H.	c #BCF2F2",
"I.	c #A1F9FA",
"J.	c #EFEFEF",
"K.	c #45D6FD",
"L.	c #036064",
"M.	c #47D7FD",
"N.	c #B3EAF9",
"O.	c #F0F0F0",
"P.	c #91DBDC",
"Q.	c #C0ABC0",
"R.	c #628484",
"S.	c #50596B",
"T.	c #443328",
"U.	c #3D1318",
"V.	c #808A8D",
"W.	c #BBBBBB",
"X.	c #FAFAFA",
"Y.	c #FDFDFD",
"Z.	c #0A2664",
"`.	c #EDBBDB",
" +	c #C1CFD5",
".+	c #96A4BB",
"++	c #808BA2",
"@+	c #727272",
"#+	c #010101",
"$+	c #3A372B",
"%+	c #4C2A21",
"&+	c #6C707A",
"*+	c #A6A6A6",
"=+	c #9BD2D2",
"-+	c #C2FBFB",
";+	c #FEFEFE",
">+	c #B2FEFF",
",+	c #5A5A5A",
"'+	c #AFF4F4",
")+	c #E8E8E8",
"!+	c #85CAD8",
"~+	c #B3C1C4",
"{+	c #83A287",
"]+	c #727D8F",
"^+	c #535F5F",
"/+	c #443838",
"(+	c #3B1010",
"_+	c #696969",
":+	c #988E97",
"<+	c #C1C1C1",
"[+	c #E3E3E3",
"}+	c #FFF5CD",
"|+	c #7CC5C8",
"1+	c #581A42",
"2+	c #ECECEC",
"3+	c #E0E0E0",
"4+	c #BECCCD",
"5+	c #B29FAA",
"6+	c #747F91",
"7+	c #343126",
"8+	c #3C1515",
"9+	c #535656",
"0+	c #888888",
"a+	c #91B5B5",
"b+	c #BAF0F0",
"c+	c #B8F4F4",
"d+	c #BABABA",
"e+	c #001216",
"f+	c #581841",
"g+	c #C0E8F7",
"h+	c #B3E6E6",
"i+	c #C0CECF",
"j+	c #86AAAA",
"k+	c #76818F",
"l+	c #525B5B",
"m+	c #402828",
"n+	c #716C5A",
"o+	c #A1A1A1",
"p+	c #CDCDCD",
"q+	c #F9F9F9",
"r+	c #D8EBFE",
"s+	c #9FB4E2",
"t+	c #0E0E0E",
"u+	c #9DA9AC",
"v+	c #707A86",
"w+	c #252525",
"x+	c #412F2F",
"y+	c #688789",
"z+	c #AEDEDE",
"A+	c #F4F4F4",
"B+	c #B3F2CB",
"C+	c #334E88",
"D+	c #7F96C8",
"E+	c #9DF6FB",
"F+	c #89E3E3",
"G+	c #769898",
"H+	c #454654",
"I+	c #343434",
"J+	c #6C6C6C",
"K+	c #A2A2A2",
"L+	c #CECECE",
"M+	c #E4F5FA",
"N+	c #C4D7FE",
"O+	c #D7D7D7",
"P+	c #491A21",
"Q+	c #6D4B3C",
"R+	c #818181",
"S+	c #8BB7B7",
"T+	c #DFDFDF",
"U+	c #BEF6F6",
"V+	c #006064",
"W+	c #8EF6F6",
"X+	c #90AFBB",
"Y+	c #4E6478",
"Z+	c #8E8E8E",
"`+	c #F9DDF9",
" @	c #196D5B",
".@	c #BDCBD1",
"+@	c #A1977C",
"@@	c #4A2121",
"#@	c #6A5858",
"$@	c #949494",
"%@	c #95C8C8",
"&@	c #EAEAEA",
"*@	c #A7B9D9",
"=@	c #ACF8FC",
"-@	c #ADDEDE",
";@	c #AEBCC1",
">@	c #6C8888",
",@	c #5F5F5F",
"'@	c #A19A81",
")@	c #9CB1DE",
"!@	c #CFCFCF",
"~@	c #412A21",
"{@	c #5B737C",
"]@	c #AB9FAB",
"^@	c #A5D3D3",
"/@	c #003232",
"(@	c #329696",
"_@	c #8CEEEE",
":@	c #75A6AA",
"<@	c #7E878A",
"[@	c #B8B8B8",
"}@	c #DCDCDC",
"|@	c #93A7D3",
"1@	c #7B92C4",
"2@	c #C4D2D3",
"3@	c #380000",
"4@	c #7A8E77",
"5@	c #C0C0C0",
"6@	c #B1E3E3",
"7@	c #8D7C4C",
"8@	c #0485B9",
"9@	c #D1C3D0",
"0@	c #6B9AA6",
"a@	c #6E5866",
"b@	c #818D9C",
"c@	c #B3C1C5",
"d@	c #E5E5E5",
"e@	c #828282",
"f@	c #FAF0C9",
"g@	c #BCCACE",
"h@	c #740000",
"i@	c #7E6575",
"j@	c #658C8C",
"k@	c #CCB7C3",
"l@	c #A9E9E9",
"m@	c #4B9483",
"n@	c #001417",
"o@	c #DDDDDD",
"p@	c #B4E8E8",
"q@	c #B7C5C9",
"r@	c #60889D",
"s@	c #7D7D7D",
"t@	c #A4A4A4",
"u@	c #C4D3D9",
"v@	c #230000",
"w@	c #C3D6F7",
"x@	c #B4C2C6",
"y@	c #720000",
"z@	c #8B97A8",
"A@	c #85C9CE",
"B@	c #B1F6F6",
"C@	c #788FC1",
"D@	c #000021",
"E@	c #CCDEF7",
"F@	c #B2E4E4",
"G@	c #B2BFC4",
"H@	c #648080",
"I@	c #B3AC90",
"J@	c #798FC2",
"K@	c #86446F",
"L@	c #E0F1F7",
"M@	c #B2BFC5",
"N@	c #340000",
"O@	c #B5AAB5",
"P@	c #C3FDFD",
"Q@	c #8C8C8C",
"R@	c #1985B8",
"S@	c #B3E7E7",
"T@	c #B4C2C8",
"U@	c #678585",
"V@	c #ADA1AC",
"W@	c #D5D5D5",
"X@	c #9AAFDE",
"Y@	c #CBC3A3",
"Z@	c #360000",
"`@	c #99C1C1",
" #	c #D0E2FB",
".#	c #001F5E",
"+#	c #12A5A5",
"@#	c #A8E8E8",
"##	c #CAC0A0",
"$#	c #5B86A1",
"%#	c #6F6F6F",
"&#	c #A9A288",
"*#	c #CCCCCC",
"=#	c #7CC4C7",
"-#	c #00003B",
";#	c #D5E4E5",
">#	c #C7B1C7",
",#	c #4F4040",
"'#	c #6E8585",
")#	c #ACB9BC",
"!#	c #A2DEDE",
"~#	c #81C6C6",
"{#	c #8FFBFB",
"]#	c #A1CEDB",
"^#	c #B9AF91",
"/#	c #717285",
"(#	c #737373",
"_#	c #9FABAF",
":#	c #D6D6D6",
"<#	c #F5E8C0",
"[#	c #2D4883",
"}#	c #92804C",
"|#	c #FBE1F1",
"1#	c #B9C7CB",
"2#	c #8D99AA",
"3#	c #4B2B2B",
"4#	c #6C6363",
"5#	c #909BA0",
"6#	c #96C9C9",
"7#	c #BFF6F6",
"8#	c #D3D3D3",
"9#	c #B6E6BE",
"0#	c #BBC9CA",
"a#	c #80A3A3",
"b#	c #6F798E",
"c#	c #4C5E71",
"d#	c #89816A",
"e#	c #A6B3B6",
"f#	c #E2F3FA",
"g#	c #E1ACCE",
"h#	c #FAEAFA",
"i#	c #9DAAAE",
"j#	c #3C1A21",
"k#	c #494747",
"l#	c #676767",
"m#	c #7F889A",
"n#	c #B0BEC3",
"o#	c #AFE0E0",
"p#	c #B5F0F0",
"q#	c #166F6F",
"r#	c #DBDBDB",
"s#	c #8CB9B9",
"t#	c #918B74",
"u#	c #6A5E6D",
"v#	c #4E352A",
"w#	c #97ABD9",
"x#	c #337751",
"y#	c #A7BBE7",
"z#	c #999999",
"A#	c #433126",
"B#	c #5F5866",
"C#	c #937F90",
"D#	c #80B1B4",
"E#	c #BBC9CD",
"F#	c #AEDFDF",
"G#	c #1A6E3B",
"H#	c #00649C",
"I#	c #97BEBE",
"J#	c #988E98",
"K#	c #636F6F",
"L#	c #6E2E2E",
"M#	c #491010",
"N#	c #0B0709",
"O#	c #758092",
"P#	c #9D9D9D",
"Q#	c #B9C6CA",
"R#	c #798FC0",
"S#	c #A8BBE8",
"T#	c #949F9F",
"U#	c #491515",
"V#	c #4E372B",
"W#	c #665F72",
"X#	c #896F80",
"Y#	c #6EA3B0",
"Z#	c #95C99F",
"`#	c #161616",
" $	c #004A4A",
".$	c #E6B3D4",
"+$	c #AFF2F2",
"@$	c #83C4C4",
"#$	c #98A3A4",
"$$	c #5D757E",
"%$	c #433535",
"&$	c #947C8D",
"*$	c #B5A8B3",
"=$	c #EEDFEE",
"-$	c #89B288",
";$	c #102C6A",
">$	c #7E94C6",
",$	c #EFDFED",
"'$	c #C7C7C7",
")$	c #97A3A3",
"!$	c #6B747E",
"~$	c #49151B",
"{$	c #6E382D",
"]$	c #5A6565",
"^$	c #858F93",
"/$	c #8AACAC",
"($	c #A9D8D8",
"_$	c #96EBF1",
":$	c #E1B0CF",
"<$	c #15B1DE",
"[$	c #220000",
"}$	c #00273F",
"|$	c #EEBCDC",
"1$	c #5DE3FA",
"2$	c #A6D5E3",
"3$	c #90C0C0",
"4$	c #A5A5A5",
"5$	c #777981",
"6$	c #4F3A2E",
"7$	c #3D1A13",
"8$	c #919B9C",
"9$	c #B6B6B6",
"0$	c #D8D8D8",
"a$	c #D6C89E",
"b$	c #869CCD",
"c$	c #74BBAB",
"d$	c #D2D2D2",
"e$	c #E9DBB2",
"f$	c #F7E7F7",
"g$	c #B9C7C8",
"h$	c #9DA9AE",
"i$	c #95858F",
"j$	c #6F787C",
"k$	c #423131",
"l$	c #4E4F4F",
"m$	c #74828C",
"n$	c #939FA1",
"o$	c #BBF1F1",
"p$	c #ADF5F6",
"q$	c #80C2C2",
"r$	c #A4B7E2",
"s$	c #A5B8D7",
"t$	c #E7D9B1",
"u$	c #B8E6BF",
"v$	c #E4F5F9",
"w$	c #B8EEEE",
"x$	c #A8D6D6",
"y$	c #C1B3BF",
"z$	c #7B9A9A",
"A$	c #7D7660",
"B$	c #545D5D",
"C$	c #41343C",
"D$	c #6A6A6A",
"E$	c #79848E",
"F$	c #9FABAC",
"G$	c #C2C2C2",
"H$	c #D0D0D0",
"I$	c #B4A8B3",
"J$	c #929292",
"K$	c #666F7F",
"L$	c #525252",
"M$	c #493A43",
"N$	c #0F0F0F",
"O$	c #490709",
"P$	c #6E151B",
"Q$	c #4C3333",
"R$	c #545E5E",
"S$	c #897B83",
"T$	c #739A9D",
"U$	c #9AA6AA",
"V$	c #7FAFB3",
"W$	c #A9B6BB",
"X$	c #84B9BF",
"Y$	c #C1B698",
"Z$	c #8DB7B7",
"`$	c #B5C3C6",
" %	c #94BAC6",
".%	c #C4B7C3",
"+%	c #82B6C2",
"@%	c #B4C1C2",
"#%	c #8EB0BB",
"$%	c #A4B0B3",
"%%	c #7BA8AA",
"&%	c #909B9F",
"*%	c #6A8181",
"=%	c #5B6373",
"-%	c #474D5D",
";%	c #3C3C3C",
">%	c #44272E",
",%	c #626A7D",
"'%	c #717171",
")%	c #777777",
"!%	c #807861",
"~%	c #8E7284",
"{%	c #947789",
"]%	c #978E76",
"^%	c #8F876F",
"/%	c #7D8892",
"(%	c #7C745F",
"_%	c #596270",
":%	c #424242",
"<%	c #510000",
"[%	c #960000",
"}%	c #520E12",
"|%	c #452A31",
"1%	c #484343",
"2%	c #495364",
"3%	c #4D5F72",
"4%	c #4E6377",
"5%	c #5C5D4B",
"6%	c #895769",
"7%	c #5A5545",
"8%	c #4A4A4A",
"9%	c #433737",
"0%	c #3F2119",
"                      . . . + + @ # $ % % % % % % % $ # # @ & + + . .                           ",
"*   =   *   -   -   ; . > & , ' ) ! ~ { ] ^ / ( _ : < [ } | 1 2 3 4 5 . 6   7   -   -   -   -   ",
"                  . . & @ ' % 8 9 0 a b c d e f g h i j k l m n o p q r s . . .                 ",
"-   -   -   7 . t + 3 ' u v w x y z A B C D E F G H I J K L M N O P Q R S T U . V   *   =   *   ",
"            . . + # ' n W X Y Z `  ...+.@.#.$.%.$.$.$.&.F *.=.-.;.c >.,.'.@ # ).!..             ",
"-   -   -   ~.+ {.].^./.(._.:.<.[.}.|.%.1.2.3.4.5.6.7.8.9.#.0.D a.b.c.4.d.m e.# f.. g.  =   *   ",
"          . + @ h.i.j.-.k.<.H l.m.n.o.p.q.r.% % % % % % s.t.u.v.@.@.+.<.w.x.% % # y.. .         ",
"z.  *   A.+ B.C.D.E.F.G.H.@.I.J.K.L.% % % % % % % % % % % % % % M.H N.O.P.Q.R.% S.# T.s U.  -   ",
"        . & @ V.W.B F X.%.Y.2.Z.% % % % % % % % % % % % % % % % % % `.@.D  +.+++@+#+# $+!..     ",
"z.  * . %+@ &+*+=+H -+;+>+j % % % % % % % % % % % % % % % % % % % % % ,+'+)+!+~+{+]+^+' /+!.(+  ",
"      . + _+:+<+[+@.Y.}+|+% % % % % % % % % % % % % % % % % % % % % % % 1+)+2+3+4+5+6+% # 7+.   ",
"-   8++ 9+0+a+k.b+$.c+d+e+% % % % % % % % % % % % % % % % % % % % % % % % f+g++.h+i+j+k+l+@ m+. ",
"  . . & n+o+p+G.q+r+s+t+% % % % % % % % % % % % % % % % % % % % % % % % % % ,+$.l.J p+u+v+' $+w+",
"7 . x+& y+c z+A+B+C+% % % % % % % % % % % % % % % % % % % % % % % % % % % % % D+E+A+F+u.G+% H+I+",
". + @ J+K+L+..M+/.% % % % % % % % % % % % % % % % % % % % % % % % % % % % % % % N+$.O.O+5+% #+@ ",
"P++ Q+R+S+T+U+o.% % % % % % % % % % % % % % % % % % % % % % % % % % % % % % % % V+..W+[+X+R+Y+' ",
". & $ Z+6.*.`+ @% % % % % % % % % % % % % % % % % % % % % % % % % % % % % % % % % 4.X.2+.@+@% #+",
"@@& #@$@%@&@*@% % % % % % % % % % % % % % % % % % % % % % % % % % % % % % % % % % /.=@+.-@;@>@% ",
". @ ,@'@p+2+)@% % % % % % % % % % % % % % % % % % % % % % % % % % % % % % % % % % % 6.#.&@!@& % ",
"~@@ {@]@^@O+/@% % % % % % % % % % % % % % % % % % % % % % % % % % % % % % % % % % % (@$._@h :@% ",
"+ @ <@[@}@|@% % % % % % % % % % % % % % % % % % % % % % % % % % % % % % % % % % % % 1@$.H 2@# % ",
"3@' 4@5@6@7@% % % % % % % % % % % % % % % % % % % % % % % % % % % % % % % % % % % % 8@$._@9@0@% ",
"# a@b@c@d@e@% % % % % % % % % % % % % % % % % % % % % % % % % % % % % % % % % % % % L.f@2+g@% % ",
"h@i@j@k@l@m@% % % % % % % % % % % % % % % % % % % % % % % % % % % % % % % % % % % % n@o@p@q@r@% ",
"% s@t@u@J.0+% % % % % % % % % % % % % % % % % % % % % % % % % % % % % % % % % % % % v@w@J x@% % ",
"y@z@A@J B@C@% % % % % % % % % % % % % % % % % % % % % % % % % % % % % % % % % % % % D@E@F@G@H@% ",
"% I@=.O.$.J@% % % % % % % % % % % % % % % % % % % % % % % % % % % % % % % % % % % % K@L@d@M@% % ",
"N@O@c.+.P@Q@% % % % % % % % % % % % % % % % % % % % % % % % % % % % % % % % % % % % R@#.S@T@U@% ",
"% V@W@H X.X@% % % % % % % % % % % % % % % % % % % % % % % % % % % % % % % % % % % % J@#.)+Y@% % ",
"Z@$@`@3+H. #.#% % % % % % % % % % % % % % % % % % % % % % % % % % % % % % % % % % % +##.@###$#% ",
"% %#&#*#)+&.=#% % % % % % % % % % % % % % % % % % % % % % % % % % % % % % % % % % -#3+@.;#>#% % ",
",#% '#)#!#+.~#% % % % % % % % % % % % % % % % % % % % % % % % % % % % % % % % % % p.{#F ]#^#/#% ",
"% % (#_#:#J.<#[#% % % % % % % % % % % % % % % % % % % % % % % % % % % % % % % % }#|#+.<.1#2#% #+",
"3#% 4#5#6#*.7#8#% % % % % % % % % % % % % % % % % % % % % % % % % % % % % % % % 9#l.6@0#a#b#c#' ",
"% % % d#e#:#..f#J+% % % % % % % % % % % % % % % % % % % % % % % % % % % % % % g#h#2+i i#s@% ' & ",
"j#% k#l#m#n#o#+.p#% % % % % % % % % % % % % % % % % % % % % % % % % % % % % q#G.G r#s#t#u## v#+ ",
"% % % % @+o+L+d@J.w#% % % % % % % % % % % % % % % % % % % % % % % % % % % x#y#H r#E.z#+ & + . . ",
"7 % A#% B#C#D#E#F#O.G#% % % % % % % % % % % % % % % % % % % % % % % % % H#[@H.B I#J#K#+ L#. M#N#",
"% % % % % % O#P#Q#2.}.R#% % % % % % % % % % % % % % % % % % % % % % % L.S#}.2.` T## @ + . .     ",
"z.% U#% V#% W#X#Y#i+h++.Z#% % % % % % % % % % % % % % % % % % % % `# $.$+$3+@$#$$$# %$. 7   -   ",
"% % % % % % % % &$*$!@b.=$..-$% % % % % % % % % % % % % % % % % ;$>$=.,$3+'$)$!$# & + .         ",
"z.% * % ~$% {$% ]$^$/$6.($D _$:$<$% % % % % % % % % % % % [$}$|$1$[+2$h 3$4$5$@ 6$+ 7$. -   -   ",
"% % % % % % % % % % s@8$9$-.0$d@F a$b$C@J++ % % % % ,+c$d$0$e$f$H B g$h$i$j$+ + + .             ",
"- % - % - % V % k$% l$J+m$n$D#-.z+&@o$l.p$r#q$r$s$t$u$v$U+F w$J x$y$z$A$B$& C$. V . -   -   -   ",
"% % % % % % % % % % % % % D$E$F$G$H$=.T+b.2.2.<.*.*.*.J 3+=.d$4.I$J$K$L$M$+ . N$N#              ",
"- % - % - % - % O$% P$% Q$% R$S$T$U$V$W$X$Y$Z$`$ %.%+%@%#%$%%%&%*%=%-%;%>%. (+. *   =   *   -   ",
"% % % % % % % % % % % % % % % % % ,%'%)%!%~%{%q.]%^%/%q.E$(%D$_%L$:%& . . .                     ",
"- % - % - % - % <%% [%% }%% |%% 1%% 2%% 3%% 4%% 5%% 6%% 7%% 8%% 9%+ 0%. 7   -   <%  [%  <%  -   "};
