/* XPM */
static char * exit_xpm[] = {
"48 48 320 2",
"  	c #000000",
". 	c #EC1700",
"+ 	c #EF4100",
"@ 	c #EC1800",
"# 	c #E60A00",
"$ 	c #E60B00",
"% 	c #E50B00",
"& 	c #E50D00",
"* 	c #E91A00",
"= 	c #EB4400",
"- 	c #E71B00",
"; 	c #E40E00",
"> 	c #E40D00",
", 	c #EB4300",
"' 	c #EA1A00",
") 	c #E70A00",
"! 	c #E70900",
"~ 	c #E20E00",
"{ 	c #E20F00",
"] 	c #E10F00",
"^ 	c #E61D00",
"/ 	c #E94500",
"( 	c #E71D00",
"_ 	c #EB1900",
": 	c #EE4200",
"< 	c #E70800",
"[ 	c #E91B00",
"} 	c #EA4400",
"| 	c #E10E00",
"1 	c #E01000",
"2 	c #E01200",
"3 	c #E41F00",
"4 	c #E74700",
"5 	c #E51E00",
"6 	c #EA1900",
"7 	c #EC4200",
"8 	c #EB1800",
"9 	c #EE4900",
"0 	c #E64700",
"a 	c #E22000",
"b 	c #E44900",
"c 	c #E22200",
"d 	c #DF1400",
"e 	c #DD1200",
"f 	c #E42000",
"g 	c #E11000",
"h 	c #E02300",
"i 	c #E14A00",
"j 	c #A62400",
"k 	c #930F00",
"l 	c #950E00",
"m 	c #A72300",
"n 	c #E51F00",
"o 	c #E74500",
"p 	c #E60900",
"q 	c #DF1300",
"r 	c #DD1500",
"s 	c #DC1700",
"t 	c #D91800",
"u 	c #D01A00",
"v 	c #911400",
"w 	c #425443",
"x 	c #A0DCCD",
"y 	c #A1DCCF",
"z 	c #445648",
"A 	c #931200",
"B 	c #D51500",
"C 	c #E54800",
"D 	c #A62200",
"E 	c #931000",
"F 	c #9E1A00",
"G 	c #D01D00",
"H 	c #C61A00",
"I 	c #565A41",
"J 	c #A8EAD2",
"K 	c #D7F6D2",
"L 	c #ACEAD5",
"M 	c #2A5844",
"N 	c #3C1708",
"O 	c #CA1800",
"P 	c #000200",
"Q 	c #000300",
"R 	c #000400",
"S 	c #000500",
"T 	c #E44700",
"U 	c #635D48",
"V 	c #92CBBD",
"W 	c #476454",
"X 	c #832202",
"Y 	c #801A00",
"Z 	c #000800",
"` 	c #5A8062",
" .	c #000A00",
"..	c #CFF4C8",
"+.	c #AAF2CA",
"@.	c #2F6952",
"#.	c #002212",
"$.	c #231E0E",
"%.	c #931B00",
"&.	c #D21700",
"*.	c #DC1400",
"=.	c #000D00",
"-.	c #000F00",
";.	c #001000",
">.	c #D61300",
",.	c #950A00",
"'.	c #5E7B6C",
").	c #D6F6D6",
"!.	c #52907B",
"~.	c #003925",
"{.	c #2A6641",
"].	c #001300",
"^.	c #9DEABD",
"/.	c #001800",
"(.	c #C2F2BA",
"_.	c #519E77",
":.	c #0B5439",
"<.	c #003017",
"[.	c #00230F",
"}.	c #3D1E0B",
"|.	c #C81900",
"1.	c #DC1500",
"2.	c #DD1300",
"3.	c #000900",
"4.	c #001200",
"5.	c #001700",
"6.	c #001B00",
"7.	c #001F00",
"8.	c #002300",
"9.	c #002400",
"0.	c #CC1000",
"a.	c #585647",
"b.	c #B0F4D2",
"c.	c #9CE2CA",
"d.	c #337858",
"e.	c #2C7141",
"f.	c #002700",
"g.	c #86DFA5",
"h.	c #003200",
"i.	c #81E09E",
"j.	c #32874D",
"k.	c #085125",
"l.	c #003312",
"m.	c #00200A",
"n.	c #201A08",
"o.	c #921B00",
"p.	c #D21800",
"q.	c #DD1400",
"r.	c #002900",
"s.	c #003300",
"t.	c #003E00",
"u.	c #004700",
"v.	c #004A00",
"w.	c #E40A00",
"x.	c #E01300",
"y.	c #CC0D00",
"z.	c #717C6C",
"A.	c #6CAD9A",
"B.	c #8CD2B5",
"C.	c #32764A",
"D.	c #045314",
"E.	c #004400",
"F.	c #128123",
"G.	c #006900",
"H.	c #15961E",
"I.	c #158525",
"J.	c #0A5E20",
"K.	c #2C6C3E",
"L.	c #97DBBC",
"M.	c #9DDBC6",
"N.	c #435945",
"O.	c #931400",
"P.	c #002D00",
"Q.	c #005700",
"R.	c #057B00",
"S.	c #12A600",
"T.	c #18BF00",
"U.	c #EB4A00",
"V.	c #9B1F00",
"W.	c #445748",
"X.	c #92D1C1",
"Y.	c #397863",
"Z.	c #146244",
"`.	c #0D592A",
" +	c #127323",
".+	c #1EBB12",
"++	c #39FB0F",
"@+	c #6BFB30",
"#+	c #1BB70E",
"$+	c #0A6C1A",
"%+	c #458E58",
"&+	c #CAF4C2",
"*+	c #AAEBCD",
"=+	c #2E6352",
"-+	c #3C1A0E",
";+	c #CB1500",
">+	c #001900",
",+	c #027100",
"'+	c #FBFBFB",
")+	c #E54500",
"!+	c #645C48",
"~+	c #93CCC0",
"{+	c #3D796D",
"]+	c #145947",
"^+	c #237356",
"/+	c #176C3E",
"(+	c #1E8938",
"_+	c #20C015",
":+	c #0D6E1D",
"<+	c #2D723D",
"[+	c #87CBA8",
"}+	c #2E6147",
"|+	c #044238",
"1+	c #3F2317",
"2+	c #E21000",
"3+	c #CF0800",
"4+	c #727B6E",
"5+	c #DAF6DB",
"6+	c #599688",
"7+	c #094737",
"8+	c #19634A",
"9+	c #15643F",
"0+	c #1D7C3F",
"a+	c #1E9030",
"b+	c #189820",
"c+	c #178628",
"d+	c #136C30",
"e+	c #033F14",
"f+	c #00250A",
"g+	c #002C18",
"h+	c #06443A",
"i+	c #3F2217",
"j+	c #CC1500",
"k+	c #CF0900",
"l+	c #72796E",
"m+	c #DBF7DC",
"n+	c #568B80",
"o+	c #002718",
"p+	c #08412C",
"q+	c #10593A",
"r+	c #126239",
"s+	c #136B35",
"t+	c #136F33",
"u+	c #126B34",
"v+	c #0A5228",
"w+	c #003412",
"x+	c #00280F",
"y+	c #002514",
"z+	c #003229",
"A+	c #3E1D13",
"B+	c #D12200",
"C+	c #E64800",
"D+	c #CF0D00",
"E+	c #5C564D",
"F+	c #96D1CA",
"G+	c #396E64",
"H+	c #002318",
"I+	c #002714",
"J+	c #053F29",
"K+	c #084729",
"L+	c #0A4E2C",
"M+	c #105A38",
"N+	c #094C2A",
"O+	c #00290F",
"P+	c #002715",
"Q+	c #023328",
"R+	c #231E14",
"S+	c #961500",
"T+	c #DB2000",
"U+	c #D01000",
"V+	c #3E1710",
"W+	c #002C2A",
"X+	c #03302D",
"Y+	c #001F14",
"Z+	c #001E10",
"`+	c #00220F",
" @	c #00250F",
".@	c #002D13",
"+@	c #043D24",
"@@	c #002317",
"#@	c #003029",
"$@	c #CC1400",
"%@	c #DA0F00",
"&@	c #981200",
"*@	c #20140F",
"=@	c #001710",
"-@	c #001810",
";@	c #231A0E",
">@	c #791D03",
",@	c #231F0E",
"'@	c #001F0F",
")@	c #001D10",
"!@	c #001A10",
"~@	c #20180E",
"{@	c #961700",
"]@	c #DA1000",
"^@	c #A51300",
"/@	c #971400",
"(@	c #A11700",
"_@	c #C81800",
":@	c #911A00",
"<@	c #931A00",
"[@	c #931800",
"}@	c #931700",
"|@	c #A01500",
"1@	c #DF2400",
"2@	c #DB1700",
"3@	c #E12200",
"4@	c #E90900",
"5@	c #E60800",
"6@	c #EE2400",
"7@	c #EC6400",
"8@	c #EC2500",
"9@	c #E50A00",
"0@	c #E40B00",
"a@	c #EA2700",
"b@	c #EA6600",
"c@	c #EE6300",
"d@	c #EE2300",
"e@	c #E70600",
"                                                                                                ",
".   +   @   #   #   $   %   &   *   =   -   ;   ;   ;   ;   >   *   ,   '   $   #   #   )   !   ",
"                                                                                                ",
"!   )   #   $   %   *   =   -   ~   {   {   ]   ]   ^   /   (   ~   ;   >   &   %   _   :   @   ",
"                                                                                                ",
"<   #   $   %   &   [   }   ^   |   1   2   2   2   3   4   5   |   {   ~   ;   &   6   7   8   ",
"                                                                                                ",
"9   _   6   ,   -   {   |   5   0   a   a   b   c   d   e   f   0   5   ^   /   -   &   %   $   ",
"                                                                                                ",
"9   6   *   }   (   g   2   a   b   h   h   i   j   k   l   m   b   a   n   o   (   ;   &   %   ",
"                                                                                                ",
"p   &   >   ~   g   2   q   r   s   t   u   v   w   x   y   z   A   B   q   2   g   ~   >   &   ",
"                                                                                                ",
"%   >   ~   ]   5   C   D   E   F   G   H   I   J   K   L   M   N   O   r   q   5   /   -   >   ",
"                                        P Q R R S R R Q P                                       ",
"'   =   (   g   n   T   U   V   W   X R Y Z `  ... .+.Z @.R #.  $.  %.  &.  *.  3   4   (   >   ",
"                                  P S Z  .=.-.;.;.;.-.=. .Z S P                                 ",
"*   }   ^   2   >.  ,.  '.  ).  !.S ~.=.{.].^./.(./._.].:.=.<.S [.  }.  |.  1.  2.  2   ]   ;   ",
"                              P S 3.=.4.5.6.7.8.9.8.7.6.5.4.=.3.S P                             ",
">   ~   g   2   0.  a.  x   b.R c.=.d./.e.f.g.h.i.h.j.f.k./.l.=.m.R n.  o.  p.  q.  3   o   -   ",
"                            P S  .;.5.7.r.s.t.u.v.u.t.s.r.7.5.;. .S P                           ",
"w.  ~   g   x.  y.  z.  ).  A.Z B.].C.f.D.E.F.G.H.G.I.E.J.f.K.].L.Z M.  N.  O.  B   3   4   -   ",
"                            R 3.-.5.7.P.t.Q.R.S.T.S.R.Q.t.P.7.5.-.3.R                           ",
"U.  (   5   C   V.  W.  X.  Y. .Z./.`.h. +G..+++@+++#+G.$+h.%+/.&+ .*+  =+  -+  ;+  x.  g   {   ",
"                            S  .;.>+9.s.v.,+T.@+'+@+T.,+v.s.9.>+;. .S                           ",
"U.  (   5   )+  !+  ~+  {+  ]+ .^+/./+h.(+G._+++@+++#+G.:+h.<+/.[+ .}+  |+  1+  ;+  x.  g   {   ",
"                            R 3.-.5.7.P.t.Q.R.S.T.S.R.Q.t.P.7.5.-.3.R                           ",
"w.  ~   2+  3+  4+  5+  6+  7+Z 8+].9+f.0+E.a+G.b+G.c+E.d+f.e+].f+Z g+  h+  i+  j+  q   g   ~   ",
"                            P S  .;.5.7.r.s.t.u.v.u.t.s.r.7.5.;. .S P                           ",
">   ~   2+  k+  l+  m+  n+  o+R p+=.q+/.r+f.s+h.t+h.u+f.v+/.w+=.x+R y+  z+  A+  B+  C+  ^   ~   ",
"                              P S 3.=.4.5.6.7.8.9.8.7.6.5.4.=.3.S P                             ",
"*   }   (   D+  E+  F+  G+  H+  I+S J+=.K+].L+/.M+/.N+].l.=.O+S P+  Q+  R+  S+  T+  0   ^   ;   ",
"                                  P S Z  .=.-.;.;.;.-.=. .Z S P                                 ",
"'   =   (   U+  V+  W+  X+  Y+  Z+  `+R  @Z .@ .+@ ..@Z  @R `+  @@  #@  A+  $@  2   g   {   >   ",
"                                        P Q R R S R R Q P                                       ",
"%   >   ~   %@  &@  *@  =@  -@  ;@  >@  ,@  `+  `+  `+  '@  )@  !@  ~@  {@  >.  2   ^   }   *   ",
"                                                                                                ",
"p   &   >   ~   ]@  ^@  /@  S+  (@  _@  F   :@  o.  o.  <@  [@  }@  |@  >.  2   g   -   =   '   ",
"                                                                                                ",
"9   6   *   }   (   g   2   a   b   h   h   i   1@  2@  2@  h   b   a   n   o   (   ;   &   %   ",
"                                                                                                ",
"9   _   6   ,   -   {   ]   5   0   a   a   b   3@  q.  2.  a   0   5   ^   /   -   &   %   $   ",
"                                                                                                ",
"<   #   $   %   &   ;   ~   {   g   1   2   2   2   2   2   1   g   {   ~   ;   &   %   $   #   ",
"                                                                                                ",
"!   )   #   $   6   ,   *   ;   ~   {   {   ]   ^   /   ^   {   ~   ;   >   &   6   7   8   )   ",
"                                                                                                ",
"4@  !   )   5@  6@  7@  8@  9@  >   >   ;   0@  a@  b@  a@  0@  >   &   %   p   6@  c@  d@  e@  "};
