/* XPM */
static char * exit_xpm[] = {
"48 48 455 2",
"  	c #000000",
". 	c #030607",
"+ 	c #F8261F",
"@ 	c #FA5120",
"# 	c #F82921",
"$ 	c #F32023",
"% 	c #F32124",
"& 	c #F32326",
"* 	c #F32427",
"= 	c #F32529",
"- 	c #F7302A",
"; 	c #F9592B",
"> 	c #0A1214",
", 	c #F7322C",
"' 	c #101A1D",
") 	c #F3282C",
"! 	c #111A1D",
"~ 	c #F3292C",
"{ 	c #F3272B",
"] 	c #F95729",
"^ 	c #F82E27",
"/ 	c #F31F21",
"( 	c #F31D20",
"_ 	c #0A1114",
": 	c #152024",
"< 	c #19272A",
"[ 	c #1A272A",
"} 	c #F32225",
"| 	c #F32327",
"1 	c #F72F28",
"2 	c #F9582A",
"3 	c #F3292D",
"4 	c #F32B2F",
"5 	c #1D2B2F",
"6 	c #F32C30",
"7 	c #1E2C30",
"8 	c #F73630",
"9 	c #F95D30",
"0 	c #F7342F",
"a 	c #F3272A",
"b 	c #F32528",
"c 	c #F82C25",
"d 	c #FA5323",
"e 	c #1A282A",
"f 	c #1E2D31",
"g 	c #1F2D31",
"h 	c #1F2E32",
"i 	c #202E33",
"j 	c #202F33",
"k 	c #F31E21",
"l 	c #F32629",
"m 	c #F7312B",
"n 	c #F95B2D",
"o 	c #F7352F",
"p 	c #F32D31",
"q 	c #F32F33",
"r 	c #202F34",
"s 	c #F33034",
"t 	c #213035",
"u 	c #F33135",
"v 	c #213135",
"w 	c #F33136",
"x 	c #F73A35",
"y 	c #F96034",
"z 	c #F73833",
"A 	c #F3282B",
"B 	c #F82D27",
"C 	c #F95425",
"D 	c #F82A23",
"E 	c #213136",
"F 	c #223236",
"G 	c #223337",
"H 	c #233338",
"I 	c #233438",
"J 	c #233439",
"K 	c #FA5923",
"L 	c #F82B25",
"M 	c #F95829",
"N 	c #F32A2E",
"O 	c #F73934",
"P 	c #F96236",
"Q 	c #233337",
"R 	c #F73D38",
"S 	c #243539",
"T 	c #F73F3A",
"U 	c #25363B",
"V 	c #F8663B",
"W 	c #25373C",
"X 	c #F8403C",
"Y 	c #F3363B",
"Z 	c #F3353A",
"` 	c #F83D38",
" .	c #F73631",
"..	c #F95B2E",
"+.	c #213034",
"@.	c #223136",
"#.	c #24353A",
"$.	c #26383D",
"%.	c #26393E",
"&.	c #27393F",
"*.	c #273A3F",
"=.	c #283A3F",
"-.	c #283A40",
";.	c #F95A24",
">.	c #F82D26",
",.	c #F72F29",
"'.	c #F7342E",
").	c #F32D32",
"!.	c #223237",
"~.	c #F8663C",
"{.	c #F7433F",
"].	c #283B40",
"^.	c #F74542",
"/.	c #293D43",
"(.	c #F86C43",
"_.	c #2A3E44",
":.	c #C34744",
"<.	c #B13E43",
"[.	c #B13C42",
"}.	c #C2433F",
"|.	c #F95E32",
"1.	c #1F2D32",
"2.	c #243439",
"3.	c #293C41",
"4.	c #2A3D43",
"5.	c #2B3F44",
"6.	c #2C4046",
"7.	c #2C4147",
"8.	c #2D4248",
"9.	c #2D4249",
"0.	c #2D4349",
"a.	c #F32428",
"b.	c #F3393E",
"c.	c #F33D43",
"d.	c #2B3F45",
"e.	c #F24147",
"f.	c #2E4349",
"g.	c #EB454B",
"h.	c #30464C",
"i.	c #B3474D",
"j.	c #31484E",
"k.	c #7B7467",
"l.	c #EBE6D4",
"m.	c #EDE7D4",
"n.	c #7B7061",
"o.	c #B13D43",
"p.	c #EB393E",
"q.	c #2F454C",
"r.	c #324A50",
"s.	c #334B52",
"t.	c #344D54",
"u.	c #354D55",
"v.	c #354E55",
"w.	c #F96439",
"x.	c #C2423F",
"y.	c #B23F44",
"z.	c #BD454B",
"A.	c #ED4A51",
"B.	c #E65057",
"C.	c #385259",
"D.	c #907F73",
"E.	c #39545C",
"F.	c #F7F9E9",
"G.	c #F7FFFF",
"H.	c #F7F8E6",
"I.	c #6C776A",
"J.	c #68454B",
"K.	c #E53F44",
"L.	c #F3393F",
"M.	c #F33439",
"N.	c #F7332D",
"O.	c #1E2B2F",
"P.	c #27393E",
"Q.	c #32494F",
"R.	c #344C53",
"S.	c #365057",
"T.	c #39535B",
"U.	c #3B575E",
"V.	c #3D5961",
"W.	c #3E5B64",
"X.	c #3F5D65",
"Y.	c #3F5D66",
"Z.	c #F82E28",
"`.	c #F32E33",
" +	c #F83C37",
".+	c #F8643D",
"++	c #927560",
"@+	c #DBD8C7",
"#+	c #324950",
"$+	c #8D8273",
"%+	c #AF565E",
"&+	c #3E5B63",
"*+	c #AE5F67",
"=+	c #43626B",
"-+	c #A4AAA1",
";+	c #466770",
">+	c #F6FFFF",
",+	c #F6FFF5",
"'+	c #888F82",
")+	c #41565E",
"!+	c #584D55",
"~+	c #B5454C",
"{+	c #EB3E44",
"]+	c #F3383D",
"^+	c #F73C37",
"/+	c #F95F33",
"(+	c #2F454B",
"_+	c #38525A",
":+	c #3C5860",
"<+	c #43636C",
"[+	c #476872",
"}+	c #4A6D77",
"|+	c #4D717B",
"1+	c #4F747E",
"2+	c #4F757F",
"3+	c #F95A2C",
"4+	c #F33035",
"5+	c #EB353A",
"6+	c #AF3C41",
"7+	c #9A9383",
"8+	c #ABAB9C",
"9+	c #405E67",
"0+	c #626B6E",
"a+	c #4A6C76",
"b+	c #839A93",
"c+	c #537A86",
"d+	c #F5FFFF",
"e+	c #5A8490",
"f+	c #BFCBC3",
"g+	c #81887E",
"h+	c #54676E",
"i+	c #3E5860",
"j+	c #6C4C53",
"k+	c #E54349",
"l+	c #F33C41",
"m+	c #334A51",
"n+	c #3B565E",
"o+	c #45656E",
"p+	c #4B6E78",
"q+	c #517782",
"r+	c #58818D",
"s+	c #5F8B98",
"t+	c #6493A1",
"u+	c #6899A7",
"v+	c #6A9BAA",
"w+	c #F3262A",
"x+	c #F43236",
"y+	c #E3383D",
"z+	c #896E5F",
"A+	c #EEE6D6",
"B+	c #F7FEEC",
"C+	c #F6F7E9",
"D+	c #9CA99E",
"E+	c #95B5B3",
"F+	c #6DA0AE",
"G+	c #F1FFFF",
"H+	c #7CB7C8",
"I+	c #B0D4D3",
"J+	c #7F9B9F",
"K+	c #5A7782",
"L+	c #58535B",
"M+	c #B4484E",
"N+	c #EB3F44",
"O+	c #F73B36",
"P+	c #F95E31",
"Q+	c #293C42",
"R+	c #405F67",
"S+	c #63929F",
"T+	c #70A5B4",
"U+	c #7FBACB",
"V+	c #8ED0E3",
"W+	c #9AE2F7",
"X+	c #9EE9FE",
"Y+	c #F32E32",
"Z+	c #F43338",
"`+	c #E3393F",
" @	c #A79182",
".@	c #CAC5B6",
"+@	c #E8EEE2",
"@@	c #9AB5B0",
"#@	c #89BBCB",
"$@	c #95DCF0",
"%@	c #C1FFFF",
"&@	c #C8FFFF",
"*@	c #DBFFFF",
"=@	c #C3FFFF",
"-@	c #95C2CB",
";@	c #8FAFAB",
">@	c #EDF6EB",
",@	c #EDF0E0",
"'@	c #7F796B",
")@	c #B34147",
"!@	c #EB393F",
"~@	c #F73C38",
"{@	c #F95F32",
"]@	c #2A3E43",
"^@	c #30474D",
"/@	c #57808C",
"(@	c #76ADBD",
"_@	c #B0FFFF",
":@	c #E0FFFF",
"<@	c #FFFFFF",
"[@	c #F95F2A",
"}@	c #F96338",
"|@	c #B7413F",
"1@	c #7D7164",
"2@	c #E3DFCD",
"3@	c #9A9988",
"4@	c #8F9180",
"5@	c #8AA7A7",
"6@	c #AFEAF7",
"7@	c #AAE7F7",
"8@	c #AED1D0",
"9@	c #F7FEEF",
"0@	c #7C8171",
"a@	c #684249",
"b@	c #E33A3F",
"c@	c #F33438",
"d@	c #3A555D",
"e@	c #466871",
"f@	c #5B8591",
"g@	c #D3FFFF",
"h@	c #F96138",
"i@	c #90725C",
"j@	c #DFD7C6",
"k@	c #9D9180",
"l@	c #827B65",
"m@	c #A29D90",
"n@	c #9DB3A9",
"o@	c #C0F5FC",
"p@	c #AAE8F7",
"q@	c #96BCBB",
"r@	c #DEEDE5",
"s@	c #7C897E",
"t@	c #656255",
"u@	c #6F4549",
"v@	c #F42E32",
"w@	c #E23338",
"x@	c #A58C7B",
"y@	c #F8FFFF",
"z@	c #B4A997",
"A@	c #6E6D61",
"B@	c #908E7D",
"C@	c #94A498",
"D@	c #B1D3D1",
"E@	c #CBFFFF",
"F@	c #DCFFFF",
"G@	c #C4FFFF",
"H@	c #A0CACB",
"I@	c #6B8D98",
"J@	c #4C5C61",
"K@	c #656252",
"L@	c #6E4447",
"M@	c #F33338",
"N@	c #F42D31",
"O@	c #E23236",
"P@	c #A58B7A",
"Q@	c #A7A08E",
"R@	c #49535B",
"S@	c #68706C",
"T@	c #848F82",
"U@	c #92A79F",
"V@	c #9EC0BD",
"W@	c #A4CBCB",
"X@	c #9CBFBD",
"Y@	c #819D9F",
"Z@	c #49636C",
"`@	c #43535B",
" #	c #50534E",
".#	c #693F44",
"+#	c #E9413D",
"@#	c #F73731",
"##	c #F83630",
"$#	c #E23035",
"%#	c #8A6A57",
"&#	c #E5D7C2",
"*#	c #8A826E",
"=#	c #424C53",
"-#	c #465860",
";#	c #65726E",
">#	c #71807E",
",#	c #7A8F8C",
"'#	c #879A91",
")#	c #778C8C",
"!#	c #58747E",
"~#	c #4A656E",
"{#	c #485860",
"]#	c #545753",
"^#	c #574349",
"/#	c #B23C41",
"(#	c #EF3F3A",
"_#	c #F96035",
":#	c #F8342E",
"<#	c #E22E33",
"[#	c #633337",
"}#	c #48433D",
"|#	c #504B44",
"1#	c #3C454C",
"2#	c #3B4D55",
"3#	c #3E565E",
"4#	c #455F67",
"5#	c #4F656E",
"6#	c #647171",
"7#	c #465F67",
"8#	c #414D55",
"9#	c #4E504C",
"0#	c #693E44",
"a#	c #E5383D",
"b#	c #F43337",
"c#	c #F32B2E",
"d#	c #EB2C30",
"e#	c #B03034",
"f#	c #473439",
"g#	c #29393F",
"h#	c #2C3F44",
"i#	c #54454B",
"j#	c #A04A51",
"k#	c #5A5057",
"l#	c #3A535B",
"m#	c #3C555D",
"n#	c #3C535B",
"o#	c #395057",
"p#	c #364A51",
"q#	c #30454B",
"r#	c #4D3F44",
"s#	c #B1393F",
"t#	c #EB3439",
"u#	c #F95A2D",
"v#	c #F73029",
"w#	c #EB2D31",
"x#	c #BB3135",
"y#	c #B1353A",
"z#	c #B1393E",
"A#	c #BD3D43",
"B#	c #E54147",
"C#	c #BE454B",
"D#	c #B4474D",
"E#	c #B4454B",
"F#	c #B23D43",
"G#	c #BC393E",
"H#	c #F64744",
"I#	c #F23E43",
"J#	c #F23C42",
"K#	c #F7403C",
"L#	c #F95728",
"M#	c #F73530",
"N#	c #F31C1F",
"O#	c #F93724",
"P#	c #F97526",
"Q#	c #F93927",
"R#	c #F93E2C",
"S#	c #F97A2C",
"T#	c #F93D2C",
"U#	c #FA7323",
"V#	c #FA3421",
"                                      . . . . . . . . . . .                                     ",
"+   @   #   $   %   &   *   =   - . ; > , ' ) ! ~ ! ) ' ) > { . -   ]   ^   &   %   $   /   (   ",
"                            . _ > ' : : < [ [ [ [ [ [ [ < : : ' > _ .                           ",
"(   /   $   }   |   1   2 _ , : 3 [ 4 5 6 7 6 7 6 7 8 7 9 5 0 [ 3 : ) _ a   b   |   c   d   #   ",
"                    . _ ' : < e 5 7 f g h h i j j j i h h g f 7 5 e < : ' _ .                   ",
"k   $   }   *   l . m ! n [ o 7 p h q r s t u v w v x t y r z h p 7 4 [ 3 ! A . l   B   C   D   ",
"                . > : [ 5 7 g i r t E F G H H I J I H H G F E t r i g 7 5 [ : > .               ",
"K   L   B   M . , : N 7 p h O t P Q R S T U V W X W Y U Z S ` Q P t O h  .7 ..: , . l   *   }   ",
"            . ' : e 7 g j +.@.Q J #.W $.%.&.*.=.-.=.*.&.%.$.W #.J Q @.+.j g 7 e : ' .           ",
";.  >.  ,.. ; : '.7 ).j u !.R #.~.$.{.].^./.(._.:._.<./.[.].}.$.~.#.R !.x j |.7 '.: A . =   &   ",
"        . > : [ 7 1.j v G 2.U $.*.3.4.5.6.7.8.9.0.9.8.7.6.5.4.3.*.$.U 2.G v j 1.7 [ : > .       ",
"}   a.  { ! N 7 p j u Q Z W b.].c.d.e.f.g.h.i.j.k.j.l.h.m.f.n.d.o.].p.W Z Q u j p 7 N ! {   a.  ",
"      . ' : 5 f j v G #.W &.3._.7.f.q.j.r.s.t.u.v.u.t.s.r.j.q.f.7._.3.&.W #.G v j f 5 : ' .     ",
"|   l _ 3 [ 6 h O !.w.W x.3.y.8.z.j.A.t.B.C.D.E.F.E.G.C.H.t.I.j.J.8.K.3.L.W M.!.O h 9 [ N._ l   ",
"    . ' < O.g r @.I U P.3.5.8.q.Q.R.S.T.U.V.W.X.Y.X.W.V.U.T.S.R.Q.q.8.5.3.P.U I @.r g O.< ' .   ",
"Z.  ; : '.7 `.t  +#..+].++8.@+#+$+C.%+&+*+=+-+;+>+;+,+=+'+&+)+C.!+#+~+8.{+].]+#.^+t /+7 '.: {   ",
"  . > : 5 g r F J W *.4.7.(+Q.u._+:+Y.<+[+}+|+1+2+1+|+}+[+<+Y.:+_+u.Q.(+7.4.*.W J F r g 5 : > . ",
",.. 3+[ 8 h 4+Q 5+$.6+d.7+j.G.C.8+9+0+a+b+c+d+e+d+e+f+c+g+a+h+9+i+C.j+j.k+d.l+$.Z Q 4+h 6 [ ) . ",
"  _ : 5 f j E I W *.4.7.q.m+S.n+Y.o+p+q+r+s+t+u+v+u+t+s+r+q+p+o+Y.n+S.m+q.7.4.*.W I E j f 5 : _ ",
"w+> 3 5 p r x+S y+].z+f.A+t.B+&+C+a+D+e+E+F+G+H+G+H+I+F+J+e+K+a+<+&+L+t.M+f.N+].]+S O+r P+5 N.> ",
". ' < 7 h +.G #.%.Q+6.(+r.S.U.R+[+1+r+S+T+U+V+W+X+W+V+U+T+S+r+1+[+R+U.S.r.(+6.Q+%.#.G +.h 7 < ' ",
"a ' N 7 Y+t Z+U `+/. @h.G.C..@=++@c+@@F+#@$@%@&@*@&@=@$@-@F+;@c+>@=+,@C.'@h.)@/.!@U ~@t {@7 '.' ",
". ' [ 7 i v H U *.]@8.^@t.T.W.o+|+/@t+(@V+_@:@<@<@<@:@_@V+(@t+/@|+o+W.T.t.^@8.]@*.U H v i 7 [ ' ",
"[@! '.7 z v }@W |@_.1@j.2@E.3@;+4@e+5@H+6@&@<@<@<@<@<@&@7@H+8@e+>+;+9@E.0@j.a@_.b@W c@v q 7 N ! ",
". ! [ 7 j E J W -._.0.j.v.d@Y.e@2+f@v+U+X+g@<@<@<@<@<@g@X+U+v+f@2+e@Y.d@v.j.0._.-.W J E j 7 [ ! ",
"[@! '.7 z v h@W i@_.j@j.k@E.l@;+m@e+n@H+o@&@<@<@<@<@<@&@p@H+q@e+r@;+s@E.t@j.u@_.b@W c@v q 7 N ! ",
". ' [ 7 i v H U *.]@8.^@t.T.W.o+|+/@t+(@V+_@:@<@<@<@:@_@V+(@t+/@|+o+W.T.t.^@8.]@*.U H v i 7 [ ' ",
"a ' N 7 v@t w@U x@/.y@h.z@C.A@=+B@c+C@F+D@$@E@&@F@&@G@$@H@F+I@c+}+=+J@C.K@h.L@/.`+U M@t Y+7 N ' ",
". ' < 7 h +.G #.%.Q+6.(+r.S.U.R+[+1+r+S+T+U+V+W+X+W+V+U+T+S+r+1+[+R+U.S.r.(+6.Q+%.#.G +.h 7 < ' ",
"w+> 3 5 N@r O@S P@].y@f.Q@t.R@&+S@a+T@e+U@F+V@H+W@H+X@F+Y@e+K+a+Z@&+`@t. #f..#].+#S P r @#5 3 > ",
"  _ : 5 f j E I W *.4.7.q.m+S.n+Y.o+p+q+r+s+t+u+v+u+t+s+r+q+p+o+Y.n+S.m+q.7.4.*.W I E j f 5 : _ ",
",.. 3+[ ##h $#Q %#$.&#d.*#j.=#C.-#9+;#a+>#c+,#e+'#e+)#c+!#a+~#9+{#C.]#j.^#d./#$.(#Q _#h 8 [ ) . ",
"  . > : 5 g r F J W *.4.7.(+Q.u._+:+Y.<+[+}+|+1+2+1+|+}+[+<+Y.:+_+u.Q.(+7.4.*.W J F r g 5 : > . ",
"Z.  ; : :#7 <#t [##.}#].|#8.1##+2#C.3#&+4#=+5#;+6#;+5#=+7#&+)+C.8##+9#8.0#].a##.b#t `.7 c#: {   ",
"    . ' < O.g r @.I U P.3.5.8.q.Q.R.S.T.U.V.W.X.Y.X.W.V.U.T.S.R.Q.q.8.5.3.P.U I @.r g O.< ' .   ",
"|   l _ 3 [ d#h e#!.f#W g#3.h#8.i#j.j#t.k#C.l#E.m#E.n#C.o#t.p#j.q#8.r#3.s#W t#!.s h 8 [ u#_ v#  ",
"      . ' : 5 f j v G #.W &.3._.7.f.q.j.r.s.t.u.v.u.t.s.r.j.q.f.7._.3.&.W #.G v j f 5 : ' .     ",
"}   a.  { ! N 7 w#j x#Q y#W z#].A#d.B#f.C#h.D#j.M+j.D#h.E#f.)@d.F#].G#W 5+Q u j p 7 '.! ;   Z.  ",
"        . > : [ 7 1.j v G 2.U $.*.3.4.5.6.7.8.9.0.9.8.7.6.5.4.3.*.$.U 2.G v j 1.7 [ : > .       ",
";.  >.  ,.. ; : '.7 ).j u !.R #.~.$.{.].^./.(._.H#_.I#/.J#].{.$.~.#.R !.x j |.7 '.: A . =   &   ",
"            . ' : e 7 g j +.@.Q J #.W $.%.&.*.=.-.=.*.&.%.$.W #.J Q @.+.j g 7 e : ' .           ",
"K   L   B   M . , : N 7 p h O t P Q R S T U V W K#W Y U Z S R Q P t O h  .7 ..: , . l   *   }   ",
"                . > : [ 5 7 g i r t E F G H H I J I H H G F E t r i g 7 5 [ : > .               ",
"k   $   }   *   l . A ! 3 [ 4 7 p h q r s t u v w v u t s r q h p 7 4 [ 3 ! A . l   *   }   $   ",
"                    . _ ' : < e 5 7 f g h h i j j j i h h g f 7 5 e < : ' _ .                   ",
"(   /   $   }   B   L#  - _ ) : 3 [ 4 5 6 7 6 7 8 7 9 7 M#5 4 [ 3 : ) _ a   b   B   C   D   /   ",
"                            . _ > ' : : < [ [ [ [ [ [ [ < : : ' > _ .                           ",
"N#  (   /   $   O#  P#  Q#  =   w+. { > ) ' ) ! R#! S#' T#> { . w+  =   *   &   O#  U#  V#  (   "};
