/* XPM */
static char * exit0_xpm[] = {
"48 48 598 2",
"  	c #090909",
". 	c #080808",
"+ 	c #070707",
"@ 	c #050505",
"# 	c #040404",
"$ 	c #020202",
"% 	c #000000",
"& 	c #060606",
"* 	c #F90B00",
"= 	c #FB3800",
"- 	c #F40000",
"; 	c #F30E12",
"> 	c #F02B2B",
", 	c #EB3F4C",
"' 	c #030303",
") 	c #E85165",
"! 	c #596175",
"~ 	c #DA5578",
"{ 	c #797979",
"] 	c #C77B82",
"^ 	c #838FA8",
"/ 	c #B893A7",
"( 	c #B198AC",
"_ 	c #BC94A8",
": 	c #9BA7AC",
"< 	c #C699A3",
"[ 	c #968B95",
"} 	c #D97D7D",
"| 	c #705D6A",
"1 	c #E65050",
"2 	c #404654",
"3 	c #F23946",
"4 	c #362B32",
"5 	c #F83C21",
"6 	c #F8150F",
"7 	c #F40808",
"8 	c #765F6E",
"9 	c #677188",
"0 	c #7E899D",
"a 	c #B1A88C",
"b 	c #BEB496",
"c 	c #B9B9B9",
"d 	c #CFC4A3",
"e 	c #C5D3D7",
"f 	c #D8CAD8",
"g 	c #D5C8D5",
"h 	c #D4D4D4",
"i 	c #D1D1D1",
"j 	c #C4C4C4",
"k 	c #B1B1B1",
"l 	c #9F959F",
"m 	c #8B836D",
"n 	c #666666",
"o 	c #515867",
"p 	c #4E4E4E",
"q 	c #474337",
"r 	c #333333",
"s 	c #27241C",
"t 	c #F2181D",
"u 	c #E7506C",
"v 	c #6E6E6E",
"w 	c #D17B94",
"x 	c #7F8AA2",
"y 	c #B795AF",
"z 	c #C3B89A",
"A 	c #95D4D4",
"B 	c #DEDEDE",
"C 	c #7BE4E4",
"D 	c #E9E9E9",
"E 	c #63EFEF",
"F 	c #F1F1F1",
"G 	c #64EFEF",
"H 	c #EEEEEE",
"I 	c #6BE3ED",
"J 	c #E6E6E6",
"K 	c #94ABD9",
"L 	c #C9C9C9",
"M 	c #BCADB6",
"N 	c #929EA2",
"O 	c #D18E93",
"P 	c #7C8588",
"Q 	c #DE7179",
"R 	c #676066",
"S 	c #EA4C4C",
"T 	c #383838",
"U 	c #F02C2C",
"V 	c #F3151B",
"W 	c #7B7B7B",
"X 	c #8C98A6",
"Y 	c #BAA7B3",
"Z 	c #BDBDBD",
"` 	c #C6C6C6",
" .	c #D0DFE0",
"..	c #EDEDED",
"+.	c #F3F3F3",
"@.	c #F6F6F6",
"#.	c #F8F8F8",
"$.	c #FBFBFB",
"%.	c #FCFCFC",
"&.	c #F7F7F7",
"*.	c #E7E7E7",
"=.	c #D9D9D9",
"-.	c #CBCBCB",
";.	c #BFBFBF",
">.	c #B0B0B0",
",.	c #9C9C9C",
"'.	c #757E80",
").	c #38352A",
"!.	c #2B2228",
"~.	c #F21E1E",
"{.	c #E94646",
"].	c #67604F",
"^.	c #D97A8A",
"/.	c #969696",
"(.	c #BB86AB",
"_.	c #B5C3C8",
":.	c #92D0DA",
"<.	c #E4E4E4",
"[.	c #6FEBEB",
"}.	c #F2F2F2",
"|.	c #3FF9F9",
"1.	c #17F3F3",
"2.	c #E2E2E2",
"3.	c #00D5D5",
"4.	c #C8C8C8",
"5.	c #00C2C2",
"6.	c #C3C3C3",
"7.	c #00BCC9",
"8.	c #C8DCFD",
"9.	c #25A8F1",
"0.	c #61E6F0",
"a.	c #82E2E2",
"b.	c #E1E1E1",
"c.	c #8CDCDC",
"d.	c #C2AAAA",
"e.	c #E05360",
"f.	c #EE352A",
"g.	c #F81615",
"h.	c #746371",
"i.	c #889295",
"j.	c #B4B4B4",
"k.	c #DADADA",
"l.	c #F5F5F5",
"m.	c #E7F8F9",
"n.	c #D7E9FB",
"o.	c #CADDFE",
"p.	c #EAB6D7",
"q.	c #8A8A8A",
"r.	c #191919",
"s.	c #A76283",
"t.	c #85CCCE",
"u.	c #C5C5C5",
"v.	c #CDDFF8",
"w.	c #CACACA",
"x.	c #AA98A3",
"y.	c #363328",
"z.	c #FB3F00",
"A.	c #F81818",
"B.	c #F24640",
"C.	c #70606D",
"D.	c #D29399",
"E.	c #BEBEBE",
"F.	c #8FDADA",
"G.	c #EBEBEB",
"H.	c #5AF2F2",
"I.	c #3CEEFA",
"J.	c #EFEFEF",
"K.	c #1896FD",
"L.	c #036064",
"M.	c #1B97FD",
"N.	c #35DFF9",
"O.	c #F0F0F0",
"P.	c #8ED1DC",
"Q.	c #C0ABC0",
"R.	c #C76584",
"S.	c #E6556B",
"T.	c #EE3328",
"U.	c #F31318",
"V.	c #808A8D",
"W.	c #BBBBBB",
"X.	c #FAFAFA",
"Y.	c #FDFDFD",
"Z.	c #0A2664",
"`.	c #EDBBDB",
" +	c #C1CFD5",
".+	c #96A4BB",
"++	c #808BA2",
"@+	c #727272",
"#+	c #010101",
"$+	c #3A372B",
"%+	c #F52A21",
"&+	c #E3607A",
"*+	c #A6A6A6",
"=+	c #9DC9D2",
"-+	c #37FBFB",
";+	c #FEFEFE",
">+	c #05FEFF",
",+	c #5A5A5A",
"'+	c #53E9F4",
")+	c #E8E8E8",
"!+	c #959CD8",
"~+	c #B3C1C4",
"{+	c #C39B87",
"]+	c #727D8F",
"^+	c #DE5F5F",
"/+	c #ED3838",
"(+	c #F31010",
"_+	c #696969",
":+	c #988E97",
"<+	c #C1C1C1",
"[+	c #E3E3E3",
"}+	c #FFF5CD",
"|+	c #7CC5C8",
"1+	c #581A42",
"2+	c #ECECEC",
"3+	c #E0E0E0",
"4+	c #BECCCD",
"5+	c #B29FAA",
"6+	c #747F91",
"7+	c #343126",
"8+	c #F31515",
"9+	c #E85656",
"0+	c #888888",
"a+	c #B9B5B5",
"b+	c #60F0F0",
"c+	c #03F4F4",
"d+	c #BABABA",
"e+	c #461216",
"f+	c #581841",
"g+	c #3DE8F7",
"h+	c #7AE6E6",
"i+	c #C0CECF",
"j+	c #BAAAAA",
"k+	c #76818F",
"l+	c #E15B5B",
"m+	c #F12828",
"n+	c #716C5A",
"o+	c #A1A1A1",
"p+	c #CDCDCD",
"q+	c #F9F9F9",
"r+	c #D8EBFE",
"s+	c #9FB4E2",
"t+	c #0E0E0E",
"u+	c #9DA9AC",
"v+	c #707A86",
"w+	c #252525",
"x+	c #EF2F2F",
"y+	c #D68789",
"z+	c #87DEDE",
"A+	c #F4F4F4",
"B+	c #1FE7CB",
"C+	c #334E88",
"D+	c #1C0000",
"E+	c #7F96C8",
"F+	c #30EBFB",
"G+	c #82B3E3",
"H+	c #CD9198",
"I+	c #E94654",
"J+	c #343434",
"K+	c #6C6C6C",
"L+	c #A2A2A2",
"M+	c #CECECE",
"N+	c #E4F5FA",
"O+	c #C4D7FE",
"P+	c #D7D7D7",
"Q+	c #F71D21",
"R+	c #EE4A3C",
"S+	c #818181",
"T+	c #BBAFB7",
"U+	c #DFDFDF",
"V+	c #4DF6F6",
"W+	c #444E64",
"X+	c #4CC1F6",
"Y+	c #ACA6BB",
"Z+	c #DB6478",
"`+	c #8E8E8E",
" @	c #F9DDF9",
".@	c #196D5B",
"+@	c #BDCBD1",
"@@	c #A1977C",
"#@	c #F62321",
"$@	c #E85058",
"%@	c #949494",
"&@	c #A9C0C8",
"*@	c #EAEAEA",
"=@	c #10B9D9",
"-@	c #2AF8FC",
";@	c #85DEDE",
">@	c #AEBCC1",
",@	c #CA8888",
"'@	c #5F5F5F",
")@	c #A19A81",
"!@	c #9CB1DE",
"~@	c #CFCFCF",
"{@	c #F02A21",
"]@	c #DC737C",
"^@	c #AB9FAB",
"/@	c #99D3D3",
"(@	c #003232",
"_@	c #008796",
":@	c #68BBEE",
"<@	c #C59FAA",
"[@	c #7E878A",
"}@	c #B8B8B8",
"|@	c #DCDCDC",
"1@	c #93A7D3",
"2@	c #7B92C4",
"3@	c #C4D2D3",
"4@	c #D08E77",
"5@	c #C0C0C0",
"6@	c #7FE3E3",
"7@	c #8D7C4C",
"8@	c #1075B9",
"9@	c #69BBEE",
"0@	c #D1C3D0",
"a@	c #C693A6",
"b@	c #6E5866",
"c@	c #818D9C",
"d@	c #B3C1C5",
"e@	c #E5E5E5",
"f@	c #828282",
"g@	c #FAF0C9",
"h@	c #BCCACE",
"i@	c #FB3B00",
"j@	c #7E6575",
"k@	c #C1848C",
"l@	c #CCB7C3",
"m@	c #76DFE9",
"n@	c #4B9483",
"o@	c #481417",
"p@	c #DDDDDD",
"q@	c #75E8E8",
"r@	c #B7C5C9",
"s@	c #C7889D",
"t@	c #7D7D7D",
"u@	c #A4A4A4",
"v@	c #C4D3D9",
"w@	c #230000",
"x@	c #C3D6F7",
"y@	c #B4C2C6",
"z@	c #8B97A8",
"A@	c #A1C0CE",
"B@	c #4EEBF6",
"C@	c #788FC1",
"D@	c #000021",
"E@	c #CCDEF7",
"F@	c #7DE4E4",
"G@	c #B2BFC4",
"H@	c #C98080",
"I@	c #B3AC90",
"J@	c #798FC2",
"K@	c #86446F",
"L@	c #E0F1F7",
"M@	c #B2BFC5",
"N@	c #B5AAB5",
"O@	c #8BDCDC",
"P@	c #28FDFD",
"Q@	c #8C8C8C",
"R@	c #0C85B8",
"S@	c #78E7E7",
"T@	c #B4C2C8",
"U@	c #C48585",
"V@	c #ADA1AC",
"W@	c #D5D5D5",
"X@	c #9AAFDE",
"Y@	c #CBC3A3",
"Z@	c #ADC1C1",
"`@	c #D0E2FB",
" #	c #0C1F5E",
".#	c #025AA5",
"+#	c #78DEE8",
"@#	c #CAC0A0",
"##	c #BF86A1",
"$#	c #6F6F6F",
"%#	c #A9A288",
"&#	c #CCCCCC",
"*#	c #7CC4C7",
"=#	c #00003B",
"-#	c #D5E4E5",
";#	c #C7B1C7",
">#	c #F03E40",
",#	c #D56B85",
"'#	c #ACB9BC",
")#	c #8BD4DE",
"!#	c #0DC6C6",
"~#	c #A60000",
"{#	c #32C4FB",
"]#	c #8BC4DB",
"^#	c #B9AF91",
"/#	c #C77285",
"(#	c #737373",
"_#	c #9FABAF",
":#	c #D6D6D6",
"<#	c #F5E8C0",
"[#	c #2D4883",
"}#	c #92804C",
"|#	c #FBE1F1",
"1#	c #B9C7CB",
"2#	c #8D99AA",
"3#	c #F52B2B",
"4#	c #E65663",
"5#	c #909BA0",
"6#	c #A9C0C9",
"7#	c #4BF6F6",
"8#	c #D3D3D3",
"9#	c #0EE6BE",
"0#	c #80E3E3",
"a#	c #BBC9CA",
"b#	c #BDA3A3",
"c#	c #6F798E",
"d#	c #DF5E71",
"e#	c #89816A",
"f#	c #A6B3B6",
"g#	c #E2F3FA",
"h#	c #E1ACCE",
"i#	c #FAEAFA",
"j#	c #9DAAAE",
"k#	c #F21A21",
"l#	c #E84747",
"m#	c #676767",
"n#	c #C7889A",
"o#	c #B0BEC3",
"p#	c #85E0E0",
"q#	c #2DF0F0",
"r#	c #1F0000",
"s#	c #006F6F",
"t#	c #61EFEF",
"u#	c #DBDBDB",
"v#	c #B9B1B9",
"w#	c #918B74",
"x#	c #E8556D",
"y#	c #F3342A",
"z#	c #97ABD9",
"A#	c #337751",
"B#	c #A7BBE7",
"C#	c #999999",
"D#	c #EF3126",
"E#	c #DE5866",
"F#	c #937F90",
"G#	c #B9B1B4",
"H#	c #BBC9CD",
"I#	c #86DFDF",
"J#	c #105E3B",
"K#	c #0A649C",
"L#	c #B1BEBE",
"M#	c #988E98",
"N#	c #E46A6F",
"O#	c #F7402E",
"P#	c #F81510",
"Q#	c #0B0709",
"R#	c #758092",
"S#	c #9D9D9D",
"T#	c #B9C6CA",
"U#	c #798FC0",
"V#	c #A8BBE8",
"W#	c #949F9F",
"X#	c #F81915",
"Y#	c #F2362B",
"Z#	c #E55272",
"`#	c #896F80",
" $	c #BE9BB0",
".$	c #1DC99F",
"+$	c #A50000",
"@$	c #270000",
"#$	c #161616",
"$$	c #01374A",
"%$	c #E6B3D4",
"&$	c #5BE8F2",
"*$	c #B09CC4",
"=$	c #98A3A4",
"-$	c #E0707E",
";$	c #EE3535",
">$	c #947C8D",
",$	c #B5A8B3",
"'$	c #EEDFEE",
")$	c #89B288",
"!$	c #102C6A",
"~$	c #7E94C6",
"{$	c #EFDFED",
"]$	c #C7C7C7",
"^$	c #97A3A3",
"/$	c #6B747E",
"($	c #F81A1B",
"_$	c #F4432D",
":$	c #E26065",
"<$	c #858F93",
"[$	c #C0ACAC",
"}$	c #92D8D8",
"|$	c #5CE1F1",
"1$	c #E1B0CF",
"2$	c #246ADE",
"3$	c #0A0000",
"4$	c #220000",
"5$	c #00143F",
"6$	c #EEBCDC",
"7$	c #33A8FA",
"8$	c #7DCBE3",
"9$	c #B3B8C0",
"0$	c #A5A5A5",
"a$	c #E06681",
"b$	c #F1392E",
"c$	c #F21A13",
"d$	c #919B9C",
"e$	c #B6B6B6",
"f$	c #D8D8D8",
"g$	c #D6C89E",
"h$	c #869CCD",
"i$	c #74BBAB",
"j$	c #D2D2D2",
"k$	c #E9DBB2",
"l$	c #F7E7F7",
"m$	c #B9C7C8",
"n$	c #9DA9AE",
"o$	c #95858F",
"p$	c #6F787C",
"q$	c #EF3131",
"r$	c #E84F4F",
"s$	c #D5828C",
"t$	c #939FA1",
"u$	c #5EF1F1",
"v$	c #4BF5F6",
"w$	c #32C2C2",
"x$	c #A4B7E2",
"y$	c #1CB8D7",
"z$	c #E7D9B1",
"A$	c #2EE6BF",
"B$	c #E4F5F9",
"C$	c #4FF6F6",
"D$	c #68EEEE",
"E$	c #94D6D6",
"F$	c #C1B3BF",
"G$	c #C49A9A",
"H$	c #7D7660",
"I$	c #E15D5D",
"J$	c #EF343C",
"K$	c #6A6A6A",
"L$	c #79848E",
"M$	c #9FABAC",
"N$	c #C2C2C2",
"O$	c #D0D0D0",
"P$	c #B4A8B3",
"Q$	c #929292",
"R$	c #666F7F",
"S$	c #525252",
"T$	c #493A43",
"U$	c #0F0F0F",
"V$	c #F91009",
"W$	c #FA3A1B",
"X$	c #F33233",
"Y$	c #E15E5E",
"Z$	c #897B83",
"`$	c #CB9A9D",
" %	c #9AA6AA",
".%	c #B9AFB3",
"+%	c #A9B6BB",
"@%	c #AEB9BF",
"#%	c #C1B698",
"$%	c #A8B7B7",
"%%	c #B5C3C6",
"&%	c #A9B1C6",
"*%	c #C4B7C3",
"=%	c #B08EC2",
"-%	c #B4C1C2",
";%	c #B5A8BB",
">%	c #A4B0B3",
",%	c #C1A8AA",
"'%	c #909B9F",
")%	c #D58181",
"!%	c #5B6373",
"~%	c #E64D5D",
"{%	c #3C3C3C",
"]%	c #F0272E",
"^%	c #626A7D",
"/%	c #717171",
"(%	c #777777",
"_%	c #807861",
":%	c #8E7284",
"<%	c #947789",
"[%	c #978E76",
"}%	c #8F876F",
"|%	c #7D8892",
"1%	c #7C745F",
"2%	c #596270",
"3%	c #424242",
"4%	c #FB1800",
"5%	c #FB5C00",
"6%	c #FA1D12",
"7%	c #F02A31",
"8%	c #EA4343",
"9%	c #E45364",
"0%	c #DE5F72",
"a%	c #DC6377",
"b%	c #E5554B",
"c%	c #E95D69",
"d%	c #E94E45",
"e%	c #E74A4A",
"f%	c #ED3737",
"g%	c #F12119",
"                      . . . + + @ # $ % % % % % % % $ # # @ & + + . .                           ",
"*   =   *   -   -   ; . > & , ' ) ! ~ { ] ^ / ( _ : < [ } | 1 2 3 4 5 . 6   7   -   -   -   -   ",
"                  . . & @ ' % 8 9 0 a b c d e f g h i j k l m n o p q r s . . .                 ",
"-   -   -   7 . t + 3 ' u v w x y z A B C D E F G H I J K L M N O P Q R S T U . V   *   =   *   ",
"            . . + # ' n W X Y Z `  ...+.@.#.$.%.$.$.$.&.F *.=.-.;.c >.,.'.@ # ).!..             ",
"-   -   -   ~.+ {.].^./.(._.:.<.[.}.|.%.1.2.3.4.5.6.7.8.9.#.0.D a.b.c.4.d.m e.# f.. g.  =   *   ",
"          . + @ h.i.j.-.k.<.H l.m.n.o.p.q.r.% % % % % % s.t.u.v.@.@.+.<.w.x.% % # y.. .         ",
"z.  *   A.+ B.C.D.E.F.G.H.@.I.J.K.L.% % % % % % % % % % % % % % M.H N.O.P.Q.R.% S.# T.s U.  -   ",
"        . & @ V.W.B F X.%.Y.2.Z.% % % % % % % % % % % % % % % % % % `.@.D  +.+++@+#+# $+!..     ",
"z.  * . %+@ &+*+=+H -+;+>+j % % % % % % % % % % % % % % % % % % % % % ,+'+)+!+~+{+]+^+' /+!.(+  ",
"      . + _+:+<+[+@.Y.}+|+% % % % % % % % % % % % % % % % % % % % % % % 1+)+2+3+4+5+6+% # 7+.   ",
"-   8++ 9+0+a+k.b+$.c+d+e+% % % % % % % % % % % % % % % % % % % % % % % % f+g++.h+i+j+k+l+@ m+. ",
"  . . & n+o+p+G.q+r+s+t+% % % % % % % % % % % % % % % % % % % % % % % % % % ,+$.l.J p+u+v+' $+w+",
"7 . x+& y+c z+A+B+C+D+% % % % % % % % % % % % % % % % % % % % % % % % % % % % E+F+A+G+u.H+% I+J+",
". + @ K+L+M+..N+/.% % % % % % % % % % % % % % % % % % % % % % % % % % % % % % % O+$.O.P+5+% #+@ ",
"Q++ R+S+T+U+V+o.% % % % % % % % % % % % % % % % % % % % % % % % % % % % % % % % W+..X+[+Y+S+Z+' ",
". & $ `+6.*. @.@% % % % % % % % % % % % % % % % % % % % % % % % % % % % % % % % % 4.X.2++@@@% #+",
"#@& $@%@&@*@=@% % % % % % % % % % % % % % % % % % % % % % % % % % % % % % % % % % /.-@+.;@>@,@% ",
". @ '@)@p+2+!@% % % % % % % % % % % % % % % % % % % % % % % % % % % % % % % % % % % 6.#.*@~@& % ",
"{@@ ]@^@/@P+(@% % % % % % % % % % % % % % % % % % % % % % % % % % % % % % % % % % % _@$.:@h <@% ",
"+ @ [@}@|@1@% % % % % % % % % % % % % % % % % % % % % % % % % % % % % % % % % % % % 2@$.H 3@# % ",
"- ' 4@5@6@7@% % % % % % % % % % % % % % % % % % % % % % % % % % % % % % % % % % % % 8@$.9@0@a@% ",
"# b@c@d@e@f@% % % % % % % % % % % % % % % % % % % % % % % % % % % % % % % % % % % % L.g@2+h@% % ",
"i@j@k@l@m@n@% % % % % % % % % % % % % % % % % % % % % % % % % % % % % % % % % % % % o@p@q@r@s@% ",
"% t@u@v@J.0+% % % % % % % % % % % % % % % % % % % % % % % % % % % % % % % % % % % % w@x@J y@% % ",
"= z@A@J B@C@% % % % % % % % % % % % % % % % % % % % % % % % % % % % % % % % % % % % D@E@F@G@H@% ",
"% I@=.O.$.J@% % % % % % % % % % % % % % % % % % % % % % % % % % % % % % % % % % % % K@L@e@M@% % ",
"- N@O@+.P@Q@% % % % % % % % % % % % % % % % % % % % % % % % % % % % % % % % % % % % R@#.S@T@U@% ",
"% V@W@H X.X@% % % % % % % % % % % % % % % % % % % % % % % % % % % % % % % % % % % % J@#.)+Y@% % ",
"- %@Z@3+H.`@ #% % % % % % % % % % % % % % % % % % % % % % % % % % % % % % % % % % % .##.+#@###% ",
"% $#%#&#)+&.*#% % % % % % % % % % % % % % % % % % % % % % % % % % % % % % % % % % =#3+@.-#;#% % ",
">#% ,#'#)#+.!#% % % % % % % % % % % % % % % % % % % % % % % % % % % % % % % % % ~#p.{#F ]#^#/#% ",
"% % (#_#:#J.<#[#% % % % % % % % % % % % % % % % % % % % % % % % % % % % % % % % }#|#+.<.1#2#% #+",
"3#% 4#5#6#*.7#8#% % % % % % % % % % % % % % % % % % % % % % % % % % % % % % % % 9#l.0#a#b#c#d#' ",
"% % % e#f#:#..g#K+% % % % % % % % % % % % % % % % % % % % % % % % % % % % % % h#i#2+i j#t@% ' & ",
"k#% l#m#n#o#p#+.q#% % % % % % % % % % % % % % % % % % % % % % % % % % % r#% s#G.t#u#v#w#x## y#+ ",
"% % % % @+o+M+e@J.z#% % % % % % % % % % % % % % % % % % % % % % % % % % % A#B#H u#E.C#+ & + . . ",
"7 % D#% E#F#G#H#I#O.J#% % % % % % % % % % % % % % % % % % % % % % % % % K#}@H.B L#M#N#+ O#. P#Q#",
"% % % % % % R#S#T#2.}.U#% % % % % % % % % % % % % % % % % % % % % % % L.V#}.2.` W## @ + . .     ",
"z.% X#% Y#% Z#`# $i+h++..$% +$% % % % % % % % % % % % % % % % % @$#$$$%$&$3+*$=$-$# ;$. 7   -   ",
"% % % % % % % % >$,$~@b.'$..)$% % % % % % % % % % % % % % % % % !$~$=.{$3+]$^$/$# & + .         ",
"z.% * % ($% _$% :$<$[$6.}$D |$1$2$% +$% % % % % % % % % 3$4$5$6$7$[+8$h 9$0$a$@ b$+ c$. -   -   ",
"% % % % % % % % % % t@d$e$-.f$e@F g$h$C@K++ % % % % ,+i$j$f$k$l$H B m$n$o$p$+ + + .             ",
"- % - % - % V % q$% r$K+s$t$G#-.z+*@u$l.v$u#w$x$y$z$A$B$C$F D$J E$F$G$H$I$& J$. V . -   -   -   ",
"% % % % % % % % % % % % % K$L$M$N$O$=.U+b.2.2.<.*.*.*.J 3+=.j$4.P$Q$R$S$T$+ . U$Q#              ",
"- % - % - % - % V$% W$% X$% Y$Z$`$ %.%+%@%#%$%%%&%*%=%-%;%>%,%'%)%!%~%{%]%. (+. *   =   *   -   ",
"% % % % % % % % % % % % % % % % % ^%/%(%_%:%<%q.[%}%|%q.L$1%K$2%S$3%& . . .                     ",
"- % - % - % - % 4%% 5%% 6%% 7%% 8%% 9%% 0%% a%% b%% c%% d%% e%% f%+ g%. 7   -   4%  5%  4%  -   "};
