/* XPM */
static char * l_p_xpm[] = {
"48 48 93 2",
"  	c #000000",
". 	c #6E0000",
"+ 	c #8E0000",
"@ 	c #630000",
"# 	c #950000",
"$ 	c #6B0000",
"% 	c #600000",
"& 	c #A30000",
"* 	c #E5C5C3",
"= 	c #EFD7D5",
"- 	c #E1C3C3",
"; 	c #860000",
"> 	c #8C0000",
", 	c #5D0000",
"' 	c #970000",
") 	c #FFFFFF",
"! 	c #F9E6E5",
"~ 	c #E1C3C1",
"{ 	c #7F0000",
"] 	c #EDD5D5",
"^ 	c #810000",
"/ 	c #F9E6E6",
"( 	c #7A0000",
"_ 	c #D0D7FF",
": 	c #E8DEF6",
"< 	c #DCE6FF",
"[ 	c #E8DCF4",
"} 	c #D9E8FF",
"| 	c #D5ECFF",
"1 	c #D3ECFF",
"2 	c #E5F7FF",
"3 	c #990000",
"4 	c #900000",
"5 	c #5A0000",
"6 	c #0000FF",
"7 	c #240083",
"8 	c #240081",
"9 	c #003AFF",
"0 	c #0054FF",
"a 	c #0051FF",
"b 	c #008EFF",
"c 	c #0000C3",
"d 	c #0000E6",
"e 	c #0000F4",
"f 	c #004AFF",
"g 	c #0078FF",
"h 	c #F70000",
"i 	c #A70000",
"j 	c #4E2BD5",
"k 	c #C7DCFF",
"l 	c #D5EDFF",
"m 	c #EAD9E5",
"n 	c #E5C5C1",
"o 	c #880000",
"p 	c #FF0000",
"q 	c #D10000",
"r 	c #0090FF",
"s 	c #0070FF",
"t 	c #CCB6D5",
"u 	c #8A0000",
"v 	c #FFC3C3",
"w 	c #FFD5D3",
"x 	c #FFD7E5",
"y 	c #EAE8FF",
"z 	c #C1E0FF",
"A 	c #2B6EFF",
"B 	c #FB35E5",
"C 	c #FFB4C3",
"D 	c #930000",
"E 	c #FFC9E5",
"F 	c #306EFF",
"G 	c #004EFF",
"H 	c #0075FF",
"I 	c #DCDCFF",
"J 	c #FFC7D3",
"K 	c #A90000",
"L 	c #BE0000",
"M 	c #FEDED7",
"N 	c #E6F9FF",
"O 	c #ECD5D5",
"P 	c #7C0000",
"Q 	c #F40000",
"R 	c #9F0000",
"S 	c #EFD5D3",
"T 	c #EDD3D3",
"U 	c #F9E5E5",
"V 	c #680000",
"W 	c #AB5D5A",
"X 	c #E0C1C1",
"Y 	c #E3C5C5",
"Z 	c #EFD7D7",
"` 	c #750000",
" .	c #AD0000",
"                                                                                                ",
".   +   .   @   @   @   @   @   .   +   .   @   @   @   @   @   .   +   .   @   @   @   @   @   ",
"                                                                                                ",
"@   @   @   @   @   .   +   .   @   @   @   @   @   .   +   .   @   @   @   @   @   .   +   .   ",
"                                                                                                ",
"@   @   @   @   @   .   +   .   @   @   @   @   @   .   +   .   @   @   @   @   @   .   +   .   ",
"                                                                                                ",
"#   .   .   +   .   @   @   .   +   .   .   +   $   %   %   $   +   .   .   +   .   @   @   @   ",
"                                                                                                ",
"#   .   .   +   .   @   @   .   +   .   $   &   *   =   -   ;   >   .   .   +   .   @   @   @   ",
"                                                                                                ",
"@   @   @   @   @   @   @   @   @   @   ,   '   )   )   )   !   ~   {   %   @   @   @   @   @   ",
"                                                                                                ",
"@   @   @   @   .   +   .   @   ,   {   ~   !   )   )   )   )   )   ]   {   %   .   +   .   @   ",
"                                                                                                ",
".   +   .   @   .   +   $   ^   -   /   )   )   )   )   )   )   )   )   ]   {   $   +   .   @   ",
"                                                                                                ",
".   +   .   @   @   @   @   (   _   :   <   [   }   |   1   2   )   )   )   3   %   @   @   @   ",
"                                                                                                ",
"@   @   @   @   @   .   4   5   6   7   6   8   9   0   a   b   )   )   )   3   %   .   +   .   ",
"                                                                                                ",
"@   @   @   @   @   .   +   %   c   d   9   e   f   a   g   |   )   )   )   3   %   .   +   .   ",
"                                                                                                ",
"#   .   .   +   .   %   >   h   i   j   k   l   |   |   |   l   }   m   n   &   $   @   @   @   ",
"                                                                                                ",
"#   .   .   +   $   o   p   p   q   =   )   )   )   )   )   r   s   t   ;   +   .   @   @   @   ",
"                                                                                                ",
"@   @   @   %   u   p   p   p   p   v   w   x   y   l   z   A   B   C   p   >   %   @   @   @   ",
"                                                                                                ",
"@   @   @   %   D   p   p   p   p   v   w   E   F   G   H   I   J   p   p   >   $   +   .   @   ",
"                                                                                                ",
".   +   .   @   $   K   p   p   L   M   )   )   2   |   N   )   )   O   P   %   .   +   .   @   ",
"                                                                                                ",
".   +   .   @   @   %   >   Q   D   R   S   )   )   !   T   U   )   )   3   %   @   @   @   @   ",
"                                                                                                ",
"@   @   @   @   @   .   +   V   ^   -   /   )   )   W   X   /   )   )   3   %   @   .   +   .   ",
"                                                                                                ",
"@   @   @   @   @   .   +   $   ^   Y   Z   ]   ~   3   -   Z   ]   -   ^   %   @   .   +   .   ",
"                                                                                                ",
"#   .   .   +   .   @   @   .   +   $   V   >   $   @   %   $   >   $   $   +   .   @   @   @   ",
"                                                                                                ",
"#   .   .   +   .   @   @   .   +   .   .   +   .   @   @   .   +   .   .   +   .   @   @   @   ",
"                                                                                                ",
"@   @   @   @   @   @   @   @   @   @   @   @   @   @   @   @   @   @   @   @   @   @   @   @   ",
"                                                                                                ",
"@   @   @   @   .   +   .   @   @   @   @   @   .   +   .   @   @   @   @   @   .   +   .   @   ",
"                                                                                                ",
"@   @   @   @   `    .  `   @   @   @   @   @   `    .  `   @   @   @   @   @   `    .  `   @   "};
