/* XPM */
static char * l_w2_xpm[] = {
"48 48 82 1",
" 	c #000000",
".	c #111111",
"+	c #D0D0D0",
"@	c #090909",
"#	c #353535",
"$	c #262626",
"%	c #0B0B0B",
"&	c #060606",
"*	c #121212",
"=	c #1A1A1A",
"-	c #080808",
";	c #878787",
">	c #C7C7C7",
",	c #101010",
"'	c #222222",
")	c #323232",
"!	c #CD9F00",
"~	c #050505",
"{	c #191919",
"]	c #242424",
"^	c #EA9983",
"/	c #0A0A0A",
"(	c #7B7B7B",
"_	c #010101",
":	c #070707",
"<	c #8A7C00",
"[	c #313131",
"}	c #5E3B00",
"|	c #FCFCFC",
"1	c #151515",
"2	c #818181",
"3	c #0C0C0C",
"4	c #212121",
"5	c #858585",
"6	c #1E1E1E",
"7	c #141414",
"8	c #EFEFEF",
"9	c #DACA00",
"0	c #E0E0E0",
"a	c #3D3D3D",
"b	c #181818",
"c	c #F9F1A9",
"d	c #FFFFFF",
"e	c #383838",
"f	c #2C2C2C",
"g	c #0F0F0F",
"h	c #AB4C00",
"i	c #AC8600",
"j	c #292929",
"k	c #0D0D0D",
"l	c #D7BCCB",
"m	c #E4E4E4",
"n	c #A929F6",
"o	c #C443A7",
"p	c #ADB6FF",
"q	c #A3006E",
"r	c #AEAEAE",
"s	c #797979",
"t	c #1C1C1C",
"u	c #640051",
"v	c #CDCDCD",
"w	c #921FAF",
"x	c #B129F1",
"y	c #252525",
"z	c #A80080",
"A	c #E900D1",
"B	c #FCCEFA",
"C	c #040404",
"D	c #2E2E2E",
"E	c #5A5A5A",
"F	c #161616",
"G	c #29C300",
"H	c #264D0A",
"I	c #020202",
"J	c #0E0E0E",
"K	c #030303",
"L	c #696969",
"M	c #1B1B1B",
"N	c #131313",
"O	c #515151",
"P	c #565656",
"Q	c #434343",
"                    .+.                         ",
"                    @#@                         ",
"                     $                          ",
"                     %                     &*&  ",
"=-                                         %;%  ",
">,                                         &'&  ",
")-              !!       ~,~                {   ",
"]              !^^!      /(/      ___       :   ",
"/             <<<!^!     ~<<<<<<< %[%           ",
"         <<<    }!!< <<<<<^^^^^^^<<|1           ",
"        <<!!<  <<!!<<<<<!^<!!!!!!^^</           ",
"          <!^<<<<<<}2<<<}}}}}}^^!!!!<           ",
" ~*~      _<<!!^^^!<<2<<<}<}33}}^!!<}      /4/  ",
" %5%      <!!!!!!^^!!<<<<}<3}333}^!!<@6@   787  ",
" ~4~     <!!!!!!!!!!9!<<<}<33}33 }^!<*0*   /a/  ",
"  b      <!9cc9!!!!9d9<<<}<333}3  }^!<e@    f   ",
"  :      <c9gg99h!9dci!<<}<3333}  &}^<j     k   ",
"         i9iggg99h9dci!<}<3333     }!<3         ",
"         llggmnc9hhd99!}}<333      :}}          ",
"        oddlmdp9hg9cc9<}<3333                   ",
"       oddddogiggcc9c<<<}333:                   ",
"       oddllqgggocci<!^^<<33                    ",
"       qlloqmrsmocci<!!^^<<<                    ",
"       qoooqrsdmoc9i}<!!^!<!<   }}}} -t-        ",
"        qqqmdmmodci}<}<!!!<!!u}}}   }}v.        ",
"          olllocc9i}<<}<!!!<wu}     }!}-        ",
"          9cdccc9i}<<}<!!^!}xwu      }y         ",
"          icc9iii}<<zzz!^!<}xwu       %         ",
"           iizzzznnnzABz!<}}<<u           C%C   ",
"          DDDABABBpppzABz}}!^!<           :E:   ",
"         DADADDBBBBBBpzAz}}!^!}           CFC   ",
"        DAzDDBBzDABppBzAzw}<!^<}           ,    ",
"        DDDDAzDDBBBBBADzDwu}<!!!}GG        C    ",
"        DDzDDDBBzDBAAzDDwuuu}}<<}ddG            ",
"         DDDADzDDBAzDDuuuuu<}H}}HddG            ",
" I&I      DDDDDDBADDuuuuu}}<}GHHGddG            ",
" CDC        DDD DD         }GdH2GddG            ",
" I%I  _C_       J    ~*~   HdGH2GdGH            ",
"  -   K6K        CJC %5%  HGHH GdGH             ",
"  I   _-_        @L@ ~4~ HGHH  HHH              ",
"       ~         CMC  b  HH                     ",
"       _          N   :                     _K_ ",
"                  ~                        K3bI ",
"                                           :O%_ ",
"                                   C%C     K1&  ",
"%]%                                :P:      J_  ",
"FdF                                C1C      C   ",
"%Q%                 CkC             ,           "};
