/* XPM */
static char * l_w3_xpm[] = {
"48 48 84 1",
" 	c #000000",
".	c #111111",
"+	c #D0D0D0",
"@	c #090909",
"#	c #353535",
"$	c #262626",
"%	c #0B0B0B",
"&	c #060606",
"*	c #121212",
"=	c #1A1A1A",
"-	c #080808",
";	c #878787",
">	c #C7C7C7",
",	c #101010",
"'	c #8A7C00",
")	c #222222",
"!	c #323232",
"~	c #CD9F00",
"{	c #5E3B00",
"]	c #191919",
"^	c #242424",
"/	c #EA9983",
"(	c #010101",
"_	c #070707",
":	c #0A0A0A",
"<	c #0C0C0C",
"[	c #313131",
"}	c #151515",
"|	c #FCFCFC",
"1	c #414141",
"2	c #2E2E2E",
"3	c #050505",
"4	c #0D0D0D",
"5	c #212121",
"6	c #858585",
"7	c #1E1E1E",
"8	c #141414",
"9	c #EFEFEF",
"0	c #DACA00",
"a	c #E0E0E0",
"b	c #3D3D3D",
"c	c #181818",
"d	c #F9F1A9",
"e	c #FFFFFF",
"f	c #868686",
"g	c #383838",
"h	c #2C2C2C",
"i	c #0F0F0F",
"j	c #AB4C00",
"k	c #AC8600",
"l	c #292929",
"m	c #D7BCCB",
"n	c #E4E4E4",
"o	c #A929F6",
"p	c #C443A7",
"q	c #ADB6FF",
"r	c #A3006E",
"s	c #AEAEAE",
"t	c #797979",
"u	c #1C1C1C",
"v	c #640051",
"w	c #CDCDCD",
"x	c #921FAF",
"y	c #343434",
"z	c #B129F1",
"A	c #252525",
"B	c #A80080",
"C	c #040404",
"D	c #FCCEFA",
"E	c #5A5A5A",
"F	c #E900D1",
"G	c #161616",
"H	c #29C300",
"I	c #020202",
"J	c #264D0A",
"K	c #818181",
"L	c #030303",
"M	c #0E0E0E",
"N	c #696969",
"O	c #1B1B1B",
"P	c #131313",
"Q	c #515151",
"R	c #565656",
"S	c #434343",
"                    .+.                         ",
"                    @#@                         ",
"                     $                          ",
"                     %                     &*&  ",
"=-                                         %;%  ",
">,                      ''    ''''''       &)&  ",
"!-              ~~     '''''''~~~~{         ]   ",
"^              ~//~  ''''''~~~{{{{(((       _   ",
":             '''~/~''''/~~{{{<<< %[%           ",
"         '''    {~~''''~~{{<<<<<  }|}           ",
"        ''~~'  ''~~''~/'{{{{{<<<  :1:           ",
"          '~/''''''{'{{'{{<<<{{{<  2            ",
" 3*3      (''~~///~''''{'<{<<<<<{{ 4       :5:  ",
" %6%      '~~~~~~//~~''{'<<{<<<<<    @7@   898  ",
" 353     '~~~~~~~~~~0~''{'<<{<<<  &*&*a*   :b:  ",
"  c      '~0dd0~~~~0e0''{'<<<{<   %f%@g@    h   ",
"  _      'd0ii00j~0edk~'{'<<<<{   &)& l     4   ",
"         k0kiii00j0edk~'{'<<<<<{   c  <         ",
"         mmiinod0jje00~'{'<<<<<    _            ",
"        peemneq0jj0dd0'{{'<<<<                  ",
"       peeeepi0iiid0dk'{{'<<<       {           ",
"       peemmriiipddkk'''''<<<     {{~{          ",
"       rmmprnsinpddk'~//'~''    {{  {           ",
"       rppprstenpd0k'~~//'~~'  {     -u-        ",
"        rrrnennpedk{{'~~/~'~~v{      .w.        ",
"          pmmmpdd0k{'{'~~~'~xv{      -y-        ",
"          0deddd0k{'''{'~~~'zxv       A         ",
"          kdd0kkk{'''{'~~/~{zxv       %         ",
"           kkk{{{{{'BBB~/~'{xxv           C%C   ",
"               tsBooBDDB~'{{''v           _E_   ",
"          2222BBBFDqqBFDB{{~/~'           CGC   ",
"         2FF2BDFDDDDDqBFB{{~/~{            ,    ",
"        2FB2B22DFDDqqDBFBx{'~/'{           C    ",
"        2222BDDB2DDDDF2B2vv{'~~~{HH             ",
"        22B2FB22DDDDFB22vvv{{{''{eeH            ",
" I&I     222B2FDB2DF22vvv{''{J{{JeeH            ",
" C2C      2222F22DB2     {{'{HJJHeeH            ",
" I%I  (C(   2222FB2  3*3   {HeJKHeeH            ",
"  -   L7L      2B2MC %6%   JeHJKHeHJ            ",
"  I   (-(        @N@ 353  JHJJ HeHJ             ",
"       3         COC  c  JHJJ  JJJ              ",
"       (          P   _  JJ                 (L( ",
"                  3                        L<cI ",
"                                           _Q%( ",
"                                   C%C     L}&  ",
"%^%                                _R_      M(  ",
"GeG                                C}C      C   ",
"%S%                 C4C             ,           "};
