/* XPM */
static char * l_w6_xpm[] = {
"48 48 84 1",
" 	c #000000",
".	c #111111",
"+	c #D0D0D0",
"@	c #090909",
"#	c #353535",
"$	c #262626",
"%	c #0B0B0B",
"&	c #060606",
"*	c #121212",
"=	c #1A1A1A",
"-	c #080808",
";	c #878787",
">	c #C7C7C7",
",	c #101010",
"'	c #CD9F00",
")	c #222222",
"!	c #323232",
"~	c #EA9983",
"{	c #050505",
"]	c #191919",
"^	c #242424",
"/	c #8A7C00",
"(	c #0A0A0A",
"_	c #7B7B7B",
":	c #010101",
"<	c #070707",
"[	c #5E3B00",
"}	c #1F1F1F",
"|	c #313131",
"1	c #161616",
"2	c #151515",
"3	c #FCFCFC",
"4	c #414141",
"5	c #2E2E2E",
"6	c #0D0D0D",
"7	c #212121",
"8	c #858585",
"9	c #DACA00",
"0	c #1E1E1E",
"a	c #141414",
"b	c #EFEFEF",
"c	c #F9F1A9",
"d	c #FFFFFF",
"e	c #E0E0E0",
"f	c #3D3D3D",
"g	c #181818",
"h	c #0F0F0F",
"i	c #AB4C00",
"j	c #AC8600",
"k	c #868686",
"l	c #383838",
"m	c #2C2C2C",
"n	c #292929",
"o	c #D7BCCB",
"p	c #E4E4E4",
"q	c #A929F6",
"r	c #0C0C0C",
"s	c #C443A7",
"t	c #ADB6FF",
"u	c #A3006E",
"v	c #AEAEAE",
"w	c #797979",
"x	c #640051",
"y	c #1C1C1C",
"z	c #CDCDCD",
"A	c #343434",
"B	c #252525",
"C	c #A80080",
"D	c #921FAF",
"E	c #FCCEFA",
"F	c #040404",
"G	c #E900D1",
"H	c #5A5A5A",
"I	c #29C300",
"J	c #264D0A",
"K	c #020202",
"L	c #030303",
"M	c #0E0E0E",
"N	c #696969",
"O	c #1B1B1B",
"P	c #131313",
"Q	c #515151",
"R	c #565656",
"S	c #434343",
"                    .+.                         ",
"                    @#@                         ",
"                     $                          ",
"                     %                     &*&  ",
"=-                                         %;%  ",
">,              ''                         &)&  ",
"!-             '~~'      {,{                ]   ",
"^             ///'~'     (_(      :::       <   ",
"(        ///    [''/     {}{      %|%           ",
"        //''/  //''/      1       232           ",
"          /'~//////[      &       (4(           ",
"          ://''~~~'//              5            ",
" {*{      /''''''~~''/             6       (7(  ",
" %8%     /''''''''''9'/              @0@   aba  ",
" {7{     /'9cc9''''9d9/           &*&*e*   (f(  ",
"  g      /c9hh99i'9dcj'///////    %k%@l@    m   ",
"  <      j9jhhh99i9dcj'/'~'~~~/// &)& n     6   ",
"         oohhpqc9iid99'/[[['''~~~//g  r         ",
"        sddopdt9ii9cc9/[[r[~'''''~~/            ",
"       sddddsh9hhhc9cj/[rrr[~''''//             ",
"       sddoouhhhsccjj///[[rr[~'''/              ",
"       uoosupvhpsccj/'~~/[[[r[~~''/             ",
"       usssuvwdpsc9j/''~~//[[r[[~~'//           ",
"        uuupdppsdcj[[/''~'///x[ [[~~~/y-        ",
"          soooscc9j[/[/'''//xx[   [[[.z.        ",
"          9cdccc9j[///[/'''/xxx[     -A-        ",
"          jcc9jjj[///[/''~'[xxx [[  [ B         ",
"           jjj[[[[[/CCC'~'/[DDx   [['[%         ",
"               wvCqqCEEC'/[[//x     [     F%F   ",
"              CCCGEttCGEC[['~'/           <H<   ",
"            5CEGEEEEEtCGC[['~'[           F1F   ",
"           5C55EGEEttECGCD[/'~/[           ,    ",
"           5CEEC5EEEEG5C5xx[/'''[II        F    ",
"          55GC55EEEEGC55xxx[[[//[ddI            ",
"         5G5C5GEC5EG55xxx[//[J[[JddI            ",
" K&K     5C555G55EC55    [[/[IJ JIddI           ",
" F5F     5C5CG55GC5        [IdJ  IddI           ",
" K%K  :F:5555555C5   {*{   JddJ  IdIJ           ",
"  -   L0L  5555  FMF %8%  JJIJ  IddIJ           ",
"  K   :-:        @N@ {7{  JIJJ   JJJ            ",
"       {         FOF  g    JJ                   ",
"       :          P   <                     :L: ",
"                  {                        LrgK ",
"                                           <Q%: ",
"                                   F%F     L2&  ",
"%^%                                <R<      M:  ",
"1d1                                F2F      F   ",
"%S%                 F6F             ,           "};
