/* XPM */
static char * l_w1_xpm[] = {
"48 48 84 1",
" 	c #000000",
".	c #111111",
"+	c #D0D0D0",
"@	c #090909",
"#	c #353535",
"$	c #262626",
"%	c #0B0B0B",
"&	c #060606",
"*	c #121212",
"=	c #1A1A1A",
"-	c #080808",
";	c #878787",
">	c #C7C7C7",
",	c #101010",
"'	c #222222",
")	c #323232",
"!	c #CD9F00",
"~	c #050505",
"{	c #191919",
"]	c #242424",
"^	c #EA9983",
"/	c #0A0A0A",
"(	c #7B7B7B",
"_	c #010101",
":	c #070707",
"<	c #8A7C00",
"[	c #1F1F1F",
"}	c #313131",
"|	c #5E3B00",
"1	c #161616",
"2	c #151515",
"3	c #FCFCFC",
"4	c #414141",
"5	c #2E2E2E",
"6	c #0D0D0D",
"7	c #212121",
"8	c #858585",
"9	c #1E1E1E",
"0	c #141414",
"a	c #EFEFEF",
"b	c #DACA00",
"c	c #E0E0E0",
"d	c #3D3D3D",
"e	c #181818",
"f	c #F9F1A9",
"g	c #FFFFFF",
"h	c #383838",
"i	c #2C2C2C",
"j	c #0F0F0F",
"k	c #AB4C00",
"l	c #AC8600",
"m	c #0C0C0C",
"n	c #292929",
"o	c #D7BCCB",
"p	c #E4E4E4",
"q	c #A929F6",
"r	c #C443A7",
"s	c #ADB6FF",
"t	c #A3006E",
"u	c #AEAEAE",
"v	c #797979",
"w	c #1C1C1C",
"x	c #640051",
"y	c #CDCDCD",
"z	c #921FAF",
"A	c #343434",
"B	c #B129F1",
"C	c #252525",
"D	c #A80080",
"E	c #E900D1",
"F	c #FCCEFA",
"G	c #040404",
"H	c #5A5A5A",
"I	c #29C300",
"J	c #264D0A",
"K	c #020202",
"L	c #0E0E0E",
"M	c #030303",
"N	c #696969",
"O	c #1B1B1B",
"P	c #131313",
"Q	c #515151",
"R	c #565656",
"S	c #434343",
"                    .+.                         ",
"                    @#@                         ",
"                     $                          ",
"                     %                     &*&  ",
"=-                                         %;%  ",
">,                                         &'&  ",
")-              !!       ~,~                {   ",
"]              !^^!      /(/      ___       :   ",
"/             <<<!^!     ~[~      %}%           ",
"         <<<    |!!<      1       232           ",
"        <<!!<  <<!!<      &       /4/           ",
"          <!^<<<<<<|               5            ",
" ~*~      _<<!!^^^!<<<<<  <<<<<<<< 6       /7/  ",
" %8%      <!!!!!!^^!!<<<<<^^^^^^^^<< @9@   0a0  ",
" ~7~     <!!!!!!!!!!b!<<!^<!!!!!!!^^<*c*   /d/  ",
"  e      <!bffb!!!!bgb<<||||||^^!!!<|@h@    i   ",
"  :      <fbjjbbk!bgfl!<<|<||m||^!!<& n     6   ",
"         lbljjjbbkbgfl!<<|<mm|mm|^!!< m         ",
"         oojjpqfbkkgbb!<<|<mmm|m |^!<           ",
"        rggopgsbkjbffb<||<mmmmm|  |^!<          ",
"       rggggrjljjffbf<<<|mmmm      |!<          ",
"       rggootjjjrffl<!^^<<mm        ||          ",
"       toortpuvprffl<!!^^<<<                    ",
"       trrrtuvgprfbl|<!!^!<<<        -w-        ",
"        tttpgpprgfl|<|<!!!<!!x       .y.        ",
"          rooorffbl|<<|<!!!<zx|||    -A-        ",
"          bfgfffbl|<<|<!!^!|Bzx  ||   C         ",
"          lffblll|<<DDD!^!<|Bzx    || %         ",
"           llDDDDqqqDEFD!<||<<x      |    G%G   ",
"            5EFEFFsssDEFD||!^!<     |!|   :H:   ",
"           5E55FFFFFFsDED||!^!|      |    G1G   ",
"          555FFD5EFssFDEDz|<!^<|           ,    ",
"         5E5ED55FFFFFE5D5zx|<!!!|II        G    ",
"        5DD555FFD5FEED55zxxx||<<|ggI            ",
"        5D55D5D55FED55xxxxx<|J||JggI            ",
" K&K     555DD55FE55xxxxx||<|IJ JIggI           ",
" G5G      55555555         |IgJ  IggI           ",
" K%K  _G_   55  L    ~*~   JgIJ  IgIJ           ",
"  -   M9M        GLG %8%  JIIJ  IgIJ            ",
"  K   _-_        @N@ ~7~  JIJ   JJJ             ",
"       ~         GOG  e   JJ                    ",
"       _          P   :                     _M_ ",
"                  ~                        MmeK ",
"                                           :Q%_ ",
"                                   G%G     M2&  ",
"%]%                                :R:      L_  ",
"1g1                                G2G      G   ",
"%S%                 G6G             ,           "};
