/* XPM */
static char * l_w4_xpm[] = {
"48 48 81 1",
" 	c #000000",
".	c #111111",
"+	c #D0D0D0",
"@	c #090909",
"#	c #353535",
"$	c #262626",
"%	c #0B0B0B",
"&	c #060606",
"*	c #121212",
"=	c #1A1A1A",
"-	c #080808",
";	c #878787",
">	c #C7C7C7",
",	c #101010",
"'	c #CD9F00",
")	c #222222",
"!	c #323232",
"~	c #EA9983",
"{	c #050505",
"]	c #191919",
"^	c #242424",
"/	c #8A7C00",
"(	c #0A0A0A",
"_	c #7B7B7B",
":	c #070707",
"<	c #5E3B00",
"[	c #0C0C0C",
"}	c #010101",
"|	c #2E2E2E",
"1	c #0D0D0D",
"2	c #212121",
"3	c #858585",
"4	c #DACA00",
"5	c #1E1E1E",
"6	c #141414",
"7	c #EFEFEF",
"8	c #F9F1A9",
"9	c #FFFFFF",
"0	c #E0E0E0",
"a	c #3D3D3D",
"b	c #181818",
"c	c #0F0F0F",
"d	c #AB4C00",
"e	c #AC8600",
"f	c #868686",
"g	c #383838",
"h	c #2C2C2C",
"i	c #292929",
"j	c #D7BCCB",
"k	c #E4E4E4",
"l	c #A929F6",
"m	c #C443A7",
"n	c #ADB6FF",
"o	c #A3006E",
"p	c #AEAEAE",
"q	c #797979",
"r	c #640051",
"s	c #1C1C1C",
"t	c #921FAF",
"u	c #CDCDCD",
"v	c #B129F1",
"w	c #343434",
"x	c #252525",
"y	c #A80080",
"z	c #040404",
"A	c #E900D1",
"B	c #FCCEFA",
"C	c #5A5A5A",
"D	c #161616",
"E	c #29C300",
"F	c #020202",
"G	c #264D0A",
"H	c #030303",
"I	c #696969",
"J	c #1B1B1B",
"K	c #131313",
"L	c #515151",
"M	c #151515",
"N	c #565656",
"O	c #0E0E0E",
"P	c #434343",
"                    .+.                         ",
"                    @#@                         ",
"                     $                          ",
"                     %                     &*&  ",
"=-                                         %;%  ",
">,              ''                         &)&  ",
"!-             '~~'      {,{                ]   ",
"^             ///'~'   //(_( ////////       :   ",
"(        ///    <''/ ////{///''''''''<          ",
"        //''/  //''///////~~~'<<<<<<<           ",
"          /'~//////<////'~'<<<[[[[[[(           ",
"          }//''~~~'///'~<<<<[[[[[[ |            ",
" {*{      /''''''~~''/<<<<<<<<<<<<<1       (2(  ",
" %3%     /''''''''''4'//<<[[[[[[[    @5@   676  ",
" {2{     /'4884''''494//</<<<[[   &*&*0*   (a(  ",
"  b      /84cc44d'498e'/</[[[<<<  %f%@g@    h   ",
"  :      e4eccc44d498e'/</[[[[    &)& i     1   ",
"         jjcckl84dd944'/</[[[      b  [         ",
"        m99jk9n4dd4884<</[[[:      :            ",
"       m9999mcecc8848e<<<[[[1        <          ",
"       m99jjoccccc8ee/<///[i:       <'<         ",
"       ojjmokpqpm88e////////         <          ",
"       ommmopq9km84e/'~~/'''/      <<           ",
"        oook9kkm98e</''~~/'''r   <<  -s-        ",
"          mjjjm884e<</''~'/'tr<<<    .u.        ",
"          4898884e<//</'''/tvtr      -w-        ",
"          e884eee<////</'''/vtr       x         ",
"           eee<<<<<//</''~'<ttr       %         ",
"               qpp<<yyy'~'/<trr           z%z   ",
"               rqrllyABy'/<<//r           :C:   ",
"              yyyyBBnyABy<<'~'/           zDz   ",
"           |||ABBBBnBnyBy<<'~'<            ,    ",
"          |||A|ABBBBBnyAyr</'~/<           z    ",
"         |A|A|AByBBBnA|y|rr</'''<EE             ",
"        |yy||AB|ABBBAy||r/<<<<//<99E            ",
" F&F    |y|||B|AB|BA||  <<//<G<<G99E            ",
" z|z     |||y||B|By|     <</<EG GE99E           ",
" F%F  }z} |||||A|By  {*{   <E9G  E99E           ",
"  -   H5H   || ||A|z %3%   G9EG  E9EG           ",
"  F   }-}        @I@ {2{  GEEG  E9EG            ",
"       {         zJz  b   GEG   GGG             ",
"       }          K   :   GG                }H} ",
"                  {                        H[bF ",
"                                           :L%} ",
"                                   z%z     HM&  ",
"%^%                                :N:      O}  ",
"D9D                                zMz      z   ",
"%P%                 z1z             ,           "};
