/* XPM */
static char * l_w5_xpm[] = {
"48 48 84 1",
" 	c #000000",
".	c #111111",
"+	c #D0D0D0",
"@	c #090909",
"#	c #353535",
"$	c #262626",
"%	c #0B0B0B",
"&	c #060606",
"*	c #121212",
"=	c #1A1A1A",
"-	c #080808",
";	c #878787",
">	c #C7C7C7",
",	c #101010",
"'	c #CD9F00",
")	c #222222",
"!	c #323232",
"~	c #EA9983",
"{	c #050505",
"]	c #191919",
"^	c #242424",
"/	c #8A7C00",
"(	c #0A0A0A",
"_	c #7B7B7B",
":	c #010101",
"<	c #070707",
"[	c #5E3B00",
"}	c #1F1F1F",
"|	c #313131",
"1	c #161616",
"2	c #151515",
"3	c #FCFCFC",
"4	c #414141",
"5	c #212121",
"6	c #858585",
"7	c #DACA00",
"8	c #1E1E1E",
"9	c #141414",
"0	c #EFEFEF",
"a	c #F9F1A9",
"b	c #FFFFFF",
"c	c #0C0C0C",
"d	c #E0E0E0",
"e	c #3D3D3D",
"f	c #181818",
"g	c #0F0F0F",
"h	c #AB4C00",
"i	c #AC8600",
"j	c #868686",
"k	c #383838",
"l	c #2C2C2C",
"m	c #292929",
"n	c #0D0D0D",
"o	c #D7BCCB",
"p	c #E4E4E4",
"q	c #A929F6",
"r	c #C443A7",
"s	c #ADB6FF",
"t	c #A3006E",
"u	c #AEAEAE",
"v	c #797979",
"w	c #640051",
"x	c #921FAF",
"y	c #CDCDCD",
"z	c #B129F1",
"A	c #343434",
"B	c #252525",
"C	c #A80080",
"D	c #040404",
"E	c #E900D1",
"F	c #FCCEFA",
"G	c #5A5A5A",
"H	c #2E2E2E",
"I	c #29C300",
"J	c #020202",
"K	c #264D0A",
"L	c #030303",
"M	c #696969",
"N	c #1B1B1B",
"O	c #131313",
"P	c #515151",
"Q	c #565656",
"R	c #0E0E0E",
"S	c #434343",
"                    .+.                         ",
"                    @#@                         ",
"                     $                          ",
"                     %                     &*&  ",
"=-                                         %;%  ",
">,              ''                         &)&  ",
"!-             '~~'      {,{                ]   ",
"^             ///'~'     (_(      :::       <   ",
"(        ///    [''/     {}{      %|%           ",
"        //''/  //''/      1       232           ",
"          /'~//////[      &       (4(           ",
"          ://''~~~'//      //    /////          ",
" {*{      /''''''~~''/   ////////'''''/    (5(  ",
" %6%     /''''''''''7'///////''''[[[[[8@   909  ",
" {5{     /'7aa7''''7b7/////''[[[[cccc*d*   (e(  ",
"  f      /a7gg77h'7bai'/'~/[[[cccccj%@k@    l   ",
"  <      i7iggg77h7bai'/[[[[cc[[[[[[& m     n   ",
"         ooggpqa7hhb77'//[cc[[cccc f  c         ",
"        rbbopbs7hh7aa7/[[ccccc[c   <            ",
"       rbbbbrg7ggaa7ai/[ccccccc[[               ",
"       rbbootgggggaii/[/cccccc                  ",
"       toortpuguraai//////cc                    ",
"       trrrtuvbpra7i/'~~/////        [          ",
"        tttpbpprbai[/''~~///'w[     ['[-        ",
"          roooraa7i[[/''~'/'xw[[[   [[y.        ",
"          7abaaa7i[//[/'''/xzxw [[[[ -A-        ",
"          iaa7iii[////[/'''/zxw       B         ",
"           iii[[[[[//[/''~'[xxw       %         ",
"               vuu[[CCC'~'/[xww           D%D   ",
"               wvwqqCEFC'/[[//w           <G<   ",
"              CCCCFFsCEFC[['~'/           D1D   ",
"             HEFFFFsFsCFC[['~'[            ,    ",
"           HHEHEFFFFFsCECw[/'~/[           D    ",
"           HEHEFCFFFsEHCHww[/'''[II             ",
"          HHHEFHEFFFECHHw/[[[[//[bbI            ",
" J&J     HEHHFHEFHFEHH  [[//[K[[KbbI            ",
" DHD     HCHHHHFHFCHH    [[/[IK KIbbI           ",
" J%J  :D:HCHCEHEHFC  {*{   [IbK  IbbI           ",
"  -   L8LHHHHHHHHEHD %6%   KbbK  IbIK           ",
"  J   :-:  HHHH  @M@ {5{  KKIK  IbbIK           ",
"       {         DND  f   KIKK   KKK            ",
"       :          O   <    KK               :L: ",
"                  {                        LcfJ ",
"                                           <P%: ",
"                                   D%D     L2&  ",
"%^%                                <Q<      R:  ",
"1b1                                D2D      D   ",
"%S%                 DnD             ,           "};
