/* XPM */
static char * out1_xpm[] = {
"48 48 491 2",
"  	c None",
". 	c #3E3E3E",
"+ 	c #838383",
"@ 	c #757575",
"# 	c #717171",
"$ 	c #6E6E6E",
"% 	c #767676",
"& 	c #787878",
"* 	c #7C7C7C",
"= 	c #858585",
"- 	c #8E8E8E",
"; 	c #696969",
"> 	c #4E4E4E",
", 	c #505050",
"' 	c #4F4F4F",
") 	c #515151",
"! 	c #727272",
"~ 	c #848484",
"{ 	c #424242",
"] 	c #888888",
"^ 	c #7A7A7A",
"/ 	c #3F3F3B",
"( 	c #8A8A8A",
"_ 	c #9F9F9F",
": 	c #282828",
"< 	c #111111",
"[ 	c #313131",
"} 	c #000000",
"| 	c #808080",
"1 	c #6F6F6F",
"2 	c #737373",
"3 	c #777777",
"4 	c #7B7B7B",
"5 	c #909090",
"6 	c #6C6C6C",
"7 	c #8F8F8F",
"8 	c #A2A2A2",
"9 	c #999999",
"0 	c #9C9C9C",
"a 	c #9A9A9A",
"b 	c #9D9D9D",
"c 	c #9B9B9B",
"d 	c #9A9B9C",
"e 	c #7D7D7D",
"f 	c #353535",
"g 	c #030302",
"h 	c #080700",
"i 	c #7F7F7F",
"j 	c #9E9E9E",
"k 	c #5F5F5F",
"l 	c #040404",
"m 	c #373737",
"n 	c #191919",
"o 	c #4C4C4C",
"p 	c #6D6D6D",
"q 	c #7E7E7E",
"r 	c #747474",
"s 	c #797979",
"t 	c #8C8C8C",
"u 	c #666666",
"v 	c #393939",
"w 	c #060600",
"x 	c #868686",
"y 	c #989898",
"z 	c #585858",
"A 	c #1F1F1F",
"B 	c #898989",
"C 	c #0B0B0B",
"D 	c #3B3B3B",
"E 	c #292929",
"F 	c #6B6B6B",
"G 	c #4A4A4A",
"H 	c #494949",
"I 	c #535353",
"J 	c #484848",
"K 	c #545454",
"L 	c #4B4B4B",
"M 	c #5A5A5A",
"N 	c #5D5D5D",
"O 	c #525252",
"P 	c #5C5C5C",
"Q 	c #818181",
"R 	c #5B5B5B",
"S 	c #646464",
"T 	c #626262",
"U 	c #8D8D8D",
"V 	c #565656",
"W 	c #383838",
"X 	c #959595",
"Y 	c #707070",
"Z 	c #656565",
"` 	c #686868",
" .	c #878787",
"..	c #0A0A00",
"+.	c #969696",
"@.	c #919191",
"#.	c #747576",
"$.	c #2E2F31",
"%.	c #6F6F70",
"&.	c #A3A3A3",
"*.	c #8B8B8B",
"=.	c #898A8A",
"-.	c #8B8C8D",
";.	c #88898B",
">.	c #8B8C8C",
",.	c #878888",
"'.	c #8E8F8F",
").	c #8D8E8E",
"!.	c #474747",
"~.	c #6A6A6A",
"{.	c #595959",
"].	c #5E5E5E",
"^.	c #454545",
"/.	c #464646",
"(.	c #616161",
"_.	c #7F7F80",
":.	c #575757",
"<.	c #404040",
"[.	c #676767",
"}.	c #828282",
"|.	c #727273",
"1.	c #414141",
"2.	c #555555",
"3.	c #797A7B",
"4.	c #636363",
"5.	c #888989",
"6.	c #7D7E7F",
"7.	c #727378",
"8.	c #7A7B7F",
"9.	c #858688",
"0.	c #3C3D3E",
"a.	c #58595A",
"b.	c #A5A5A5",
"c.	c #929395",
"d.	c #919294",
"e.	c #8F9092",
"f.	c #8F9093",
"g.	c #909193",
"h.	c #949597",
"i.	c #838485",
"j.	c #4D4E51",
"k.	c #7B7C7D",
"l.	c #929393",
"m.	c #343434",
"n.	c #7A7B7B",
"o.	c #7E7E7F",
"p.	c #76777A",
"q.	c #8E8F91",
"r.	c #929292",
"s.	c #8C8D8D",
"t.	c #8E8E8F",
"u.	c #8E8F90",
"v.	c #8D8E8F",
"w.	c #939495",
"x.	c #979797",
"y.	c #707172",
"z.	c #525353",
"A.	c #333333",
"B.	c #909191",
"C.	c #737475",
"D.	c #747475",
"E.	c #8F9091",
"F.	c #323232",
"G.	c #A6A6A6",
"H.	c #949494",
"I.	c #929293",
"J.	c #3C3C3C",
"K.	c #727274",
"L.	c #8B8B8C",
"M.	c #939499",
"N.	c #8D8E92",
"O.	c #444444",
"P.	c #A4A4A4",
"Q.	c #999A9B",
"R.	c #8E8F93",
"S.	c #959599",
"T.	c #999A9D",
"U.	c #969798",
"V.	c #898A8C",
"W.	c #6D6E6F",
"X.	c #747472",
"Y.	c #868585",
"Z.	c #656666",
"`.	c #939393",
" +	c #757576",
".+	c #7E7F81",
"++	c #969799",
"@+	c #949498",
"#+	c #8F8F93",
"$+	c #8F8F92",
"%+	c #919293",
"&+	c #A8A8A8",
"*+	c #8F9090",
"=+	c #919192",
"-+	c #9A9A9E",
";+	c #929394",
">+	c #828285",
",+	c #4E4E50",
"'+	c #606060",
")+	c #767575",
"!+	c #40403E",
"~+	c #51514F",
"{+	c #020401",
"]+	c #7C7C7D",
"^+	c #787879",
"/+	c #959697",
"(+	c #959598",
"_+	c #909092",
":+	c #919194",
"<+	c #919193",
"[+	c #AAAAAA",
"}+	c #969699",
"|+	c #9B9B9E",
"1+	c #979799",
"2+	c #919292",
"3+	c #707073",
"4+	c #3A3939",
"5+	c #3A3837",
"6+	c #3D3C3B",
"7+	c #2E2E2C",
"8+	c #949596",
"9+	c #909093",
"0+	c #929295",
"a+	c #8D8D8E",
"b+	c #363636",
"c+	c #98989B",
"d+	c #9C9C9F",
"e+	c #959698",
"f+	c #949497",
"g+	c #646465",
"h+	c #282728",
"i+	c #2E2D2C",
"j+	c #7E7F7F",
"k+	c #98999B",
"l+	c #97989A",
"m+	c #939397",
"n+	c #8E8E90",
"o+	c #99999C",
"p+	c #9D9DA0",
"q+	c #98999C",
"r+	c #939394",
"s+	c #979899",
"t+	c #939396",
"u+	c #8E8E91",
"v+	c #9A9A9D",
"w+	c #9F9FA2",
"x+	c #999A9C",
"y+	c #9B9B9C",
"z+	c #7D7E7E",
"A+	c #A2A2A3",
"B+	c #9A9B9E",
"C+	c #97979A",
"D+	c #969697",
"E+	c #363739",
"F+	c #AFAFAF",
"G+	c #949495",
"H+	c #A1A1A4",
"I+	c #9D9EA1",
"J+	c #939395",
"K+	c #A2A3A4",
"L+	c #4B4B4C",
"M+	c #B0B0B0",
"N+	c #959597",
"O+	c #9D9DA1",
"P+	c #A3A3A6",
"Q+	c #9FA0A3",
"R+	c #9C9D9F",
"S+	c #97989B",
"T+	c #9C9C9E",
"U+	c #979798",
"V+	c #626263",
"W+	c #ABABAB",
"X+	c #868787",
"Y+	c #A5A6A8",
"Z+	c #9B9B9F",
"`+	c #98989A",
" @	c #A7A7A7",
".@	c #A4A4A7",
"+@	c #9D9EA0",
"@@	c #939494",
"#@	c #A7A8AA",
"$@	c #9A9B9D",
"%@	c #9E9EA1",
"&@	c #99999B",
"*@	c #99999A",
"=@	c #A6A6A9",
"-@	c #A4A4A6",
";@	c #9FA0A2",
">@	c #9B9C9D",
",@	c #9A9A9B",
"'@	c #828383",
")@	c #8C8C8D",
"!@	c #A9AAAC",
"~@	c #9B9C9E",
"{@	c #9B9C9F",
"]@	c #A0A0A3",
"^@	c #C0C0C0",
"/@	c #A1A1A1",
"(@	c #9C9D9E",
"_@	c #A2A2A5",
":@	c #A8A8AB",
"<@	c #A1A2A3",
"[@	c #9C9C9D",
"}@	c #9C9CA0",
"|@	c #B1B1B1",
"1@	c #858587",
"2@	c #767677",
"3@	c #ABACAE",
"4@	c #9C9DA0",
"5@	c #9A9A9C",
"6@	c #3F3F3F",
"7@	c #B6B6B6",
"8@	c #9D9E9F",
"9@	c #AAAAAE",
"0@	c #A7A8A9",
"a@	c #A0A0A2",
"b@	c #9B9B9D",
"c@	c #A0A0A1",
"d@	c #AEAFB2",
"e@	c #9E9FA2",
"f@	c #9E9FA1",
"g@	c #9F9FA0",
"h@	c #AFB0B1",
"i@	c #9D9D9E",
"j@	c #A5A5A8",
"k@	c #ACACAF",
"l@	c #A9A9AA",
"m@	c #A3A3A7",
"n@	c #9E9EA2",
"o@	c #B5B5B5",
"p@	c #9F9FA1",
"q@	c #B0B0B3",
"r@	c #A6A6A8",
"s@	c #A4A5A6",
"t@	c #9E9FA0",
"u@	c #A0A1A2",
"v@	c #98999A",
"w@	c #B8B8B8",
"x@	c #A7A7AA",
"y@	c #ADADB0",
"z@	c #AAAAAD",
"A@	c #A7A7A9",
"B@	c #A1A1A2",
"C@	c #A5A5A9",
"D@	c #9F9FA3",
"E@	c #B7B7B7",
"F@	c #B1B1B4",
"G@	c #A5A5A7",
"H@	c #A1A2A4",
"I@	c #BABABA",
"J@	c #A9A9AB",
"K@	c #AFAFB3",
"L@	c #A9A9AC",
"M@	c #A0A0A4",
"N@	c #A1A1A5",
"O@	c #A0A0A0",
"P@	c #B2B2B4",
"Q@	c #A9A9A9",
"R@	c #A2A3A6",
"S@	c #A2A3A5",
"T@	c #AEAEAE",
"U@	c #B9B9B9",
"V@	c #ACACAD",
"W@	c #AEAEB1",
"X@	c #A8A8AC",
"Y@	c #A2A2A6",
"Z@	c #BBBBBB",
"`@	c #B4B4B7",
" #	c #ACACAE",
".#	c #A3A4A7",
"+#	c #ACACAC",
"@#	c #ADADAD",
"##	c #B5B5B6",
"$#	c #B0B0B1",
"%#	c #ABABAE",
"&#	c #A2A2A4",
"*#	c #BCBCBC",
"=#	c #A4A4A5",
"-#	c #B6B6B9",
";#	c #ADADAF",
">#	c #A1A1A3",
",#	c #BDBDBD",
"'#	c #B3B3B3",
")#	c #A6A7AA",
"!#	c #ABABAC",
"~#	c #ACACB0",
"{#	c #BCBCBD",
"]#	c #A6A6A7",
"^#	c #B7B7BA",
"/#	c #AFAFB0",
"(#	c #A3A3A5",
"_#	c #ADADAE",
":#	c #AEAEAF",
"<#	c #CDCDCD",
"[#	c #B4B4B4",
"}#	c #AEAEB0",
"|#	c #AFAFB2",
"1#	c #BEBEBF",
"2#	c #A8A8A9",
"3#	c #B8B9BC",
"4#	c #A8A8AA",
"5#	c #B0B0B2",
"6#	c #AAAAAC",
"7#	c #D1D1D1",
"8#	c #B1B1B2",
"9#	c #ABABAD",
"0#	c #A7A7A8",
"a#	c #B1B1B3",
"b#	c #BABABD",
"c#	c #B2B2B2",
"d#	c #A9A9AD",
"e#	c #C4C4C4",
"f#	c #C6C6C6",
"g#	c #B3B3B5",
"h#	c #C0C0C1",
"i#	c #BCBCBF",
"j#	c #ABABAF",
"k#	c #B4B4B6",
"l#	c #CCCCCC",
"m#	c #B5B5B7",
"n#	c #AFAFB1",
"o#	c #C2C2C3",
"p#	c #BEBEC1",
"q#	c #B6B6B8",
"r#	c #B6B6B7",
"s#	c #CECECE",
"t#	c #C4C4C5",
"u#	c #989899",
"v#	c #878788",
"w#	c #BFBFC2",
"x#	c #B8B8B9",
"y#	c #B3B3B4",
"z#	c #BFBFC0",
"A#	c #B9B9BA",
"B#	c #2E2E2E",
"C#	c #C1C1C4",
"D#	c #B2B2B5",
"E#	c #BABABB",
"F#	c #B4B4B5",
"G#	c #B3B3B6",
"H#	c #B1B2B5",
"I#	c #B6B6BA",
"J#	c #BBBBBE",
"K#	c #C5C5C6",
"L#	c #C7C7C7",
"M#	c #B5B5B8",
"N#	c #C5C5C5",
"O#	c #BABABC",
"P#	c #BEBEBE",
"Q#	c #B8B8BC",
"R#	c #BDBDC0",
"S#	c #C6C6C7",
"T#	c #BBBBBC",
"U#	c #B5B5B9",
"V#	c #B2B2B3",
"W#	c #BFBFBF",
"X#	c #B8B8BA",
"Y#	c #C0C0C3",
"Z#	c #C5C5C8",
"`#	c #C1C1C1",
" $	c #B4B4B8",
".$	c #BBBCBF",
"+$	c #BFBFC3",
"@$	c #C7C7C9",
"#$	c #D6D6D6",
"$$	c #C8C8C8",
"%$	c #C3C3C3",
"&$	c #BDBDBE",
"*$	c #C1C2C3",
"=$	c #BDBDBF",
"-$	c #BFC0C2",
";$	c #C3C4C6",
">$	c #CBCBCB",
",$	c #C2C2C2",
"'$	c #C0C1C2",
")$	c #C8C8C9",
"!$	c #D3D3D3",
"~$	c #D4D4D4",
"{$	c #C9C9C9",
"]$	c #272727",
"^$	c #575755",
"/$	c #151515",
"($	c #2F2F2C",
"_$	c #323331",
":$	c #0D0D01",
"<$	c #0D0D00",
"[$	c #50504F",
"}$	c #444443",
"|$	c #3A3A37",
"1$	c #747473",
"2$	c #6F6F6E",
". + @ # # $ $ # % % & * = - ; > , ' ) ) ) , ) , ) , , ) ) ' , ' , ! ~ { ] ^ / ( * = ] ~ _ : < [ ",
"} { | # ! # 1 2 % 3 4 4 5 6 7 8 9 0 a 0 0 0 a b c 0 c 0 a a 0 d 0 e e f } g h + i | = j k l m f ",
"i n o 3 p 1 # 2 & | | ~ q r @ 3 i * * 4 e 4 q s ^ ^ 4 4 * | 4 e 4 t ! r u ; v w | x y z A - B x ",
"^ x n } } } } } } C & x s B D E 3 F G ) o o k H I J K L M N , O G P 3 $ | & Q D w $ o A 5 ] Q * ",
"% Q o R % $ 1 # @ S T 2 U P V W ' X ; Y Z $ p p 1 ` # u 2 6 2 F F P 6  .@ i ^ x J ..} +.Q Q q 3 ",
"@ + J $ 4 @ & ^ q @.@ ( F k x #.$.%.&.*. .=.-.;.=.>.,.=.>.5 '.'.).| K | e e i * B P . X * | * & ",
"2 ~ !.~.3 # 3 ^  .e + 4 {.x U @.].W ( 4 { ^.!.^./.!./.^.J J (.U Q _.% :.*.& | & x ~.D @.& q 4 ^ ",
"2 + <.[.^ @ ^ }.+ 4 *.V ^ t |. .1 P 1.5 k , 2.I 2.2.K I V {.> 1 * 3.t 6 (.U @ * Q [.v @.3 ^ & 3 ",
"2 Q <.[.4 ^ 4 = % 7 4.p @.5.6.7.8.9.0.a.b.c.d.e.f.g.g.e.h.d i.j.k.l.| x N Y ] 3 x F m.B % % % & ",
"# i <.~.q 3  .% ( 6 ; U n.] o.p.q.7 s f Y b.r.s.t.u.u.v.w.y x.y.z. .p ] + z q | e Y A.Q @ % 2 @ ",
"$ i . [.^ | ^ + 4 R 7 B.C.* D.E.'.- 7 ` F.t G.- 5 '.7 7 H.a X H.(.N *.I.5.r :.*.3 & [ * ! ! # 1 ",
"F q J.[.Q i s B 2.e H.= @.K.L.M.N.g.- 7 ' O.P.Q.R.R.R.R.S.T.U.c.V.I p U W.U ~.T U 2 M 3 1 F p $ ",
"X.Y.!.Z.= 3 U N ~.`.~ &  +.+++@+#+g.$+%++ <.P &++.*+q.=+S.-+++;+;+>+,+e x -  .'+#  .6 + 1 ! )+@ ",
"!+~+{+* s U p (.B ( 9 ]+^+/+h.(+_+:+$+<+- ^ m % [+`.5 r.}+|+1+X 2+S.3+V 7 i ^  .R i i 1 > 4+5+6+",
"7+: !.~.~ q R  .~ Y 7 2 B.8+++}+9+0+9+0+a+`.6 b+5 b.@.=+c+d+c+e+w.f+I.g+N = ~ +.e z B @ (.: h+i+",
"4 | + & ( {.j+7 ] x ^ B X h.k+l+0+f+:+m+n+@.x.z /.j j `.o+p+q+l+h.f+r+X V # 9 Q - p 4.U r e @ 3 ",
"$ e r U T Y w.@ = & - x.X s+q+c+t+(+0+f+u+r.0 ! m - &+r+v+w+|+x+++}+d.y+= , | 4 7 - [.2 ] 2 1 [.",
"i @ *.# $ r.2+z+D.* A+x.e+k+B+v+f+C+t+}+u+D+] E+r F+X G+d+H+I+B+l+C+J+y+9 @ I @.c = t N Q i % @ ",
"@ | i u 0  . .U Y X K+s+l+x+|+|+(+C+f+C+<+7 L+z M+j x.N+O+P+Q+R+S+c+f+T+U++.V+S `.r c | ].B 3 3 ",
"(.H.{.i W+| |  +X+Q.Y+k+k+Z+d+d+}+C+(+`+I.M /. @ @x.a C+w+.@H++@T.d+}+d+1+N+r.P & `.@@+.T $ *.P ",
"T X M + W+y+t |.I.k+#@$@$@p+%@p+C+o+}+&@p <.+.F+a c *@c+H+=@-@;@>@d+C+p+C+(+,@B :.}.4 X Z F U M ",
"4.H.M '@F+)@^ D.%+$@!@~@{@%@]@w+o+d+c+D+O.M ^@/@b (@$@v+_@:@Y+<@[@}@c+w+v+}+a 9 K s +.a Z 6 U N ",
"S H.R = |@1@4 2@w.~@3@4@I+w+_@_@|+p+5@b @ 6@r.7@8@+@R+|+P+9@0@P.j a@v+_@}@c+b@y V Q j a [.6 U k ",
"4.+.R ] |@c@5  +8++@d@I+e@H+.@-@d+f@|+g@y 4./.&+h@i@R+d+j@k@l@b._ H+|+m@n@v+d+c :.4 i y ` F U ].",
"S H.R B o@5 q s D+p@q@e@H+P+r@s@t@a@R+u@v@9 V z w@ @j g@x@y@z@A@B@P+p+C@D@d+w+0 {.q a i@~.6 - T ",
"Z X ].*.E@L.e ^ y c@F@w+P+G@A@G./@H@f@H@x+;@a O.& I@/@/@J@K@y@L@M@.@%@x@N@p+]@j {.+ O@a@~.p U T ",
"Z X N U w@G.X ^ 9 8 P@H+=@x@J@Q@&.R@Q+S@Q.8@T@ .1.@.U@/@V@P@W@L@P+x@]@X@Y@w+P+/@P q + >@6 p U Z ",
"S X ].- Z@H.Q e a P.`@P+:@L@ #W+G.j@N@.#Z+p@+#Q@# J T@o@@###$#%#=@J@H+z@m@]@G@8 N Q b &#$ p - 4.",
"S +.k 7 *#7 + e b =#-#.@L@z@;#@#&+x@P+=@p+>#T@W+ @R P ,#7@o@'#;#)#!#P+~#=@P+A@P.k  . @-@1 $ - S ",
"u H.k 5 {#&+y q j ]#^#C@k@y@/#T@l@L@C@x@w+(#|@_#:#a ^.& <#U@[#}#L@:#r@|#x@.@J@G.'++  .>## p - u ",
"Z X '+r.1#9 x | _ 2#3#4#|#5#M+F+!#6#x@:@w+-@'#F+5#@#x { /@7#o@8#9#M+0#a#L@=@!#Q@(. .8 A@! p - u ",
"Z X (.`.^@r. .+ &.L@b#L@F@c#|@|@T@k@d#z@H+G@[#|@P@+#T@2 o e#f#|@@#c#[+g#k@:@_#W+T t [+2#! $ - S ",
"p H.T +.h#T@j + =#z@i#%#g#[#'#'#$#W@j#k@P+0#7@'#k#F+@#T@].; l#I@F+'#@#m#W@%#n#+#Z x *. @@ $ - [.",
"I `.4.y o#j *.x b. #p#W@q#7@o@[#8#q@y@k@j@4#w@[#r#|@:#[#&+I  .s#c#[#+#w@W@k@5#T@u *.b._#3 $ U S ",
"V X 4.a t#u#U v#2#n#w#q@x#E@7@7@'#F@K@W@x@6#I@7@U@y#|#g#z#c ) b.f#o@F+A#P@W@P@M+` @.T@/#& $ t B#",
"(.X S 0 t#[#P.] W+5#C#D#E#x#w@w@F#G#D#F@z@V@*#w@E###H#I#J#K#= {.E@L#T@E#M#q@k#c#~.t 5 _#^ 1 U O.",
"].`.Z _ N#&.@.*.W+'#e#o@,#E#O#x#E@o@##y#V@_#P#Z@*#q#`@Q#R#S#Z@; F s#E@T#U#D#M#V#6 5 &+c#* $ - H ",
"k X [.O@L#_ H.U +#o@N#E@W#*#{#I@w@E@E@[#T@M+^@,#P#X#M#b#Y#Z#`#@#:. .<#^@X# $M###6 +.o@o@i Y - /.",
"].X ` b.L#w@[+U '#o@f#w@W#*#,#I@w@E@w@[#F+|@^@,#^@*#X#.$+$@$W#^@X ' &.#$I@q#T#9 e  @@.[#Q $ 5 !.",
"[.5 $ X $$[+_ t /@Z@$$*#%$^@W#&$,#Z@Z@w@8#[#e#*$N#^@=$-$;$>$e#^@,#= K f#l#U@ @r M+[#[+o@q ^  .z ",
"e 4 Q u  @b.+#P.1 c#l#`#f#%$,$`#^@W#P#*#7@7@L#N#$$e#'$e#)$<#$$,$W#`#; ! !$U@! y `#x.7@r.& t & ! ",
"* e 3 r r |@`#+#i F q 1 @ 3 & @ 1 ! 2 3 6 Y 3 @ 4 % r @ @ 3 ^ 4 @ ^ '+1.*.e#B e#^@&+O@Y *.& t ].",
"r = ! + 3 ( ,#9 G.}.i r 3 s e & @ 2 3 s p ! & s e s 3 & & 4 q q s s r ^ M W+~$@#`#o@s x q Q @.O ",
"@ q q @  .$ /@P#Z@w@7#,${$f#,$N#W#N#,#^@[#I@L#N#<#%${$^@>${${$f#^@{$Z@l#( T $$,#*#] s  .| B ( ' ",
"% 4 % 4 ! ^ $ c y e o@( @#`.b a - G.] &+i a r.O@&.`.Q@] T@- +#r.c _ ( W+* > S N#H.@ *.1 Y H.7 ~+",
"^ 7 + ~ & @ i @ & $ * Y * ! 3 r ! s 1 ^ $ 3 # 3 @ 2 & Y 4 Y 4 ! 3 % ! s Y Y u }.& *.& ~ ]$, - ^$",
"/$($_$A.K ;  ._ c _ c _ b _ b O@O@j /@j /@O@/@_ _ _ _ O@j /@j _ _ j j b j O@8 c _ q + X 4 :$..<$",
"f [$}$^.G p ; R P P N N N N ].N N N ].N P N P N P P P N P N N P P N M R N P M N P ^ r.x X |$1$2$"};
