/* XPM */
static char * out2_xpm[] = {
"48 48 429 2",
"  	c None",
". 	c #3E3E3E",
"+ 	c #838383",
"@ 	c #757575",
"# 	c #717171",
"$ 	c #727272",
"% 	c #6D6D6D",
"& 	c #6A6A6A",
"* 	c #6F6F6F",
"= 	c #747474",
"- 	c #7B7B7B",
"; 	c #828282",
"> 	c #5B5B5B",
", 	c #4A4A4A",
"' 	c #4B4B4B",
") 	c #4C4C4C",
"! 	c #4D4D4D",
"~ 	c #797979",
"{ 	c #3F3F3F",
"] 	c #808080",
"^ 	c #737373",
"/ 	c #393939",
"( 	c #858585",
"_ 	c #898989",
": 	c #848484",
"< 	c #9F9F9F",
"[ 	c #282828",
"} 	c #111111",
"| 	c #313131",
"1 	c #000000",
"2 	c #424242",
"3 	c #767676",
"4 	c #777777",
"5 	c #7C7C7C",
"6 	c #8D8D8D",
"7 	c #787878",
"8 	c #8F8F8F",
"9 	c #9E9E9E",
"0 	c #9D9D9D",
"a 	c #A0A0A0",
"b 	c #363636",
"c 	c #020202",
"d 	c #010101",
"e 	c #7F7F7F",
"f 	c #5F5F5F",
"g 	c #040404",
"h 	c #373737",
"i 	c #353535",
"j 	c #191919",
"k 	c #7D7D7D",
"l 	c #666666",
"m 	c #505050",
"n 	c #525252",
"o 	c #515151",
"p 	c #868686",
"q 	c #7E7E7E",
"r 	c #8B8B8B",
"s 	c #646464",
"t 	c #696969",
"u 	c #989898",
"v 	c #585858",
"w 	c #1F1F1F",
"x 	c #8E8E8E",
"y 	c #7A7A7A",
"z 	c #0E0E0E",
"A 	c #707070",
"B 	c #6C6C6C",
"C 	c #101010",
"D 	c #030303",
"E 	c #656565",
"F 	c #484848",
"G 	c #5D5D5D",
"H 	c #545454",
"I 	c #454545",
"J 	c #414141",
"K 	c #6E6E6E",
"L 	c #616161",
"M 	c #818181",
"N 	c #3B3B3B",
"O 	c #909090",
"P 	c #888888",
"Q 	c #3A3A3A",
"R 	c #222222",
"S 	c #686868",
"T 	c #717173",
"U 	c #717172",
"V 	c #3C3C3C",
"W 	c #565656",
"X 	c #969696",
"Y 	c #212121",
"Z 	c #939394",
"` 	c #87888B",
" .	c #8D8D91",
"..	c #8B8C8E",
"+.	c #898A8B",
"@.	c #474747",
"#.	c #5C5C5C",
"$.	c #959595",
"%.	c #606060",
"&.	c #050505",
"*.	c #535353",
"=.	c #464646",
"-.	c #444444",
";.	c #434343",
">.	c #333333",
",.	c #676767",
"'.	c #919191",
").	c #404040",
"!.	c #5A5A5A",
"~.	c #595959",
"{.	c #575757",
"].	c #555555",
"^.	c #4E4E4E",
"/.	c #494949",
"(.	c #171717",
"_.	c #ABABAB",
":.	c #939396",
"<.	c #929395",
"[.	c #8F9092",
"}.	c #919293",
"|.	c #8D8E8E",
"1.	c #626262",
"2.	c #6B6B6B",
"3.	c #343434",
"4.	c #5E5E5E",
"5.	c #242424",
"6.	c #A1A1A1",
"7.	c #8F9090",
"8.	c #8E8F90",
"9.	c #8E8F91",
"0.	c #8B8C8D",
"a.	c #747576",
"b.	c #323232",
"c.	c #949494",
"d.	c #8E8F8F",
"e.	c #8F9093",
"f.	c #8A8B8E",
"g.	c #939496",
"h.	c #8A8B8C",
"i.	c #2B2B2B",
"j.	c #6E6E70",
"k.	c #98999A",
"l.	c #7F7F80",
"m.	c #3D3D3D",
"n.	c #4F4F4F",
"o.	c #909095",
"p.	c #8C8D90",
"q.	c #929396",
"r.	c #848586",
"s.	c #636363",
"t.	c #8A8A8A",
"u.	c #9B9B9C",
"v.	c #939393",
"w.	c #1D1D1D",
"x.	c #0F0F0F",
"y.	c #A3A3A3",
"z.	c #909091",
"A.	c #8D8D8E",
"B.	c #7F8080",
"C.	c #767675",
"D.	c #403F3E",
"E.	c #50504F",
"F.	c #080804",
"G.	c #8C8C8C",
"H.	c #929292",
"I.	c #9B9B9D",
"J.	c #929293",
"K.	c #999999",
"L.	c #959697",
"M.	c #8F9091",
"N.	c #3A3939",
"O.	c #3A3937",
"P.	c #3E3E3B",
"Q.	c #2C2C2C",
"R.	c #292929",
"S.	c #8B8B8C",
"T.	c #909093",
"U.	c #9C9C9F",
"V.	c #919194",
"W.	c #070707",
"X.	c #ADADAD",
"Y.	c #969798",
"Z.	c #919294",
"`.	c #909193",
" +	c #202020",
".+	c #282826",
"++	c #2E2D2C",
"@+	c #727273",
"#+	c #8E8E8F",
"$+	c #8B8B8E",
"%+	c #929296",
"&+	c #9D9DA1",
"*+	c #969698",
"=+	c #2D2D2D",
"-+	c #A6A6A6",
";+	c #99999A",
">+	c #666667",
",+	c #8C8C90",
"'+	c #9F9FA4",
")+	c #939397",
"!+	c #969799",
"~+	c #090909",
"{+	c #A7A7A7",
"]+	c #9C9C9D",
"^+	c #939497",
"/+	c #949597",
"(+	c #878787",
"_+	c #636364",
":+	c #949498",
"<+	c #A0A0A4",
"[+	c #969699",
"}+	c #959698",
"|+	c #121212",
"1+	c #9A9A9A",
"2+	c #959597",
"3+	c #999A9C",
"4+	c #808181",
"5+	c #525253",
"6+	c #929394",
"7+	c #8D8D90",
"8+	c #A2A2A5",
"9+	c #131313",
"0+	c #AEAEAE",
"a+	c #9C9C9C",
"b+	c #97979A",
"c+	c #97989A",
"d+	c #9B9C9E",
"e+	c #949596",
"f+	c #727274",
"g+	c #A1A2A3",
"h+	c #979798",
"i+	c #8E8E90",
"j+	c #A5A5A7",
"k+	c #9B9B9B",
"l+	c #B0B0B0",
"m+	c #979797",
"n+	c #9D9D9E",
"o+	c #949496",
"p+	c #959699",
"q+	c #98999B",
"r+	c #9C9D9F",
"s+	c #A2A2A2",
"t+	c #8F8F91",
"u+	c #98989B",
"v+	c #A8A8A9",
"w+	c #B6B6B6",
"x+	c #9F9FA1",
"y+	c #959598",
"z+	c #96979A",
"A+	c #9E9FA1",
"B+	c #898A8A",
"C+	c #8F8F92",
"D+	c #99999C",
"E+	c #ACACAD",
"F+	c #1C1C1C",
"G+	c #141414",
"H+	c #B4B4B4",
"I+	c #9D9DA0",
"J+	c #9F9FA2",
"K+	c #9B9B9E",
"L+	c #A0A0A2",
"M+	c #979899",
"N+	c #A5A5A5",
"O+	c #9A9A9B",
"P+	c #9A9B9D",
"Q+	c #9B9B9F",
"R+	c #AAAAAD",
"S+	c #0C0C0C",
"T+	c #B3B3B3",
"U+	c #9E9EA1",
"V+	c #97989B",
"W+	c #A0A1A4",
"X+	c #A8A8A8",
"Y+	c #9B9C9F",
"Z+	c #97979B",
"`+	c #ADADB0",
" @	c #9E9E9F",
".@	c #A1A1A4",
"+@	c #9A9A9D",
"@@	c #A3A3A6",
"#@	c #9D9EA1",
"$@	c #9A9B9E",
"%@	c #A4A4A6",
"&@	c #9D9D9F",
"*@	c #AFAFB2",
"=@	c #A3A3A4",
"-@	c #262626",
";@	c #BABABA",
">@	c #A7A7A8",
",@	c #9C9DA0",
"'@	c #A2A2A4",
")@	c #A6A6A7",
"!@	c #AAAAAA",
"~@	c #A0A0A1",
"{@	c #949497",
"]@	c #9F9FA3",
"^@	c #B1B1B4",
"/@	c #A3A3A5",
"(@	c #181818",
"_@	c #A2A3A5",
":@	c #9E9FA2",
"<@	c #ACACAC",
"[@	c #A0A0A3",
"}@	c #B2B2B5",
"|@	c #A6A6A8",
"1@	c #0D0D0D",
"2@	c #B1B1B1",
"3@	c #9FA0A2",
"4@	c #A5A6A9",
"5@	c #AAAAAC",
"6@	c #757576",
"7@	c #A1A1A5",
"8@	c #B4B4B7",
"9@	c #A9A9AB",
"0@	c #C5C5C5",
"a@	c #A3A4A6",
"b@	c #A7A8AA",
"c@	c #ABABAE",
"d@	c #A4A4A5",
"e@	c #A4A4A7",
"f@	c #B5B5B8",
"g@	c #AFAFAF",
"h@	c #BDBDBD",
"i@	c #A6A7A8",
"j@	c #A9AAAC",
"k@	c #ADAEB0",
"l@	c #A1A2A4",
"m@	c #A5A5A6",
"n@	c #A5A5A8",
"o@	c #A6A6A9",
"p@	c #B7B7BA",
"q@	c #A5A5A9",
"r@	c #ACACAE",
"s@	c #1B1B1B",
"t@	c #ABACAE",
"u@	c #AFB0B2",
"v@	c #787879",
"w@	c #A6A6AA",
"x@	c #A7A7AA",
"y@	c #B9B9BC",
"z@	c #A8A8AB",
"A@	c #B0B0B1",
"B@	c #AEAFB0",
"C@	c #0B0B0B",
"D@	c #B5B5B5",
"E@	c #B1B2B3",
"F@	c #B2B2B2",
"G@	c #A9A9A9",
"H@	c #A9A9AC",
"I@	c #BABABD",
"J@	c #A9AAAD",
"K@	c #B2B2B3",
"L@	c #B1B1B2",
"M@	c #B0B0B2",
"N@	c #C7C7C7",
"O@	c #ADADAE",
"P@	c #7B7B7C",
"Q@	c #AAAAAB",
"R@	c #BCBCBF",
"S@	c #B4B4B5",
"T@	c #2E2E2E",
"U@	c #C6C6C6",
"V@	c #AEAEAF",
"W@	c #ADADAF",
"X@	c #BEBEC1",
"Y@	c #AEAEB1",
"Z@	c #B7B7B8",
"`@	c #B4B4B6",
" #	c #B0B0B3",
".#	c #BFBFC2",
"+#	c #B8B8BA",
"@#	c #B7B7B7",
"##	c #B2B2B4",
"$#	c #818182",
"%#	c #B1B1B3",
"&#	c #C1C1C4",
"*#	c #BABABC",
"=#	c #B9B9B9",
"-#	c #B8B8B8",
";#	c #B3B3B5",
">#	c #080808",
",#	c #B3B3B6",
"'#	c #C3C3C6",
")#	c #BBBBBC",
"!#	c #B8B8B9",
"~#	c #B5B5B6",
"{#	c #CDCDCD",
"]#	c #B6B6B9",
"^#	c #C4C4C7",
"/#	c #BBBBBE",
"(#	c #C1C1C2",
"_#	c #B9B9BA",
":#	c #B6B6B8",
"<#	c #C6C6C7",
"[#	c #BFBFC0",
"}#	c #BCBCBD",
"|#	c #BCBCBE",
"1#	c #C0C0C0",
"2#	c #BBBBBB",
"3#	c #BEBEBE",
"4#	c #C9C9C9",
"5#	c #C3C3C3",
"6#	c #C1C1C1",
"7#	c #BCBCBC",
"8#	c #BFBFBF",
"9#	c #CACACA",
"0#	c #C2C2C2",
"a#	c #C8C8C8",
"b#	c #060606",
"c#	c #151515",
"d#	c #1E1E1E",
"e#	c #1A1A1A",
"f#	c #525352",
"g#	c #CFCFCF",
"h#	c #CBCBCB",
"i#	c #CCCCCC",
"j#	c #C4C4C4",
"k#	c #D1D1D1",
"l#	c #252525",
"m#	c #232323",
"n#	c #575755",
"o#	c #1B1B15",
"p#	c #2F2E2C",
"q#	c #323231",
"r#	c #A4A4A4",
"s#	c #0D0D00",
"t#	c #383835",
"u#	c #444343",
"v#	c #6F6F6E",
". + @ # # $ % & * * # = - ; > , ' ) ) ' ' ' ' ' ' ) ' ) ! ) ) ! ) & ~ { ] ^ / ; @ ( _ : < [ } | ",
"1 2 ] # $ # * ^ 3 4 - 5 6 7 8 < 9 9 9 9 9 9 0 < 9 9 < 9 0 0 9 9 a ] 5 b 1 c d + e ] ( 9 f g h i ",
"e j ) 4 % * # ^ 7 ] e k 4 ] l m n n n n n n o f p 4 5 ~ q 5 - - 4 r # % s t / 1 ] p u v w x _ p ",
"y p j 1 1 1 1 1 1 z A B = % C D c d d d d d c g . E ' F G H v I J ) K L * 4 M N 1 K ) w O P M 5 ",
"3 M ) > 3 K * # @ L Q L q R D d 1 1 1 1 1 1 1 d z S ~ % T U 4 t l V W M > $ y p F 1 1 X M M q 4 ",
"@ + F K - @ 7 y q ] G + Q D d 1 1 1 1 1 1 1 1 d 1 Y X Z `  ...+.( B @.= 4 L 7 5 _ #.. $.5 ] 5 7 ",
"^ : @.& 4 # 4 ~ ~ %.M #.&.c g 1 1 1 1 1 1 1 1 1 d d J X *.@.F =.-.;.>.| q & ,.@ p & N '.7 q - y ",
"^ + ).,.y @ ~ y l * < >.D c c 1 1 1 1 1 1 1 1 1 1 d D L ; !.!.~.{.v ].I ^.P f ,.] ,./ '.4 y 7 4 ",
"^ M ).,.- y 7 K %._ G /.(.g d 1 1 1 1 1 1 1 1 1 1 1 1 C p _.:.<.[.}.|.; n 1.+ G ~ 2.3._ 3 3 3 7 ",
"# e ).& q 4 @ f + 4.. ).;.z 1 1 1 1 1 1 1 1 1 1 1 1 d 1 5.6.0 7.8.9.0.[.a.) # ~ s & b.M @ 3 ^ @ ",
"K e . ,.y = %.] K ^.5 , F / &.1 1 1 1 1 1 1 1 1 1 1 d c 1 ;._.c.d.e.f.g.h.2., ; B %.i.5 $ $ # * ",
"2.q V ,.- s A ] F j.k.l.m.n.[ c 1 1 1 1 1 1 1 1 1 1 1 d c &.s _.[.o.p.q.9.r.4.H r 4.. 4 K 2.% K ",
"$ ( @.s.* l t.n.f t.u.v.B { m w.1 1 1 1 1 1 1 1 1 1 1 1 1 d x.( y.z.A.g.9.8.B.W E : o 7 * $ @ C.",
"D.E.F.t 1.G.%.W e H.I.J.v.G @./.x.1 1 1 1 1 1 1 1 1 1 1 1 d 1 5.K.< |.L.[.[.M.y o = 7 o ;.N.O.P.",
"Q.R.5.' M ^ o y S.T.U.V.Z 8 ! ) / W.1 1 1 1 1 1 1 1 1 1 1 1 d 1 J X.$.Y.Z.`.}.'.# ) ] 2.{  +.+++",
"- y t A + ! @+#+$+%+&+%+:.*+p @.m =+g 1 1 1 1 1 1 1 1 1 1 d 1 1 g 4.-+;+g.[.Z.X O L ].t.1.2.@ 4 ",
"B E s t.H >+A.T.,+%+'+)+)+!+v.*.) m.~+1 1 1 1 1 1 1 1 1 1 1 d d d { {+]+^+<.<./+k.M #.l (+~.1.,.",
"2.G _ s _+r.X V.,+:+<+[+}+K.s.@., |+d 1 1 1 1 1 1 1 1 1 1 1 1 1 [ 6.9 1+2+g.g.!+3+}.4+5+4 - > % ",
"4.5 ^ !.0.6+X Z 7+[+8+*+1+7 I ].w.d d 1 1 1 1 1 1 1 1 1 1 1 d 9++ 0+v.a+b+q.!+c+d+e+X f+n + B E ",
"%.O ) # g+L.h+c.i+b+j+k+p @.v | D d 1 1 1 1 1 1 1 1 1 1 1 d W.t l+k+m+n+b+o+p+q+r+g.0 0.{.f r !.",
"s.x ! # s+h+u $.t+u+v+H.! m ).~+1 d 1 1 1 1 1 1 1 1 1 1 1 g /.w+< 0 h+x+u+y+z+3+A+}+< B+~.4.6 > ",
"s.'.! A y.1+1+/+C+D+E+4 { !.F+1 d 1 1 1 1 1 1 1 1 1 1 1 1 G+K.H+k+I+u+J+D+b+u+K+L+M+a r v 4.6 #.",
"s 8 ^.# N+O+P+[+V.Q+R+K.].m , S+1 1 1 1 1 1 1 1 1 1 1 1 1 c . T+N+U+K+8+I+V+D+U.W+k.s+r ~.f G.4.",
"E 8 ^.^ X+0 Y+Z+%+&+`+ @'.n.#.V g 1 1 1 1 1 1 1 1 1 1 1 1 d W.1.H+.@+@@@#@$@Y+J+%@q+s+6 > G G.f ",
"E 8 m $ X+9 &@D+)+J+*@U+=@(+' G -@d d d d 1 1 1 1 1 1 1 1 1 d C q ;@0 >@#@,@#@'@)@k+y.r !.4.G.1.",
"l O o @+!@~@U++@{@]@^@J+/@)@@ ! H (@d d d 1 1 d 1 1 1 1 1 d d d R 6.X.{+_@#@:@@@>@a+N+6 > 4.6 1.",
"l 8 o = <@s+]@U.[+[@}@8+|@)@X+s.*.! 1@d d 1 1 1 1 1 1 1 1 1 d d d Q 2@l+y.3@_@4@5@ @)@x #.f 6 E ",
"l O n 6@X.=@7@U+u+@@8@@@9@_.X.< ^.> / &.1 d 1 1 1 1 1 1 1 1 1 1 1 D 4.0@N+g+a@b@c@L+X+8 G f 6 1.",
"E O *.4 0+d@@@J++@e@f@e@9@_.0+g@_ ) G Q.c d 1 1 1 1 1 1 1 d 1 1 1 d x.t.h@s+i@j@k@l@!@'.4.f 6 s ",
",.O n 4 l+m@n@.@U.o@p@q@r@0+g@X.<@~ ^.%.s@1 1 1 1 1 1 1 1 d d 1 1 1 1 R 6.T+{+t@u@a@_.H.f %.6 E ",
"l 8 *.v@2@X+w@8+I+x@y@z@A@2@l+B@_.!@1.G ' C@1 1 1 1 1 1 1 1 1 1 1 1 d d . D@2@X.E@j+X.H.L f 6 E ",
"l 8 *.~ F@G@z@n@[@H@I@J@K@F@L@M@g@0+9 > > m.W.1 1 1 1 d 1 1 1 1 1 1 1 1 &.4.N@l+H+i@O@v.L f 6 s ",
"K 8 ].P@T+Q@R+x@8+R+R@c@S@H+T+}@M@0+X.H.' 1.T@d d 1 1 1 1 1 1 1 1 1 1 d d x.r U@T+G@V@X s.%.6 ,.",
"].8 ].q S@E+W@H@@@`+X@Y@Z@w+S@`@M@L@X.0+@ n s F+1 d 1 1 1 1 1 1 1 1 1 1 1 d 5.G@0@X+2@m+s %.G.s.",
"{.8 W l.w+g@*@c@n@ #.# #+#@#w+w+##^@M@g@N+l 1.{.C 1 1 1 1 1 1 1 1 d d 1 1 d d 2 N@T+A@K.E L G.T@",
"L O {.$#@#l+%#Y@z@^@&#}@*#=#-#@#S@;#^@2@<@a f 2.F >#1 1 1 1 1 1 1 d d d 1 1 d &.S U@H+1+l L G.-.",
"f 8 {.+ -#L@,#*@H@}@'#8@R@*#)#!#@#D@~#H+<@2@< !.^ 3.d 1 1 1 1 1 1 1 1 1 1 1 1 1 z t.{#u & %.6 F ",
"f 8 v : =#S@]###c@8@^#]#X@/#/#;@-#@#-#H+0+l+(#P s.& F+1 1 1 1 1 1 1 1 1 1 1 1 d 1 5.X._.t 1.6 =.",
"f O v r ;@D@_#S@O@:#<#!#[#}#|#;@-#@#-#H+g@l+1#2#4 l > z 1 1 1 1 1 1 1 1 1 1 1 1 d c 2 2@# #.8 =.",
"4.G.%.e -#;@3#=#2@;@4#h@5#6#1#3#h@2#7#-#F@H+0@5#@#l A =.>#d d d d 1 1 1 1 1 d 1 1 c >#L m+4 : m ",
"L A - > $.w+8#2#H+2#9#8#0@0#1#1#3#h@h@;@T+w+0@5#a#y.s.7 i &.&.&.&.&.&.&.&.&.&.&.&.>#b#c#( 1+l v ",
"K E ^ 2.! % # K 2.# q * @ 7 ~ 3 # # ^ 7 B # 4 @ y 7 *.f * [ S+x.z x.x.x.x.z z x.} z z d#4 B 4 H ",
"^ 4 #.e #.n & # * ^ ; $ 7 ~ k 7 3 = 3 y % = 7 ~ k 7 k % $ l Y (.(@(.(.(.(.(.(@(.(@e#(@B y t _ f#",
"@ 5 K * (+l u @#;@6#g#h#U@i#0#4#6#j#0@3#h@@#g#U@k#U@N@;@s q #.l#R R Y R R R 5.5.m#d#W ( B k _ ^.",
"3 - @ B t $ l * v.P a < 8 G@( N+; < v.H.$.; G@(+l+_ s+$.E H $ >.l#-@-@-@-@-@-@-@5.' t.f > v.8 n.",
"y 8 + y 1.# @ L 3 ^ ~ 7 @ 5 A - * y = 3 @ A y A 5 A - $ = S ] * f s.s.1.1.L 1.%.s.P # $ e#m x n#",
"o#p#q#3.{ ]._ s+a+< a+< < 0 a 6.y.6.s+s+6.y.a y.a y.a s+6.r#r#N+r#6.a a a 6.6.s+s+y # 8 - 1 1 s#",
"t#E.u#=.) {.!.v v 4.s.4.4.%.#.v {.v v v v v v {.v v v ~.{.{.W W {.#.m ].%.#.].%.G 2.P p $.h ^ v#"};
