/* XPM */
static char * out3_xpm[] = {
"48 48 367 2",
"  	c None",
". 	c #3E3E3E",
"+ 	c #838383",
"@ 	c #757575",
"# 	c #717171",
"$ 	c #707070",
"% 	c #6B6B6B",
"& 	c #696969",
"* 	c #6E6E6E",
"= 	c #6D6D6D",
"- 	c #6F6F6F",
"; 	c #737373",
"> 	c #797979",
", 	c #7F7F7F",
"' 	c #5C5C5C",
") 	c #4D4D4D",
"! 	c #4F4F4F",
"~ 	c #4E4E4E",
"{ 	c #505050",
"] 	c #7A7A7A",
"^ 	c #3F3F3F",
"/ 	c #7E7E7E",
"( 	c #3A3A3A",
"_ 	c #828282",
": 	c #878787",
"< 	c #848484",
"[ 	c #9F9F9F",
"} 	c #282828",
"| 	c #111111",
"1 	c #313131",
"2 	c #000000",
"3 	c #424242",
"4 	c #808080",
"5 	c #727272",
"6 	c #777776",
"7 	c #7B7B7B",
"8 	c #8B8B8B",
"9 	c #929292",
"0 	c #A2A2A2",
"a 	c #A0A0A0",
"b 	c #A1A1A1",
"c 	c #9E9E9E",
"d 	c #7D7D7D",
"e 	c #434343",
"f 	c #050606",
"g 	c #030403",
"h 	c #020202",
"i 	c #858585",
"j 	c #5F5F5F",
"k 	c #040404",
"l 	c #373737",
"m 	c #353535",
"n 	c #191919",
"o 	c #4C4C4C",
"p 	c #777777",
"q 	c #707171",
"r 	c #787878",
"s 	c #818181",
"t 	c #656565",
"u 	c #474747",
"v 	c #494949",
"w 	c #484848",
"x 	c #4A4A4A",
"y 	c #888888",
"z 	c #666666",
"A 	c #686969",
"B 	c #393939",
"C 	c #868686",
"D 	c #989898",
"E 	c #585858",
"F 	c #1F1F1F",
"G 	c #8E8E8E",
"H 	c #898989",
"I 	c #0C0300",
"J 	c #060100",
"K 	c #0C0C0E",
"L 	c #6C6C6C",
"M 	c #767676",
"N 	c #030303",
"O 	c #1B1B1B",
"P 	c #626262",
"Q 	c #454545",
"R 	c #4B4B4B",
"S 	c #636363",
"T 	c #3B3B3B",
"U 	c #040002",
"V 	c #909090",
"W 	c #7C7C7C",
"X 	c #5B5B5B",
"Y 	c #71706F",
"Z 	c #727171",
"` 	c #606061",
" .	c #232323",
"..	c #010101",
"+.	c #3C3C3C",
"@.	c #686868",
"#.	c #3D3D3D",
"$.	c #747474",
"%.	c #7A7B7B",
"&.	c #090101",
"*.	c #969696",
"=.	c #7A7978",
"-.	c #7D7D7E",
";.	c #050505",
">.	c #616161",
",.	c #A7A7A7",
"'.	c #5D5D5C",
").	c #959595",
"!.	c #6A6A6A",
"~.	c #5A5A5A",
"{.	c #060606",
"].	c #121212",
"^.	c #323232",
"/.	c #2E2E2E",
"(.	c #919191",
"_.	c #404040",
":.	c #676767",
"<.	c #797A79",
"[.	c #141414",
"}.	c #292929",
"|.	c #555555",
"1.	c #252525",
"2.	c #444444",
"3.	c #A9A9A9",
"4.	c #939393",
"5.	c #545454",
"6.	c #606060",
"7.	c #343434",
"8.	c #5D5D5D",
"9.	c #070707",
"0.	c #A3A3A3",
"a.	c #0F0F0F",
"b.	c #A6A6A6",
"c.	c #8A8A8A",
"d.	c #6B6C6D",
"e.	c #303030",
"f.	c #646464",
"g.	c #9C9C9C",
"h.	c #999999",
"i.	c #858586",
"j.	c #868585",
"k.	c #626363",
"l.	c #545556",
"m.	c #525252",
"n.	c #707170",
"o.	c #3F3F3E",
"p.	c #50504F",
"q.	c #0B0B07",
"r.	c #8C8C8C",
"s.	c #575757",
"t.	c #414141",
"u.	c #565656",
"v.	c #2C2C2C",
"w.	c #8F8F8F",
"x.	c #515151",
"y.	c #3B3B3A",
"z.	c #383837",
"A.	c #3D3D3B",
"B.	c #2D2D2C",
"C.	c #505051",
"D.	c #131313",
"E.	c #A8A8A8",
"F.	c #717275",
"G.	c #8D8E90",
"H.	c #8C8D8D",
"I.	c #949494",
"J.	c #222222",
"K.	c #666768",
"L.	c #909193",
"M.	c #8C8D8E",
"N.	c #979797",
"O.	c #1A1A1A",
"P.	c #5D5D5E",
"Q.	c #595959",
"R.	c #636364",
"S.	c #858688",
"T.	c #949597",
"U.	c #919294",
"V.	c #8F8F90",
"W.	c #090909",
"X.	c #AAAAAB",
"Y.	c #969798",
"Z.	c #98999B",
"`.	c #929393",
" +	c #828383",
".+	c #8D8E8E",
"++	c #939496",
"@+	c #959697",
"#+	c #AAAAAA",
"$+	c #999A9C",
"%+	c #96979A",
"&+	c #9A9A9D",
"*+	c #A2A3A4",
"=+	c #959698",
"-+	c #969697",
";+	c #2D2D2D",
">+	c #9F9FA0",
",+	c #959599",
"'+	c #99999E",
")+	c #9C9CA0",
"!+	c #939396",
"~+	c #9C9D9E",
"{+	c #979798",
"]+	c #ACACAC",
"^+	c #949497",
"/+	c #97979D",
"(+	c #99999F",
"_+	c #9E9EA2",
":+	c #A4A4A4",
"<+	c #080808",
"[+	c #BBBBBB",
"}+	c #9D9D9D",
"|+	c #97989A",
"1+	c #98989C",
"2+	c #9B9BA0",
"3+	c #9F9FA3",
"4+	c #969699",
"5+	c #5E5E5E",
"6+	c #A5A5A5",
"7+	c #9A9A9B",
"8+	c #9B9B9E",
"9+	c #7B7B7C",
"0+	c #2B2B2B",
"a+	c #0D0D0D",
"b+	c #B2B2B2",
"c+	c #9A9A9E",
"d+	c #9D9DA0",
"e+	c #A2A2A3",
"f+	c #9A9A9C",
"g+	c #181818",
"h+	c #1C1C1C",
"i+	c #A0A0A2",
"j+	c #9A9A9A",
"k+	c #8D8D8D",
"l+	c #9C9DA0",
"m+	c #98999C",
"n+	c #0C0C0C",
"o+	c #A1A1A2",
"p+	c #A5A6A8",
"q+	c #9A9B9D",
"r+	c #A0A0A1",
"s+	c #9E9FA1",
"t+	c #9B9C9E",
"u+	c #979899",
"v+	c #535353",
"w+	c #383838",
"x+	c #B9B9B9",
"y+	c #A7A8AA",
"z+	c #9C9D9F",
"A+	c #A4A4A5",
"B+	c #A0A1A3",
"C+	c #9D9EA0",
"D+	c #BCBCBC",
"E+	c #9F9FA1",
"F+	c #A6A6A7",
"G+	c #ADADAD",
"H+	c #A2A2A4",
"I+	c #B6B6B6",
"J+	c #BABABA",
"K+	c #A6A7AA",
"L+	c #767677",
"M+	c #AEAEAE",
"N+	c #A2A3A5",
"O+	c #A5A5A6",
"P+	c #A8A8AA",
"Q+	c #B0B0B0",
"R+	c #A6A6A9",
"S+	c #B7B7B9",
"T+	c #5E5E5F",
"U+	c #787879",
"V+	c #B1B1B1",
"W+	c #A7A7A8",
"X+	c #A2A3A6",
"Y+	c #9D9EA1",
"Z+	c #A8A8AB",
"`+	c #B9B9BC",
" @	c #A7A7A9",
".@	c #0B0B0B",
"+@	c #C4C4C4",
"@@	c #A6A6A8",
"#@	c #A0A0A3",
"$@	c #AAAAAC",
"%@	c #BBBBBE",
"&@	c #AAAAAD",
"*@	c #B4B4B4",
"=@	c #1D1D1D",
"-@	c #B3B3B3",
";@	c #ABABAB",
">@	c #A2A2A5",
",@	c #ABABAE",
"'@	c #BCBCBF",
")@	c #ACACAF",
"!@	c #101010",
"~@	c #B4B4B5",
"{@	c #ADADAE",
"]@	c #A9A9AC",
"^@	c #A2A2A6",
"/@	c #BFBFC2",
"(@	c #AEAEB0",
"_@	c #B7B7B7",
":@	c #B5B5B5",
"<@	c #7F7F80",
"[@	c #AFAFAF",
"}@	c #AFAFB2",
"|@	c #B1B1B2",
"1@	c #B8B8B8",
"2@	c #333333",
"3@	c #2F2F2F",
"4@	c #818182",
"5@	c #B7B7B8",
"6@	c #AEAEB1",
"7@	c #A9A9AB",
"8@	c #B1B1B4",
"9@	c #C1C1C4",
"0@	c #B3B3B4",
"a@	c #BBBBBC",
"b@	c #B6B6B8",
"c@	c #1E1E1E",
"d@	c #B8B8B9",
"e@	c #B3B3B5",
"f@	c #B2B2B5",
"g@	c #C3C3C6",
"h@	c #B4B4B7",
"i@	c #BABABC",
"j@	c #0E0E0E",
"k@	c #848485",
"l@	c #B6B6B9",
"m@	c #ABABAD",
"n@	c #B4B4B6",
"o@	c #BEBEC1",
"p@	c #B5B5B6",
"q@	c #AEAEAF",
"r@	c #C6C6C8",
"s@	c #B9B9BA",
"t@	c #BFBFC0",
"u@	c #BDBDBE",
"v@	c #BABABB",
"w@	c #BDBDBD",
"x@	c #C8C8C8",
"y@	c #C2C2C2",
"z@	c #C0C0C0",
"A@	c #BEBEBE",
"B@	c #212121",
"C@	c #BFBFBF",
"D@	c #CACACA",
"E@	c #C1C1C1",
"F@	c #161616",
"G@	c #171717",
"H@	c #525353",
"I@	c #CFCFCF",
"J@	c #CBCBCB",
"K@	c #C6C6C6",
"L@	c #CDCDCD",
"M@	c #C5C5C5",
"N@	c #D0D0D0",
"O@	c #242424",
"P@	c #9B9B9B",
"Q@	c #262626",
"R@	c #272727",
"S@	c #505150",
"T@	c #1B1B15",
"U@	c #323231",
"V@	c #000803",
"W@	c #383835",
"X@	c #51504F",
"Y@	c #444443",
"Z@	c #525253",
". + @ # # $ % & * = - ; > , ' ) ! ! ! ! ! ~ ~ ! ! ! ! ! ~ { { ~ ~ & ] ^ / # ( , ; _ : < [ } | 1 ",
"2 3 4 # 5 # - 5 @ 6 ] 7 8 > 9 0 a a a a a a a a b a b a 0 c a b 0 + d e f g h _ / , i c j k l m ",
", n o p = - q 5 p , , d r s t u v w v v v v v v x x v v > _ r r @ y $ - z A B h , C D E F G H C ",
"] C n 2 2 2 I J 2 K - L M - | N 2 2 2 2 2 2 2 2 2 2 2 2 O # P Q 3 R 5 S - > s T U * o F V y s W ",
"M s o X M * Y Z @ ` ( S s  .N ............................+.y - @.#.' i ' $.%.C w &.2 *.s s / p ",
"@ + w * 7 @ =.] -.4 ' : . k ..2 2 2 2 2 2 2 2 2 2 2 2 2 2 ;.>.,._ & u $.W S ] W H '.. ).W 4 W r ",
"; < u !.p # p > ] >.s ~.{...N 2 2 2 2 2 2 2 2 2 2 2 2 2 2 ..]._ > ^ ^./.4 = & p C !.T (.r / 7 ] ",
"; + _.:.] @ <.7 @.; $.[.k ..h 2 2 2 2 2 2 2 2 2 2 2 2 2 2 ....}.i t |.Q ~ H P !._ :.B (.p ] r p ",
"; s _.:.7 ] p * :._ 1.N h k 2 2 2 2 2 2 2 2 2 2 2 2 2 2 2 2 ....2.3.4.< 5.S C 6.7 L 7.H M M M r ",
"# , _.!./ M M 8.: ^ N ..k 2 2 2 2 2 2 2 2 2 2 2 2 2 2 2 2 2 ....9.j 0.(.r ) ; d t = ^.s @ M ; @ ",
"* , . :.> $.6.: G O N ..2 ..2 2 2 2 2 2 2 2 2 2 2 2 2 2 ..h ..2 2 a.d b.c.d.R + - >.e.W 5 5 # - ",
"% / +.:.] f.# s e . ].N ..2 2 2 2 2 2 2 2 2 2 2 2 2 2 2 ....2 2 ..2 1.g.h.i.j 5.8 6.3 r * % = * ",
"5 j.u k.* z H ! 1 x . 9.h ..2 2 2 2 2 2 2 2 2 2 2 2 2 2 2 2 2 2 2 2 ..e 0.9 s l.f.C m.] n.5 @ @ ",
"o.p.q.!.6.r.6.s.* t.u.v.h h 2 2 2 2 2 2 2 2 2 2 2 2 2 2 2 2 2 2 2 2 ..{.>.b.w.W x.@ 7 m.v y.z.A.",
"B.}.}.R s 5 C.] w.- e ~ n 2 2 2 2 2 2 2 2 2 2 2 2 2 2 2 2 2 2 2 2 2 2 ..D., E.G 5 ) + L t.v.} B.",
"] 7 !.# 4 ) F.G.H.I.@.t.Q [.2 2 2 2 2 2 2 2 2 2 2 2 2 2 2 2 2 2 2 2 ....2 J.4.b (.6.s.c.S = M p ",
"% z f.H |.K.G.L.M.N.r #.{ O.2 2 2 2 2 2 2 2 2 2 2 2 2 2 2 2 2 2 2 ....2 h D.y b.D _ P.z y Q.t :.",
"% 8.8 S R.S.T.U.V.+ x { }.k 2 2 2 2 2 2 2 2 2 2 2 2 2 2 2 2 2 2 2 2 2 ..W.S X.Y.Z.`. +m.M W ' * ",
"8.d ; ~..+++@+4.c.R 5.+.{.2 2 2 2 2 2 2 2 2 2 2 2 2 2 2 2 2 2 2 2 2 ..h u #+$+%+&+T.Y.$.m._ = f.",
"6.V o $ *+=+-+).E w m.].2 2 2 2 2 2 2 2 2 2 2 2 2 2 2 2 2 2 2 2 2 2 2 ;+b >+,+'+)+!+~+H.s.j 8 ~.",
"f.w.o 5 0.{+h.- +.x.J.....2 2 2 2 2 2 2 2 2 2 2 2 2 2 2 2 2 2 2 2 2 [.G ]+^+/+(+_+T.[ 8 E ' G X ",
"S V ~ $ :+h.).x R #.<+....2 2 2 2 2 2 2 2 2 2 2 2 2 2 2 2 2 2 2 2 2 ^ [+}+|+1+2+3+4+[ c.E 5+r.' ",
"f.V ~ 5 6+7+8+9+^ s.0+h ..2 2 2 2 2 2 2 2 2 2 2 2 2 2 2 2 2 2 2 2 ..a+, b+{+c+d+e+h.b r.Q.j r.5+",
"t V ~ ; E.g.8+f+:.v 8.g+....2 2 2 2 2 2 2 2 2 2 2 2 2 2 2 2 2 2 2 2 ..h+*.E.$+i+6+j+0 k+X 5+k+j ",
"t w.{ 5 E.c l+m+U.' ~.v n+....2 2 2 2 2 2 2 2 2 2 2 2 2 2 2 2 2 2 ......7.E.6+o+p+q+:+r.~.5+r.P ",
"z V x.; #+r+s+t+u+).E v+w+9...2 2 2 ..2 2 2 2 2 2 2 2 2 2 2 2 2 2 ..2 ..N x.x+6+y+z+A+k+~.j k+P ",
"z w.x.$.]+e+B+C+@+b.*.Q ' 0+h ..2 2 2 2 2 2 2 2 2 2 2 2 2 2 2 2 2 2 2 2 ..W.4 D+#+E+F+G ' j k+t ",
"z V x.@ G+:+H+s+$+A+I+M R 8.O ....2 2 2 2 2 2 2 2 2 2 2 2 2 2 2 2 2 h ....2 O.a J+c K+w.8.j k+P ",
"t V m.L+M+6+N+B+$+O+I+:+5+E v+| 2 ..2 2 2 2 2 2 2 2 2 2 2 2 2 2 2 2 ....2 ..2 w+J+3.P+(.P.j k+f.",
":.V m.r Q+b.p+B+t+R+S+E.[ ~.f.2.{...2 2 2 2 2 2 2 2 2 2 2 2 2 2 2 2 2 2 2 2 ..N ' J+]+9 T+6.k+z ",
"z w.v+U+V+E.W+X+Y+Z+`+ @b+*.|.z 0+N ..2 2 2 2 2 2 2 2 2 2 2 2 2 2 2 2 2 2 2 .....@W +@V >.6.r.t ",
"z w.v+> b+3.3.@@#@$@%@&@b+*@4 5.5+h+....2 ..2 2 2 2 2 2 2 2 2 2 2 2 2 2 2 2 2 ..h =@b b 6.6.k+f.",
"* G |.9+-@#+;@P+>@,@'@)@*@-@b+= ' u.!@2 ....2 2 2 2 2 2 2 2 2 2 2 2 2 2 2 2 ......h B :+& j G :.",
"|.w.u./ ~@G+{@]@^@)@/@(@_@I+:@E.u.t t.9.....2 2 2 2 2 2 2 2 2 2 2 2 2 2 2 2 ..h 2 h {.|.i P r.f.",
"s.w.u.<@I+[@Q+)@R+}@/@|@1@1@_@1@I.u.:.2@k ..2 2 2 2 2 2 2 2 2 2 2 2 2 2 2 2 ....2 2 ..a+s.* c.3@",
">.V u.4@5@Q+|@6@7@8@9@0@a@x+x+b@_@i s.% c@2 2 2 2 2 2 2 2 2 2 2 2 2 2 2 2 2 ..2 2 2 2 2 a+u.r.2.",
"j w.s.+ d@|@e@}@]@f@g@h@'@`+i@d@I+-@* :.5.j@2 ..2 2 2 2 2 2 2 2 2 2 2 2 2 2 2 2 2 2 2 ..N #.k+w ",
"j w.E k@x+~@l@8@m@n@g@l@o@%@%@[+5@5@]+t :.Q <+2 2 2 ....2 2 2 2 ..2 2 2 2 2 2 2 2 2 2 h k +.k+Q ",
"j V Q.c.J+I+J+p@q@S+r@s@t@u@u@v@x+1@x+g.|.= m h ......2 2 2 2 2 2 2 2 2 2 2 2 2 2 2 2 N k ( w.u ",
"8.r.>., I+x+w@1@Q+x+x@D+y@z@z@A@D+[+J+J+4 j $ B@h N 2 ............2 2 2 2 2 2 2 2 ..h ..{.v+< ! ",
"P $ W X ).I+C@J+*@J+D@C@+@E@E@C@A@D+w@x+b+$.* S F@;.{.{.;.;.;.;.;.;.;.;.{.;.;.;.;.<+;.N ^.i @.Q.",
"- z # % x & * % @.= 7 = 5 $.M 5 * * $ $.!.t ) M 5.D.j@a.a.j@a.a.!@a.a.a.!@a.a.a.].| n+c@d = r |.",
"; r 8., 6.5.= $.# p < M 7 7 4 7 > p > W - p W :._ Q F@G@g+g+G@g+g+G@G@G@G@G@G@G@g+G@g+* r !.c.H@",
"@ W $ = i t N._@[+C@I@J@K@L@E@D@E@M@M@w@w@I+N@9 5 ] 7.J.J.J.J.J.J.J.B@B@J.J.O@1. .c@E i = d c.) ",
"M 7 > $ @.5 f.L V < g.P@r.6+s 0 , P@V k+9 / 6+d 5+f.|.1.Q@Q@R@R@Q@Q@R@Q@R@} } R@1.o H 8.' I.w.! ",
"] w.+ 7 S $ p S p $.7 > M W ; W 5 7 @ r M ; 7 # $.; C S S S S S S S f.S S S S S f.H $ 5 B@S@G |.",
"T@B.U@m e v+: 0.}+a c a a [ b b 0.b 0 b 0 0 0 0.b :+:+0.0.0.0.0.0.b b b b b b 0 0 > 5 V 7 V@2 2 ",
"W@X@Y@Q ) E E |.|.~.6.X ' 5+s.v+v+v+v+v+v+v+v+5.Z@v+v+m.m.m.m.m.m.u.! v+5+~.v+5+~.L H C ).l ; * "};
