/* XPM */
static char * out4_xpm[] = {
"48 48 179 2",
"  	c None",
". 	c #3E3E3E",
"+ 	c #838383",
"@ 	c #757575",
"# 	c #717171",
"$ 	c #6F6F6F",
"% 	c #6D6D6D",
"& 	c #727272",
"* 	c #747474",
"= 	c #787878",
"- 	c #7E7E7E",
"; 	c #878787",
"> 	c #626262",
", 	c #545454",
"' 	c #565656",
") 	c #555555",
"! 	c #6E6E6E",
"~ 	c #808080",
"{ 	c #414141",
"] 	c #767676",
"^ 	c #3B3C3B",
"/ 	c #858585",
"( 	c #848484",
"_ 	c #888888",
": 	c #9F9F9F",
"< 	c #282828",
"[ 	c #111111",
"} 	c #313131",
"| 	c #000000",
"1 	c #424242",
"2 	c #737373",
"3 	c #767675",
"4 	c #777777",
"5 	c #7B7B7B",
"6 	c #7C7C7C",
"7 	c #8C8C8C",
"8 	c #797979",
"9 	c #909090",
"0 	c #A1A1A1",
"a 	c #9E9E9E",
"b 	c #828282",
"c 	c #7D7D7D",
"d 	c #434343",
"e 	c #070704",
"f 	c #050502",
"g 	c #020201",
"h 	c #7F7F7F",
"i 	c #5F5F5F",
"j 	c #040404",
"k 	c #373737",
"l 	c #353535",
"m 	c #191919",
"n 	c #4C4C4C",
"o 	c #727273",
"p 	c #7F807F",
"q 	c #818181",
"r 	c #676767",
"s 	c #4E4E4E",
"t 	c #4F4F4F",
"u 	c #666666",
"v 	c #696968",
"w 	c #393939",
"x 	c #010101",
"y 	c #7F7F80",
"z 	c #868686",
"A 	c #989898",
"B 	c #585858",
"C 	c #1F1F1F",
"D 	c #8E8E8E",
"E 	c #898989",
"F 	c #7A7A7A",
"G 	c #010203",
"H 	c #0B0C0E",
"I 	c #030303",
"J 	c #212121",
"K 	c #6A6A6A",
"L 	c #787979",
"M 	c #808181",
"N 	c #3B3B3B",
"O 	c #5B5B5B",
"P 	c #70706F",
"Q 	c #606061",
"R 	c #383838",
"S 	c #050505",
"T 	c #020202",
"U 	c #5E5E5E",
"V 	c #7A7B7B",
"W 	c #494948",
"X 	c #0A0500",
"Y 	c #969696",
"Z 	c #484848",
"` 	c #7A7978",
" .	c #060606",
"..	c #5A5A5A",
"+.	c #5F5E5C",
"@.	c #959595",
"#.	c #474747",
"$.	c #777877",
"%.	c #575757",
"&.	c #080808",
"*.	c #0F0F0F",
"=.	c #707070",
"-.	c #6B6B6A",
";.	c #919191",
">.	c #404040",
",.	c #686868",
"'.	c #131313",
").	c #222222",
"!.	c #656565",
"~.	c #3C3C3C",
"{.	c #616161",
"].	c #6B6C6C",
"^.	c #333333",
"/.	c #606060",
"(.	c #646464",
"_.	c #6B6B6B",
":.	c #323232",
"<.	c #0E0E0E",
"[.	c #626263",
"}.	c #3D3D3D",
"|.	c #535353",
"1.	c #6F7070",
"2.	c #020404",
"3.	c #525252",
"4.	c #494949",
"5.	c #3A3B3B",
"6.	c #2C2C2C",
"7.	c #282929",
"8.	c #272727",
"9.	c #4B4B4B",
"0.	c #0A0A0A",
"a.	c #3A3A3A",
"b.	c #595959",
"c.	c #090909",
"d.	c #8B8B8B",
"e.	c #1C1C1C",
"f.	c #8A8A8A",
"g.	c #1B1B1B",
"h.	c #8D8D8D",
"i.	c #636363",
"j.	c #5C5C5C",
"k.	c #1A1A1A",
"l.	c #2D2D2D",
"m.	c #444444",
"n.	c #454545",
"o.	c #464646",
"p.	c #2E2E2E",
"q.	c #070707",
"r.	c #151515",
"s.	c #343434",
"t.	c #0B0B0B",
"u.	c #0D0D0D",
"v.	c #202020",
"w.	c #101010",
"x.	c #121212",
"y.	c #141414",
"z.	c #161616",
"A.	c #171717",
"B.	c #181818",
"C.	c #6C6C6C",
"D.	c #1E1E1E",
"E.	c #232323",
"F.	c #242424",
"G.	c #4D4D4D",
"H.	c #252525",
"I.	c #262626",
"J.	c #5D5D5D",
"K.	c #949494",
"L.	c #8F8F8F",
"M.	c #191B1B",
"N.	c #505150",
"O.	c #313232",
"P.	c #3F3F3F",
"Q.	c #A0A0A0",
"R.	c #A2A2A2",
"S.	c #4F4E4E",
"T.	c #434342",
"U.	c #454544",
"V.	c #4A4A49",
". + @ # # $ % % & & * = - ; > , ' ) ) ) ) ' ) ) ' ' ) ) ) ) ' ) ) ! ~ { + ] ^ / = ( _ ( : < [ } ",
"| 1 ~ # & # $ 2 3 4 5 6 7 8 9 0 a : : : : : : : : : : : : : : : : b c d e f g + h ~ / a i j k l ",
"h m n 4 % $ # o 4 h p c = q r s t t t t t t t t t t t t t t t t s ] 8 2 u v w x y z A B C D E z ",
"F z m | | | | | G H $ % 4 % [ I | | | | | | | | | | | | | | | | | J + K $ L M N | ! n C 9 _ q 6 ",
"] q n O ] ! P # @ Q R u h J S T x x x x x x x x x x x x x x x T T | N / U 2 V z W X | Y q q - 4 ",
"@ + Z ! 5 @ ` F - ~ U ; w I x I | | | | | | | | | | | | | | | I T T  ...- > 8 6 E +.. @.6 ~ 6 = ",
"2 ( #.K 4 # $.F 8 > ~ %.&.j I | | | | | | | | | | | | | | | | | | x T *.@ =.r 4 z -.N ;.= - 5 F ",
"2 + >.r F @ F 5 ,.* $ '.S x | | | | | | | | | | | | | | | | | | | | x I ).+ !.,.b r w ;.4 F = 4 ",
"2 q >.r 5 F = ! ,.q ).j x | | | | | | | | | | | | | | | | | | | | | I T T ~.; {.F ].^.E ] ] ] = ",
"# h >.K - 4 * /./ N S x I | | | | | | | | | | | | | | | | | | | | | | T T S ..6 (._.:.q @ ] 2 @ ",
"! h . r F * {.q ) &.j | x x x | | | | | | | | | | | | | | | | | | | x | I x <.* =./.:.6 & & # $ ",
"_.- ~.r F (.2 =.'.I I j | x | | | | | | | | | | | | | | | | | | | | x | T x | J ( (.{ 8 ! _.% ! ",
"& / #.[.! r ~ ). .x T | | | | | | | | | | | | | | | | | | | | | | | | | | I x x }./ |.8 1.& @ @ ",
". t 2.K /./ N j T I | | | | | | | | | | | | | | | | | | | | | | | | | | | | | I j B 6 3.4.5.k N ",
"6.7.8.9.q ) 0.S T x | | | | | | | | | | | | | | | | | | | | | | | | | | | | | T T *.# ! 1 6.< 6.",
"V F ,.& $ '.j x | | | | | | | | | | | | | | | | | | | | | | | | | | | | | | | j I x ).( (.K ] 4 ",
"_.!.r q J T x j x | | | | | | | | | | | | | | | | | | | | | | | | | | | | | | x T S T ~.z O (.,.",
"_.i z a. .x | | | | | | | | | | | | | | | | | | | | | | | | | | | | | | | | | | | I I  .b.- O % ",
"U 6 ) c.j I | | | | | | | | | | | | | | | | | | | | | | | | | | | | | | | | | | | | | I [ # ! (.",
"{.d.e.j x T | | | | | | | | | | | | | | | | | | | | | | | | | | | | | | | | | | | | x x T . d...",
"(.f.g.j I | | | | | | | | | | | | | | | | | | | | | | | | | | | | | | | | | | | | | | T T N h.O ",
"i.d.e.T x x | | | | | | | | | | | | | | | | | | | | | | | | | | | | | | | | | | | | | | | ~.h.j.",
"(.f.g.T x | | | | | | | | | | | | | | | | | | | | | | | | | | | | | | | | | | | | | | | | ~.7 U ",
"!.f.g.T | | | | | | | | | | | | | | | | | | | | | | | | | | | | | | | | | | | | | | | | | ~.7 U ",
"!.f.g.T | | | | | | | | | | | | | | | | | | | | | | | | | | | | | | | | | | | | | | | | | ~.7 {.",
"u f.g.T | | | | | | | | | | | | | | | | | | | | | | | | | | | | | | | | | | | | | | | | | ~.h.{.",
"u f.g.T | | | | | | | | | | | | | | | | | | | | | | | | | | | | | | | | | | | | | | | | | ~.h.!.",
"u f.g.T | | | | | | | | | | | | | | | | | | | | | | | | | | | | | | | | | | | | | | | | | N h.> ",
"!.f.g.T | | | | | | | | | | | | | | | | | | | | | | | | | | | | | | | | | | | | | | | | | N h.(.",
"r f.g.T | | | | | | | | | | | | | | | | | | | | | | | | | | | | | | | | | | | | | | | | | N h.!.",
"u f.e.T | | | | | | | | | | | | | | | | | | | | | | | | | | | | | | | | | | | | | | | | | N h.!.",
"u f.k.T | | | | | | | | | | | | | | | | | | | | | | | | | | | | | | | | | | | | | | | | | N h.(.",
"! E k.T | | | | | | | | | | | | | | | | | | | | | | | | | | | | | | | | | | | | | | | | | N h.r ",
") E g.T | | | | | | | | | | | | | | | | | | | | | | | | | | | | | | | | | | | | | | | | | N 7 i.",
"%.f.g.T | | | | | | | | | | | | | | | | | | | | | | | | | | | | | | | | | | | | | | | | | N d.l.",
"{.f.g.T | | | | | | | | | | | | | | | | | | | | | | | | | | | | | | | | | | | | | | | | | ~.7 m.",
"i d.g.j | | | | | | | | | | | | | | | | | | | | | | | | | | | | | | | | | | | | | | | | I ~.h.Z ",
"/.d.g.j | | | | | | | | | | | | | | | | | | | | | | | | | | | | | | | | | | | | | | | x | ~.h.n.",
"/.7 m j T | | | | | | | | | | | | | | | | | | | | | | | | | | | | | | | | | | | | | | T | a.D o.",
"U E p.I x T | | | | | | | | | | | | | | | | | | | | | | | | | | | | | | | | | | | x x I q., + t ",
"i.$ = r.I I x T T T I I j S S S  . . . . . . . . . . . . . . . . . . . . . . . . .S S S s.( ,.b.",
"$ !.c {.q.I  . .q.&.0.t.u.<.<.*.*.*.*.*.*.*.*.*.*.*.*.*.*.*.*.*.*.*.*.*.*.*.*.*.*.[ <.v.h % F ) ",
"2 4 /./ n.q.t.<.u.w.x.y.z.A.B.B.B.B.B.B.B.B.B.B.B.B.B.B.B.B.B.B.B.m m m B.B.B.B.m g.k.=.= C.f.3.",
"@ 5 # =.z 6.w.r.B.e.D.J ).E.F.E.E.F.F.F.F.F.F.F.F.F.F.F.F.F.F.F.F.F.F.F.F.E.E.F.E.C O + =.- f.G.",
"] 5 @ $ =.5 J r.g.D.).H.8.< < < 8.8.8.8.8.8.8.8.8.8.8.8.8.8.8.8.< 8.I.I.I.8.8.8.H.9.f.J.j.K.L.t ",
"F L.+ 6 r 5 @ b.i > !.u r r r r r r r r r r r r r r r r r r r r r r r r r r r r ,.E =.2 M.N.D ) ",
"r.6.O.} P.%.E 0 Q.Q.0 Q.Q.Q.Q.0 0 0 0 0 0 0 0 0 0 0 0 0 0 0 0 0 Q.Q.Q.Q.Q.Q.Q.R.0 = * 9 5 | | | ",
"l S.T.U.V.b..., ) , , |.|., , , , , , , , , , , , , , , , , , , , |.|.|.|., , , , _.E / K.k & % "};
