/* XPM */
static char * r_p_xpm[] = {
"48 48 91 1",
" 	c #000000",
".	c #480000",
"+	c #6F0000",
"@	c #3A0000",
"#	c #780000",
"$	c #440000",
"%	c #410000",
"&	c #870000",
"*	c #DBB3B1",
"=	c #EACCC7",
"-	c #EEBCB1",
";	c #680000",
">	c #370000",
",	c #5D0000",
"'	c #D6B1AF",
")	c #F4DCDB",
"!	c #FBFBFB",
"~	c #7B0000",
"{	c #330000",
"]	c #EACAC7",
"^	c #FAD2C7",
"/	c #F4DCDC",
"(	c #D6B1B1",
"_	c #7D0000",
":	c #DBF1FB",
"<	c #C5E4FB",
"[	c #C7E4FB",
"}	c #CCDFFB",
"|	c #DFD0EE",
"1	c #D0DCFB",
"2	c #DFD2F0",
"3	c #C1CAFB",
"4	c #5F0000",
"5	c #006FFB",
"6	c #0024FB",
"7	c #0028FB",
"8	c #0008FB",
"9	c #00005F",
"0	c #0000FB",
"a	c #4A0062",
"b	c #200000",
"c	c #0054FB",
"d	c #001BFB",
"e	c #0000EE",
"f	c #0013FB",
"g	c #1300DC",
"h	c #0000B1",
"i	c #280000",
"j	c #E1CCDB",
"k	c #C7E5FB",
"l	c #B6D0FB",
"m	c #0800C7",
"n	c #660000",
"o	c #EE0000",
"p	c #6D0000",
"q	c #BCA1C7",
"r	c #004AFB",
"s	c #0072FB",
"t	c #E5CAC7",
"u	c #A60000",
"v	c #FB0000",
"w	c #FB9EB1",
"x	c #F602DB",
"y	c #0048FB",
"z	c #AFD5FB",
"A	c #E1DFFB",
"B	c #FBCADB",
"C	c #FBC7C5",
"D	c #FBB1B1",
"E	c #760000",
"F	c #FBB6C5",
"G	c #D0D0FB",
"H	c #0051FB",
"I	c #0020FB",
"J	c #FBB8DB",
"K	c #E7CAC7",
"L	c #DCF4FB",
"M	c #E4CACA",
"N	c #720000",
"O	c #F4DBDB",
"P	c #E5C5C5",
"Q	c #570000",
"R	c #F10000",
"S	c #930000",
"T	c #D5AFAF",
"U	c #93332F",
"V	c #E5C7C7",
"W	c #E7CACA",
"X	c #D9B3B3",
"Y	c #510000",
"Z	c #960000",
"                                                ",
". + . @ @ @ @ @ . + . @ @ @ @ @ . + . @ @ @ @ @ ",
"                                                ",
"@ @ @ @ @ . + . @ @ @ @ @ . + . @ @ @ @ @ . + . ",
"                                                ",
"@ @ @ @ @ . + . @ @ @ @ @ . + . @ @ @ @ @ . + . ",
"                                                ",
"# . . + . @ @ . + $ $ + $ @ @ . + . . + . @ @ @ ",
"                                                ",
"# . . + . @ @ % & * = - ; > @ . + . . + . @ @ @ ",
"                                                ",
"@ @ @ @ @ > , ' ) ! ! ! ~ { @ @ @ @ @ @ @ @ @ @ ",
"                                                ",
"@ @ @ @ $ & ] ! ! ! ! ! ) ' , { @ @ @ @ . + . @ ",
"                                                ",
". + . > ; ^ ! ! ! ! ! ! ! ! / ( ; + . @ . + . @ ",
"                                                ",
". + . > _ ! ! ! : < [ } | 1 2 3 4 + . @ @ @ @ @ ",
"                                                ",
"@ @ @ > _ ! ! ! 5 6 7 8 9 0 a 0 b @ @ @ @ . + . ",
"                                                ",
"@ @ @ > _ ! ! ! [ c 6 d e f g h i @ @ @ @ . + . ",
"                                                ",
"# . . + ; ' j } k [ [ [ k l m n o p $ + . @ @ @ ",
"                                                ",
"# . . + $ , q r s ! ! ! ! ! t u v v + p . @ @ @ ",
"                                                ",
"@ @ @ > p v w x y z k A B C D v v v v p > @ @ @ ",
"                                                ",
"@ @ @ > E v v F G H I y J C D v v v v p $ + . @ ",
"                                                ",
". + . @ $ & K ! ! L [ : ! ! M u v v N > . + . @ ",
"                                                ",
". + . @ > _ ! ! O P ) ! ! P Q p R S $ @ @ @ @ @ ",
"                                                ",
"@ @ @ @ > _ ! ! / T U ! ! / ( 4 { @ @ @ @ . + . ",
"                                                ",
"@ @ @ @ > 4 ( V W ( _ ' V W X 4 > @ @ @ @ . + . ",
"                                                ",
"# . . + . @ > $ p $ $ + $ > > $ + . . + . @ @ @ ",
"                                                ",
"# . . + . @ @ . + . . + . @ @ . + . . + . @ @ @ ",
"                                                ",
"@ @ @ @ @ @ @ @ @ @ @ @ @ @ @ @ @ @ @ @ @ @ @ @ ",
"                                                ",
"@ @ @ @ . + . @ @ @ @ @ . + . @ @ @ @ @ . + . @ ",
"                                                ",
"@ @ @ @ Y Z Y @ @ @ @ @ Y Z Y @ @ @ @ @ Y Z Y @ "};
