/* XPM */
static char * r_p_xpm[] = {
"48 48 93 2",
"  	c #000000",
". 	c #6E0000",
"+ 	c #8E0000",
"@ 	c #630000",
"# 	c #950000",
"$ 	c #6B0000",
"% 	c #680000",
"& 	c #A10000",
"* 	c #E5C5C3",
"= 	c #F1D9D5",
"- 	c #F4CCC3",
"; 	c #880000",
"> 	c #600000",
", 	c #7F0000",
"' 	c #E1C3C1",
") 	c #F9E6E5",
"! 	c #FFFFFF",
"~ 	c #970000",
"{ 	c #5D0000",
"] 	c #F1D7D5",
"^ 	c #FEDED5",
"/ 	c #F9E6E6",
"( 	c #E1C3C3",
"_ 	c #990000",
": 	c #E5F7FF",
"< 	c #D3ECFF",
"[ 	c #D5ECFF",
"} 	c #D9E8FF",
"| 	c #E8DCF4",
"1 	c #DCE6FF",
"2 	c #E8DEF6",
"3 	c #D0D7FF",
"4 	c #810000",
"5 	c #008EFF",
"6 	c #0051FF",
"7 	c #0054FF",
"8 	c #003AFF",
"9 	c #240081",
"0 	c #0011FF",
"a 	c #700083",
"b 	c #001CFF",
"c 	c #4E0000",
"d 	c #0078FF",
"e 	c #004AFF",
"f 	c #0000F4",
"g 	c #0043FF",
"h 	c #4311E6",
"i 	c #0000C3",
"j 	c #540000",
"k 	c #EAD9E5",
"l 	c #D5EDFF",
"m 	c #C7DCFF",
"n 	c #3A24D5",
"o 	c #860000",
"p 	c #F40000",
"q 	c #8C0000",
"r 	c #CCB6D5",
"s 	c #0070FF",
"t 	c #0090FF",
"u 	c #EDD7D5",
"v 	c #BA0000",
"w 	c #FF0000",
"x 	c #FFB4C3",
"y 	c #FB35E5",
"z 	c #2B6EFF",
"A 	c #C1E0FF",
"B 	c #EAE8FF",
"C 	c #FFD7E5",
"D 	c #FFD5D3",
"E 	c #FFC3C3",
"F 	c #930000",
"G 	c #FFC7D3",
"H 	c #DCDCFF",
"I 	c #0075FF",
"J 	c #004EFF",
"K 	c #306EFF",
"L 	c #FFC9E5",
"M 	c #EFD7D5",
"N 	c #E6F9FF",
"O 	c #ECD7D7",
"P 	c #900000",
"Q 	c #F9E5E5",
"R 	c #EDD3D3",
"S 	c #7A0000",
"T 	c #F70000",
"U 	c #AB0000",
"V 	c #E0C1C1",
"W 	c #AB5D5A",
"X 	c #EDD5D5",
"Y 	c #EFD7D7",
"Z 	c #E3C5C5",
"` 	c #750000",
" .	c #AD0000",
"                                                                                                ",
".   +   .   @   @   @   @   @   .   +   .   @   @   @   @   @   .   +   .   @   @   @   @   @   ",
"                                                                                                ",
"@   @   @   @   @   .   +   .   @   @   @   @   @   .   +   .   @   @   @   @   @   .   +   .   ",
"                                                                                                ",
"@   @   @   @   @   .   +   .   @   @   @   @   @   .   +   .   @   @   @   @   @   .   +   .   ",
"                                                                                                ",
"#   .   .   +   .   @   @   .   +   $   $   +   $   @   @   .   +   .   .   +   .   @   @   @   ",
"                                                                                                ",
"#   .   .   +   .   @   @   %   &   *   =   -   ;   >   @   .   +   .   .   +   .   @   @   @   ",
"                                                                                                ",
"@   @   @   @   @   >   ,   '   )   !   !   !   ~   {   @   @   @   @   @   @   @   @   @   @   ",
"                                                                                                ",
"@   @   @   @   $   &   ]   !   !   !   !   !   )   '   ,   {   @   @   @   @   .   +   .   @   ",
"                                                                                                ",
".   +   .   >   ;   ^   !   !   !   !   !   !   !   !   /   (   ;   +   .   @   .   +   .   @   ",
"                                                                                                ",
".   +   .   >   _   !   !   !   :   <   [   }   |   1   2   3   4   +   .   @   @   @   @   @   ",
"                                                                                                ",
"@   @   @   >   _   !   !   !   5   6   7   8   9   0   a   b   c   @   @   @   @   .   +   .   ",
"                                                                                                ",
"@   @   @   >   _   !   !   !   [   d   6   e   f   g   h   i   j   @   @   @   @   .   +   .   ",
"                                                                                                ",
"#   .   .   +   ;   '   k   }   l   [   [   [   l   m   n   o   p   q   $   +   .   @   @   @   ",
"                                                                                                ",
"#   .   .   +   $   ,   r   s   t   !   !   !   !   !   u   v   w   w   +   q   .   @   @   @   ",
"                                                                                                ",
"@   @   @   >   q   w   x   y   z   A   l   B   C   D   E   w   w   w   w   q   >   @   @   @   ",
"                                                                                                ",
"@   @   @   >   F   w   w   G   H   I   J   K   L   D   E   w   w   w   w   q   $   +   .   @   ",
"                                                                                                ",
".   +   .   @   $   &   M   !   !   N   [   :   !   !   O   v   w   w   P   >   .   +   .   @   ",
"                                                                                                ",
".   +   .   @   >   _   !   !   Q   R   )   !   !   R   S   q   T   U   $   @   @   @   @   @   ",
"                                                                                                ",
"@   @   @   @   >   _   !   !   /   V   W   !   !   /   (   4   {   @   @   @   @   .   +   .   ",
"                                                                                                ",
"@   @   @   @   >   4   (   X   Y   (   _   '   X   Y   Z   4   >   @   @   @   @   .   +   .   ",
"                                                                                                ",
"#   .   .   +   .   @   >   $   q   $   $   +   $   >   >   $   +   .   .   +   .   @   @   @   ",
"                                                                                                ",
"#   .   .   +   .   @   @   .   +   .   .   +   .   @   @   .   +   .   .   +   .   @   @   @   ",
"                                                                                                ",
"@   @   @   @   @   @   @   @   @   @   @   @   @   @   @   @   @   @   @   @   @   @   @   @   ",
"                                                                                                ",
"@   @   @   @   .   +   .   @   @   @   @   @   .   +   .   @   @   @   @   @   .   +   .   @   ",
"                                                                                                ",
"@   @   @   @   `    .  `   @   @   @   @   @   `    .  `   @   @   @   @   @   `    .  `   @   "};
