/* XPM */
static char * r_w2_xpm[] = {
"48 48 80 1",
" 	c #000000",
".	c #111111",
"+	c #D0D0D0",
"@	c #090909",
"#	c #353535",
"$	c #262626",
"%	c #0B0B0B",
"&	c #060606",
"*	c #121212",
"=	c #1A1A1A",
"-	c #080808",
";	c #878787",
">	c #C7C7C7",
",	c #101010",
"'	c #222222",
")	c #323232",
"!	c #050505",
"~	c #CD9F00",
"{	c #191919",
"]	c #242424",
"^	c #0A0A0A",
"/	c #7B7B7B",
"(	c #EA9983",
"_	c #010101",
":	c #070707",
"<	c #8A7C00",
"[	c #1F1F1F",
"}	c #313131",
"|	c #161616",
"1	c #5E3B00",
"2	c #151515",
"3	c #818181",
"4	c #0C0C0C",
"5	c #212121",
"6	c #858585",
"7	c #1E1E1E",
"8	c #141414",
"9	c #EFEFEF",
"0	c #DACA00",
"a	c #E0E0E0",
"b	c #3D3D3D",
"c	c #181818",
"d	c #FFFFFF",
"e	c #F9F1A9",
"f	c #383838",
"g	c #2C2C2C",
"h	c #AC8600",
"i	c #AB4C00",
"j	c #0F0F0F",
"k	c #292929",
"l	c #0D0D0D",
"m	c #A929F6",
"n	c #E4E4E4",
"o	c #D7BCCB",
"p	c #ADB6FF",
"q	c #C443A7",
"r	c #A3006E",
"s	c #797979",
"t	c #AEAEAE",
"u	c #640051",
"v	c #921FAF",
"w	c #343434",
"x	c #B129F1",
"y	c #252525",
"z	c #A80080",
"A	c #FCCEFA",
"B	c #E900D1",
"C	c #040404",
"D	c #2E2E2E",
"E	c #5A5A5A",
"F	c #020202",
"G	c #29C300",
"H	c #264D0A",
"I	c #030303",
"J	c #1B1B1B",
"K	c #131313",
"L	c #515151",
"M	c #565656",
"N	c #0E0E0E",
"O	c #434343",
"                    .+.                         ",
"                    @#@                         ",
"                     $                          ",
"                     %                     &*&  ",
"=-                                         %;%  ",
">,                                         &'&  ",
")-                       !,! ~~             {   ",
"]                        ^/^~((~  ___       :   ",
"^             <<<<<<<    ![~(~<<< %}%           ",
"            <<(((((((<<<<<|<~~1   2<<<          ",
"          _<((~~~~~~<(~<<<<<~~<<  <~~<<         ",
"          <~~~~((111111<<<31<<<<<<(~<           ",
" !*!      1<~~(11441<1<<<3<<~(((~~<<       ^5^  ",
" %6%      <~~(144414<1<<<<~~((~~~~~~<@7@   898  ",
" !5!      <~(1 44144<1<<<~0~~~~~~~~~~<a*   ^b^  ",
"  c      <~(1  41444<1<<<0d0~~~~0ee0~<f@    g   ",
"  :      <(1   14444<1<<~hed0~i00jj0e<k     l   ",
"         <~1     4444<1<~hed0i00jjjh0h4         ",
"         11       444<11~00dii0emnjjoo          ",
"                  4444<1<0ee0ji0pdnoddq         ",
"                   4441<<<e0eejjhjqddddq        ",
"                   44<<((~<heeqjjjrooddq        ",
"                   <<<((~~<heeqnstnrqoor        ",
"           1111   <~<~(~~<1h0eqndstrqqqr        ",
"         11   111u~~<~~~<1<1hedqnndnrrr.        ",
"        1~1     1uv<~~~<1<<1h0eeqoooq-w-        ",
"         1      uvx1~(~~<1<<1h0eeede0 y         ",
"                uvx1<~(~zzz<<1hhh0eeh %         ",
"                u<<11<~zABzmmmzzzzhh      C%C   ",
"                <~(~11zABzpppAABABDDD     :E:   ",
"               F1~(~11zBzpAAAAAADDBDBD    C|C   ",
"               1<(~<1vzBzAppABDzAADDzBD    ,    ",
"            GG1~~~<1uvDzDBAAAAADDzBDDDD    C    ",
"           Gdd1<<11uuuvDDzBBADzAADDDzDD         ",
"           GddH11H1<uuuuuDDzBADDzDBDDD          ",
" F&F       GddGHHG1<11uuuuuDDBADDDDDD           ",
" CDC       GddG3HdG1         DD DDD             ",
" F%F  _C_  HGdG3HGdH !*!                        ",
"  -   I7I   HGdG HHGH%6%                        ",
"  F   _-_    HHH @HHGH5!                        ",
"       !         CJCHHc                         ",
"       _          K   :                     _I_ ",
"                  !                        I4cF ",
"                                           :L%_ ",
"                                   C%C     I2&  ",
"%]%                                :M:      N_  ",
"|d|                                C2C      C   ",
"%O%                 ClC             ,           "};
