/* XPM */
static char * r_w3_xpm[] = {
"48 48 78 1",
" 	c #000000",
".	c #111111",
"+	c #D0D0D0",
"@	c #090909",
"#	c #353535",
"$	c #262626",
"%	c #0B0B0B",
"&	c #060606",
"*	c #121212",
"=	c #1A1A1A",
"-	c #080808",
";	c #878787",
">	c #C7C7C7",
",	c #101010",
"'	c #8A7C00",
")	c #222222",
"!	c #323232",
"~	c #5E3B00",
"{	c #CD9F00",
"]	c #050505",
"^	c #191919",
"/	c #242424",
"(	c #7B7B7B",
"_	c #0A0A0A",
":	c #EA9983",
"<	c #010101",
"[	c #070707",
"}	c #0C0C0C",
"|	c #313131",
"1	c #151515",
"2	c #0D0D0D",
"3	c #030303",
"4	c #212121",
"5	c #858585",
"6	c #020202",
"7	c #1E1E1E",
"8	c #141414",
"9	c #EFEFEF",
"0	c #DACA00",
"a	c #E0E0E0",
"b	c #3D3D3D",
"c	c #181818",
"d	c #FFFFFF",
"e	c #F9F1A9",
"f	c #383838",
"g	c #2C2C2C",
"h	c #AC8600",
"i	c #AB4C00",
"j	c #0F0F0F",
"k	c #292929",
"l	c #A929F6",
"m	c #E4E4E4",
"n	c #D7BCCB",
"o	c #ADB6FF",
"p	c #C443A7",
"q	c #A3006E",
"r	c #AEAEAE",
"s	c #797979",
"t	c #640051",
"u	c #921FAF",
"v	c #343434",
"w	c #B129F1",
"x	c #252525",
"y	c #A80080",
"z	c #040404",
"A	c #FCCEFA",
"B	c #5A5A5A",
"C	c #E900D1",
"D	c #2E2E2E",
"E	c #161616",
"F	c #29C300",
"G	c #264D0A",
"H	c #818181",
"I	c #131313",
"J	c #515151",
"K	c #565656",
"L	c #0E0E0E",
"M	c #434343",
"                    .+.                         ",
"                    @#@                         ",
"                     $                          ",
"                     %                     &*&  ",
"=-                                         %;%  ",
">,         ''''''    ''                    &)&  ",
"!-          ~{{{{''''''' ],] {{             ^   ",
"/            ~~~~{{{''''''(_{::{  <<<       [   ",
"_             }}}~~~{{:''''{:{''' %|%           ",
"               }}}}}~~{{''''{{~   1'''          ",
"          <<<  }}}~~~~~':{''{{''  '{{''         ",
"          <2< }~~~}}}~~'~~'~'''''':{'           ",
" ]*]      <3<~~}}}}}~}'~''''{:::{{''       _4_  ",
" %5%       6  }}}}}~}}'~''{{::{{{{{{'@7@   898  ",
" ]4]           }}}~}}'~''{0{{{{{{{{{{'a*   _b_  ",
"  c             }~}}}'~''0d0{{{{0ee0{'f@    g   ",
"  [             ~}}}}'~'{hed0{i00jj0e'k     2   ",
"               ~}}}}}'~'{hed0i00jjjh0h}         ",
"                }}}}}'~'{00dii0elmjjnn          ",
"                 }}}}'~~'0ee0ii0odmnddp         ",
"          ~       }}}'~~'he0ejjj0jpddddp        ",
"         ~{~~     }}}'''''hheepjjjqnnddp        ",
"          ~  ~~    ''{'::{'heepmjrmqpnnq        ",
"               ~  '{{'::{{'h0epmdsrqpppq        ",
"                ~t{{'{:{{'~~hedpmmdmqqq.        ",
"                ~tu{'{{{'~'~h0eepnnnp-v-        ",
"                tuw'{{{'~'''~h0eeede0 x         ",
"                tuw~{:{{'~'''~hhh0eeh %         ",
"                tuu~'{:{yyy'~~~~~hhh      z%z   ",
"                t''~~'{yAAyllyrs          [B[   ",
"               6'{:{~~yACyooACyyyDDDD     zEz   ",
"               ]~{:{~~yCyoAAAAACAyDCCD     ,    ",
"               ~':{'~uyCyAooAACADDyDyCD    z    ",
"            FF~{{{'~ttDyDCAAAADyAAyDDDD         ",
"           Fdd~''~~~tttDDyCAAAADDyCDyDD         ",
" 6&6       FddG~~G~''~tttDDCADyACDyDDD          ",
" zDz       FddFGGF~'~~     DyADDCDDDD           ",
" 6%6  <z<  FddFHGdF~ ]*]    DyCDDDD             ",
"  -   373  GFdFHGFdG %5%     DyD                ",
"  6   <-<   GFdF GGFG]4]                        ",
"       ]     GGG zGGFGc                         ",
"       <          I GG[                     <3< ",
"                  ]                        3}c6 ",
"                                           [J%< ",
"                                   z%z     31&  ",
"%/%                                [K[      L<  ",
"EdE                                z1z      z   ",
"%M%                 z2z             ,           "};
