/* XPM */
static char * r_w4_xpm[] = {
"48 48 78 1",
" 	c #000000",
".	c #111111",
"+	c #D0D0D0",
"@	c #090909",
"#	c #353535",
"$	c #262626",
"%	c #0B0B0B",
"&	c #060606",
"*	c #121212",
"=	c #1A1A1A",
"-	c #080808",
";	c #878787",
">	c #C7C7C7",
",	c #101010",
"'	c #CD9F00",
")	c #222222",
"!	c #323232",
"~	c #050505",
"{	c #EA9983",
"]	c #191919",
"^	c #242424",
"/	c #8A7C00",
"(	c #0A0A0A",
"_	c #7B7B7B",
":	c #010101",
"<	c #070707",
"[	c #5E3B00",
"}	c #1F1F1F",
"|	c #0C0C0C",
"1	c #0D0D0D",
"2	c #030303",
"3	c #212121",
"4	c #858585",
"5	c #020202",
"6	c #DACA00",
"7	c #1E1E1E",
"8	c #141414",
"9	c #EFEFEF",
"0	c #FFFFFF",
"a	c #F9F1A9",
"b	c #E0E0E0",
"c	c #3D3D3D",
"d	c #181818",
"e	c #AC8600",
"f	c #AB4C00",
"g	c #0F0F0F",
"h	c #383838",
"i	c #2C2C2C",
"j	c #292929",
"k	c #A929F6",
"l	c #E4E4E4",
"m	c #D7BCCB",
"n	c #ADB6FF",
"o	c #C443A7",
"p	c #A3006E",
"q	c #AEAEAE",
"r	c #797979",
"s	c #640051",
"t	c #921FAF",
"u	c #CDCDCD",
"v	c #B129F1",
"w	c #343434",
"x	c #252525",
"y	c #A80080",
"z	c #040404",
"A	c #FCCEFA",
"B	c #E900D1",
"C	c #5A5A5A",
"D	c #161616",
"E	c #2E2E2E",
"F	c #29C300",
"G	c #264D0A",
"H	c #131313",
"I	c #515151",
"J	c #151515",
"K	c #565656",
"L	c #0E0E0E",
"M	c #434343",
"                    .+.                         ",
"                    @#@                         ",
"                     $                          ",
"                     %                     &*&  ",
"=-                                         %;%  ",
">,                           ''            &)&  ",
"!-                       ~,~'{{'            ]   ",
"^         ////////    // (_'{'/// :::       <   ",
"(        [''''''''/// ////}/''[   %///          ",
"          [[[[[[['{{{///////''//  /''//         ",
"          :||||||[[['{'////[//////{'/           ",
"          :1:||||||[[[[{'///'{{{''//            ",
" ~*~      :2[[[[[[[[[[[[[/''{{''''''/      (3(  ",
" %4%       5  |||||||[[//'6''''''''''/7@   898  ",
" ~3~            ||[[[/[//606''''6aa6'/b*   (c(  ",
"  d            [[[|||/[/'ea06'f66gg6a/h@    i   ",
"  <              ||||/[/'ea06f66ggge6ej     1   ",
"                  |||/[/'660ff6aklggmm|         ",
"                   |||/[[6aa6ff6n0lm00o         ",
"         [         |||[[[ea6aaggego0000o        ",
"        ['[         |///[/eeagggggpmm00o        ",
"         [         ////////eaaoqrqlpommp        ",
"          [[      /'''/{{'/e6aol0rqpooop        ",
"            [[   s'''/{{''/[ea0oll0lppp-        ",
"              [[[st'/'{''/[[e6aaommmo.u.        ",
"                stvt/'''/[//[e6aaa0a6-w-        ",
"                stv/'''/[////[eee6aae x         ",
"                stt['{''/[//[[[[[eee  %         ",
"                sst[/'{'yyy[[qqr          z%z   ",
"                s//[[/'yABykksrs          <C<   ",
"               5/'{'[[yABynAAyyyy         zDz   ",
"               ~['{'[[yAynAnAAAABEEE       ,    ",
"               [/{'/[syBynAAAAABEBEEE      z    ",
"            FF['''/[ssEyEBnAAAyABEBEBE          ",
"           F00[//[[[[/sEEyBAAABEABEEyyE         ",
" 5&5       F00G[[G[//[[  EEBAEABEAEEEyE         ",
" zEz      F00FG GF[/[[     EyAEAEEyEEE          ",
" 5%5  :z: F00F  G0F[ ~*~    yAEBEEEEE           ",
"  -   272 GF0F  GF0G %4%    EBEE EE             ",
"  5   :-:  GF0F  GFFG~3~                        ",
"       ~    GGG  zGFG d                         ",
"       :          HGG <                     :2: ",
"                  ~                        2|d5 ",
"                                           <I%: ",
"                                   z%z     2J&  ",
"%^%                                <K<      L:  ",
"D0D                                zJz      z   ",
"%M%                 z1z             ,           "};
