/* XPM */
static char * r_w1_xpm[] = {
"48 48 79 1",
" 	c #000000",
".	c #111111",
"+	c #D0D0D0",
"@	c #090909",
"#	c #353535",
"$	c #262626",
"%	c #0B0B0B",
"&	c #060606",
"*	c #121212",
"=	c #1A1A1A",
"-	c #080808",
";	c #878787",
">	c #C7C7C7",
",	c #101010",
"'	c #222222",
")	c #323232",
"!	c #050505",
"~	c #CD9F00",
"{	c #191919",
"]	c #242424",
"^	c #0A0A0A",
"/	c #7B7B7B",
"(	c #EA9983",
"_	c #010101",
":	c #070707",
"<	c #1F1F1F",
"[	c #8A7C00",
"}	c #313131",
"|	c #161616",
"1	c #5E3B00",
"2	c #151515",
"3	c #0D0D0D",
"4	c #030303",
"5	c #212121",
"6	c #858585",
"7	c #1E1E1E",
"8	c #141414",
"9	c #EFEFEF",
"0	c #DACA00",
"a	c #E0E0E0",
"b	c #3D3D3D",
"c	c #181818",
"d	c #FFFFFF",
"e	c #F9F1A9",
"f	c #383838",
"g	c #2C2C2C",
"h	c #0C0C0C",
"i	c #AC8600",
"j	c #AB4C00",
"k	c #0F0F0F",
"l	c #292929",
"m	c #A929F6",
"n	c #E4E4E4",
"o	c #D7BCCB",
"p	c #ADB6FF",
"q	c #C443A7",
"r	c #A3006E",
"s	c #797979",
"t	c #AEAEAE",
"u	c #640051",
"v	c #921FAF",
"w	c #343434",
"x	c #B129F1",
"y	c #252525",
"z	c #A80080",
"A	c #FCCEFA",
"B	c #E900D1",
"C	c #040404",
"D	c #2E2E2E",
"E	c #5A5A5A",
"F	c #020202",
"G	c #29C300",
"H	c #264D0A",
"I	c #1B1B1B",
"J	c #131313",
"K	c #515151",
"L	c #565656",
"M	c #0E0E0E",
"N	c #434343",
"                    .+.                         ",
"                    @#@                         ",
"                     $                          ",
"                     %                     &*&  ",
"=-                                         %;%  ",
">,                                         &'&  ",
")-                       !,! ~~             {   ",
"]                        ^/^~((~  ___       :   ",
"^                        !<~(~[[[ %}%           ",
"                          |[~~1   2[[[          ",
"          ___             &[~~[[  [~~[[         ",
"          _3_              1[[[[[[(~[           ",
" !*!      _4_[[[[[[[[  [[[[[~(((~~[[       ^5^  ",
" %6%       [[(((((((([[[[[~~((~~~~~~[@7@   898  ",
" !5!      [((~~~~~~~[(~[[~0~~~~~~~~~~[a*   ^b^  ",
"  c       1[~~~((111111[[0d0~~~~0ee0~[f@    g   ",
"  :        [~~(11h11[1[[~ied0~j00kk0e[l     3   ",
"          [~~(1hh1hh[1[[~ied0j00kkki0ih         ",
"          [~(1 h1hhh[1[[~00djj0emnkkoo          ",
"         [~(1  1hhhhh[11[0ee0kj0pdnoddq         ",
"         [~1      hhhh1[[[e0eekkikqddddq        ",
"         11        hh[[((~[ieeqkkkrooddq        ",
"                   [[[((~~[ieeqnstnrqoor        ",
"                  [[[~(~~[1i0eqndstrqqqr        ",
"                 u~~[~~~[1[1iedqnndnrrr.        ",
"              111uv[~~~[1[[1i0eeqoooq-w-        ",
"            11  uvx1~(~~[1[[1i0eeede0 y         ",
"          11    uvx1[~(~zzz[[1iii0eei %         ",
"         1      u[[11[~zABzmmmzzzzii      C%C   ",
"        1~1     [~(~11zABzpppAABABD       :E:   ",
"         1     F1~(~11zBzpAAAAAADDBD      C|C   ",
"               1[(~[1vzBzAppABDzAADDD      ,    ",
"            GG1~~~[1uvDzDBAAAAADDzBDBD     C    ",
"           Gdd1[[11uuuvDDzBBADzAADDDzzD         ",
"           GddH11H1[uuuuuDDzBADDzDzDDzD         ",
" F&F      GddGH%HG1[11uuuuuDDBADDzzDDD          ",
" CDC      GddG  HdG1         DDDDDDDD           ",
" F%F  _C_ HGdG  HGdH !*!         DD             ",
"  -   474  HGdG  HGGH%6%                        ",
"  F   _-_   HHH  @HGH!5!                        ",
"       !         CIHH c                         ",
"       _          J   :                     _4_ ",
"                  !                        4hcF ",
"                                           :K%_ ",
"                                   C%C     42&  ",
"%]%                                :L:      M_  ",
"|d|                                C2C      C   ",
"%N%                 C3C             ,           "};
