/* XPM */
static char * r_w5_xpm[] = {
"48 48 77 1",
" 	c #000000",
".	c #111111",
"+	c #D0D0D0",
"@	c #090909",
"#	c #353535",
"$	c #262626",
"%	c #0B0B0B",
"&	c #060606",
"*	c #121212",
"=	c #1A1A1A",
"-	c #080808",
";	c #878787",
">	c #C7C7C7",
",	c #101010",
"'	c #CD9F00",
")	c #222222",
"!	c #323232",
"~	c #050505",
"{	c #EA9983",
"]	c #191919",
"^	c #242424",
"/	c #0A0A0A",
"(	c #7B7B7B",
"_	c #8A7C00",
":	c #010101",
"<	c #070707",
"[	c #1F1F1F",
"}	c #5E3B00",
"|	c #161616",
"1	c #212121",
"2	c #858585",
"3	c #DACA00",
"4	c #1E1E1E",
"5	c #141414",
"6	c #EFEFEF",
"7	c #0C0C0C",
"8	c #FFFFFF",
"9	c #F9F1A9",
"0	c #E0E0E0",
"a	c #3D3D3D",
"b	c #181818",
"c	c #AC8600",
"d	c #AB4C00",
"e	c #0F0F0F",
"f	c #383838",
"g	c #2C2C2C",
"h	c #292929",
"i	c #0D0D0D",
"j	c #A929F6",
"k	c #E4E4E4",
"l	c #D7BCCB",
"m	c #ADB6FF",
"n	c #C443A7",
"o	c #A3006E",
"p	c #AEAEAE",
"q	c #797979",
"r	c #640051",
"s	c #921FAF",
"t	c #CDCDCD",
"u	c #B129F1",
"v	c #343434",
"w	c #252525",
"x	c #A80080",
"y	c #040404",
"z	c #FCCEFA",
"A	c #E900D1",
"B	c #5A5A5A",
"C	c #020202",
"D	c #2E2E2E",
"E	c #29C300",
"F	c #264D0A",
"G	c #030303",
"H	c #515151",
"I	c #151515",
"J	c #565656",
"K	c #0E0E0E",
"L	c #434343",
"                    .+.                         ",
"                    @#@                         ",
"                     $                          ",
"                     %                     &*&  ",
"=-                                         %;%  ",
">,                           ''            &)&  ",
"!-                       ~,~'{{'            ]   ",
"^                        /('{'___ :::       <   ",
"/                        ~[_''}   %___          ",
"                          |_''__  _''__         ",
"          :::             &}______{'_           ",
"         _____    __      __'{{{''__            ",
" ~*~    _'''''________   _''{{''''''_      /1/  ",
" %2%     }}}}}''''_______'3''''''''''_4@   565  ",
" ~1~      7777}}}}''_____383''''3993'_0*   /a/  ",
"  b         77777}}}_{'_'c983'd33ee39_f@    g   ",
"  <        }}}}}}77}}}}_'c983d33eeec3ch     i   ",
"             7777}}77}__'338dd39jkeell7         ",
"               7}77777}}_3993dd3m8kl88n         ",
"              }}7777777}_c9399ee3en8888n        ",
"                 777777_}_cc9eeeeeoll88n        ",
"                   77______c99npepkonllo        ",
"         }        _____{{'_c39nk8qponnno        ",
"        }'}     }r'___{{''_}c98nkk8kooo-        ",
"         }}   }}}rs'_'{''_}}c399nllln.t.        ",
"           }}}} rsus_'''_}__}c3999893-v-        ",
"                rsu_'''_}____}ccc399c w         ",
"                rss}'{''_}__}}}}}ccc  %         ",
"                rrs}_'{'xxx}}ppq          y%y   ",
"                r__}}_'xzAxjjrqr          <B<   ",
"               C_'{'}}xzAxmzzxxxx         y|y   ",
"               ~}'{'}}xzxmzmzzzzAD         ,    ",
"               }_{'_}rxAxmzzzzzADADD       y    ",
"            EE}'''_}rrDxDAmzzzxzADAD            ",
"           E88}__}}}}_rDDxAzzzADzADDD           ",
" C&C       E88F}}F}__}}  DDAzDzADzDDAD          ",
" yDy      E88EF FE}_}}    DDxzDzDDDDxD          ",
" C%C  :y: E88E  F8E} ~*~    xzDADAxDxD          ",
"  -   G4G FE8E  F88F %2%    DADDDDDDDD          ",
"  C   :-: FE88E  FEFF~1~        DDDD            ",
"       ~   FFF   FFEF b                         ",
"       :          FF  <                     :G: ",
"                  ~                        G7bC ",
"                                           <H%: ",
"                                   y%y     GI&  ",
"%^%                                <J<      K:  ",
"|8|                                yIy      y   ",
"%L%                 yiy             ,           "};
