/* XPM */
static char * r_w6_xpm[] = {
"48 48 77 1",
" 	c #000000",
".	c #111111",
"+	c #D0D0D0",
"@	c #090909",
"#	c #353535",
"$	c #262626",
"%	c #0B0B0B",
"&	c #060606",
"*	c #121212",
"=	c #1A1A1A",
"-	c #080808",
";	c #878787",
">	c #C7C7C7",
",	c #101010",
"'	c #CD9F00",
")	c #222222",
"!	c #323232",
"~	c #050505",
"{	c #EA9983",
"]	c #191919",
"^	c #242424",
"/	c #0A0A0A",
"(	c #7B7B7B",
"_	c #8A7C00",
":	c #010101",
"<	c #070707",
"[	c #1F1F1F",
"}	c #5E3B00",
"|	c #161616",
"1	c #0D0D0D",
"2	c #030303",
"3	c #212121",
"4	c #858585",
"5	c #020202",
"6	c #DACA00",
"7	c #1E1E1E",
"8	c #141414",
"9	c #EFEFEF",
"0	c #FFFFFF",
"a	c #F9F1A9",
"b	c #E0E0E0",
"c	c #3D3D3D",
"d	c #181818",
"e	c #AC8600",
"f	c #AB4C00",
"g	c #0F0F0F",
"h	c #383838",
"i	c #2C2C2C",
"j	c #292929",
"k	c #A929F6",
"l	c #E4E4E4",
"m	c #D7BCCB",
"n	c #0C0C0C",
"o	c #ADB6FF",
"p	c #C443A7",
"q	c #A3006E",
"r	c #AEAEAE",
"s	c #797979",
"t	c #640051",
"u	c #CDCDCD",
"v	c #343434",
"w	c #252525",
"x	c #921FAF",
"y	c #A80080",
"z	c #FCCEFA",
"A	c #040404",
"B	c #E900D1",
"C	c #5A5A5A",
"D	c #2E2E2E",
"E	c #29C300",
"F	c #264D0A",
"G	c #131313",
"H	c #515151",
"I	c #151515",
"J	c #565656",
"K	c #0E0E0E",
"L	c #434343",
"                    .+.                         ",
"                    @#@                         ",
"                     $                          ",
"                     %                     &*&  ",
"=-                                         %;%  ",
">,                           ''            &)&  ",
"!-                       ~,~'{{'            ]   ",
"^                        /('{'___ :::       <   ",
"/                        ~[_''}   %___          ",
"                          |_''__  _''__         ",
"          :::             &}______{'_           ",
"          :1:             __'{{{''__            ",
" ~*~      :2:            _''{{''''''_      /3/  ",
" %4%       5            _'6''''''''''_7@   898  ",
" ~3~                    _606''''6aa6'_b*   /c/  ",
"  d              _______'ea06'f66gg6a_h@    i   ",
"  <           ___{{{'{'_'ea06f66ggge6ej     1   ",
"            __{{{'''}}}_'660ff6aklggmmn         ",
"           _{{'''''{}n}}_6aa6ff6o0lm00p         ",
"            __''''{}nnn}_ea6aggg6gp0000p        ",
"             _'''{}nn}}___eeaapgggqmm00p        ",
"            _''{{}n}}}_{{'_eaaplgrlqpmmq        ",
"          __'{{}}n}}__{{''_e6apl0srqpppq        ",
"         _{{{}} }t___'{''_}}ea0pll0lqqq-        ",
"          }}}   }tt__'''_}_}e6aapmmmp.u.        ",
"               }ttt_'''_}___}e6aaa0a6-v-        ",
"          }  }} ttt}'{''_}___}eee6aae w         ",
"         }'}}   txx}_'{'yyy_}}}}}eee  %         ",
"          }     t__}}_'yzzykkyrs          A%A   ",
"                _'{'}}yzByoozByyy         <C<   ",
"               5}'{'}}yByozzzzzBzyD       A|A   ",
"               }_{'_}xyByzoozzBzDDyD       ,    ",
"            EE}'''_}ttDyDBzzzzDyzzyD       A    ",
"           E00}__}}}tttDDyBzzzzDDyBDD           ",
"           E00F}}F}__}tttDDBzDyzBDyDBD          ",
" 5&5      E00EF%FE}_}}    DDyzDDBDDDyD          ",
" ADA      E00E  F0E}        DyBDDByDyD          ",
" 5%5  :A: FE0E  F00F ~*~     DyDDDDDDD          ",
"  -   272 FE00E  FEFF%4%        DDDD            ",
"  5   :-:  FFF   FFEF~3~                        ",
"       ~         AFF  d                         ",
"       :          G   <                     :2: ",
"                  ~                        2nd5 ",
"                                           <H%: ",
"                                   A%A     2I&  ",
"%^%                                <J<      K:  ",
"|0|                                AIA      A   ",
"%L%                 A1A             ,           "};
