/* XPM */
static char * rock_xpm[] = {
"48 48 148 2",
"  	c #121212",
". 	c #FD3D00",
"+ 	c #FF6100",
"@ 	c #F93100",
"# 	c #F92F00",
"$ 	c #FF6700",
"% 	c #FE3D00",
"& 	c #FA3100",
"* 	c #CA3D00",
"= 	c #B92A00",
"- 	c #F23100",
"; 	c #B92B00",
"> 	c #80614D",
", 	c #F2D6BD",
"' 	c #F4D8BE",
") 	c #82634E",
"! 	c #B92D00",
"~ 	c #C42F00",
"{ 	c #F43100",
"] 	c #EC2D00",
"^ 	c #91624D",
"/ 	c #FFE4CA",
"( 	c #FFFFFF",
"_ 	c #FFE5CA",
": 	c #6F624D",
"< 	c #6D2D00",
"[ 	c #EC3100",
"} 	c #FF5F00",
"| 	c #9A6A4F",
"1 	c #E2C8B0",
"2 	c #906B53",
"3 	c #B13100",
"4 	c #AE2900",
"5 	c #A0826E",
"6 	c #FFFFF9",
"7 	c #FFEACE",
"8 	c #846A52",
"9 	c #3A2F00",
"0 	c #593100",
"a 	c #BC3100",
"b 	c #B82700",
"c 	c #A1846E",
"d 	c #FFFFF1",
"e 	c #AC8E75",
"f 	c #553B0C",
"g 	c #73634E",
"h 	c #FFFFFA",
"i 	c #B9947A",
"j 	c #714D25",
"k 	c #45360A",
"l 	c #363100",
"m 	c #6E3100",
"n 	c #EA2D00",
"o 	c #91634E",
"p 	c #F5D6BE",
"q 	c #FEDCC1",
"r 	c #907156",
"s 	c #7A664F",
"t 	c #FCDAC0",
"u 	c #927357",
"v 	c #5B4119",
"w 	c #3F3206",
"x 	c #312A00",
"y 	c #552A00",
"z 	c #BA2F00",
"A 	c #EA2A00",
"B 	c #AE846F",
"C 	c #CEA990",
"D 	c #EECDB2",
"E 	c #856D55",
"F 	c #463508",
"G 	c #6B4B22",
"H 	c #724F26",
"I 	c #725129",
"J 	c #75654E",
"K 	c #F4D6BD",
"L 	c #BA2D00",
"M 	c #C03A00",
"N 	c #84634F",
"O 	c #EACCB1",
"P 	c #98775B",
"Q 	c #825736",
"R 	c #654722",
"S 	c #654723",
"T 	c #865B3B",
"U 	c #79552F",
"V 	c #72512A",
"W 	c #593F16",
"X 	c #99856F",
"Y 	c #FFE6CC",
"Z 	c #7E6952",
"` 	c #6F3102",
" .	c #EA3100",
"..	c #E6C9B1",
"+.	c #A17A61",
"@.	c #7E5633",
"#.	c #996649",
"$.	c #805936",
"%.	c #8E6141",
"&.	c #9C694B",
"*.	c #7D5632",
"=.	c #5A411A",
"-.	c #766651",
";.	c #77654F",
">.	c #664921",
",.	c #75360C",
"'.	c #E92900",
").	c #B9957B",
"!.	c #6A4923",
"~.	c #8C5F3E",
"{.	c #8C5F3F",
"].	c #75522B",
"^.	c #6F4F29",
"/.	c #45360C",
"(.	c #332B00",
"_.	c #674B25",
":.	c #FFFFF0",
"<.	c #453306",
"[.	c #5D431D",
"}.	c #3F3306",
"|.	c #3A3100",
"1.	c #533F17",
"2.	c #713306",
"3.	c #F03D00",
"4.	c #95664F",
"5.	c #ECCCB2",
"6.	c #917359",
"7.	c #423302",
"8.	c #59421A",
"9.	c #61461F",
"0.	c #413306",
"a.	c #553F17",
"b.	c #5D3306",
"c.	c #BA3100",
"d.	c #F63D00",
"e.	c #713304",
"f.	c #553E16",
"g.	c #594119",
"h.	c #373100",
"i.	c #393100",
"j.	c #563F17",
"k.	c #723306",
"l.	c #563100",
"m.	c #353100",
"n.	c #A53100",
"o.	c #C53100",
"p.	c #FF4700",
"q.	c #FF7E00",
"                                                                                                ",
".   +   .   @   @   @   @   @   .   +   .   @   @   @   @   @   .   +   .   @   @   @   @   @   ",
"                                                                                                ",
"@   @   @   @   @   .   +   .   @   @   @   @   @   .   +   .   @   @   @   @   @   .   +   .   ",
"                                                                                                ",
"#   @   @   @   @   .   +   .   #   @   @   @   @   .   +   .   #   @   @   @   @   .   +   .   ",
"                                                                                                ",
"$   .   .   +   .   @   #   .   +   .   .   +   %   &   #   %   +   .   .   +   .   @   @   @   ",
"                                                                                                ",
"$   .   .   +   .   @   @   .   +   .   .   +   *   =   =   *   +   .   .   +   .   @   @   @   ",
"                                                                                                ",
"#   @   @   @   @   @   @   &   &   @   -   ;   >   ,   '   )   !   -   @   @   @   @   @   @   ",
"                                                                                                ",
"@   @   @   @   .   +   *   ;   ~   {   ]   ^   /   (   _   :   <   [   &   @   .   +   .   @   ",
"                                                                                                ",
".   +   .   @   %   }   |   1   2   3   4   5   6   7   8   9   0   a   -   @   .   +   .   @   ",
"                                                                                                ",
".   +   .   @   -   b   c   d   e   f   g   _   h   i   j   k   l   m   [   &   @   @   @   @   ",
"                                                                                                ",
"@   @   @   &   n   o   p   7   q   r   s   t   t   u   v   w   x   y   z   -   @   .   +   .   ",
"                                                                                                ",
"#   @   @   &   A   B   d   C   D   E   F   G   H   I   v   J   K   '   )   L   -   .   +   .   ",
"                                                                                                ",
"$   .   .   +   M   N   O   P   Q   R   S   T   U   V   W   X   6   Y   Z   `    .  &   @   @   ",
"                                                                                                ",
"$   .   .   }   |   ..  +.  @.  #.  $.  %.  &.  *.  V   =.  -.  1   ;.  >.  ,.   .  &   @   @   ",
"                                                                                                ",
"#   @   &   '.  B   d   ).  !.  T   *.  ~.  {.  U   ].  ^.  /.  (.  /.  _.  ,.   .  @   @   @   ",
"                                                                                                ",
"@   @   &   A   B   :.  e   <.  [.  V   ].  ].  ].  V   [.  }.  |.  }.  1.  2.  3.  +   .   @   ",
"                                                                                                ",
".   +   %   n   4.  5.  6.  7.  }.  8.  [.  9.  ^.  [.  }.  |.  0.  a.  b.  c.  d.  +   .   @   ",
"                                                                                                ",
".   +   %    .  e.  f.  g.  0.  |.  h.  i.  }.  j.  }.  |.  |.  0.  1.  k.  [   &   @   @   @   ",
"                                                                                                ",
"@   @   @   -   c.  l.  m.  m.  0   n.  0   m.  l   h.  h.  h.  m.  l.  c.  -   @   .   +   .   ",
"                                                                                                ",
"#   @   @   @   -   o.  c.  c.  o.  [   o.  c.  c.  c.  c.  c.  c.  o.  -   @   @   .   +   .   ",
"                                                                                                ",
"$   .   .   +   .   @   @   .   +   .   .   +   .   @   @   .   +   .   .   +   .   @   @   @   ",
"                                                                                                ",
"$   .   .   +   .   @   @   .   +   .   .   +   .   @   @   .   +   .   .   +   .   @   @   @   ",
"                                                                                                ",
"#   @   @   @   @   @   @   @   @   @   @   @   @   @   @   @   @   @   @   @   @   @   @   @   ",
"                                                                                                ",
"@   @   @   @   .   +   .   @   @   @   @   @   .   +   .   @   @   @   @   @   .   +   .   @   ",
"                                                                                                ",
"@   @   @   #   p.  q.  p.  #   @   @   @   #   p.  q.  p.  #   @   @   @   #   p.  q.  p.  #   "};
