/* XPM */
static char * rock_xpm[] = {
"48 48 132 2",
"  	c #000000",
". 	c #F90B00",
"+ 	c #FB3800",
"@ 	c #F40000",
"# 	c #FB3F00",
"$ 	c #FA0B00",
"% 	c #F50000",
"& 	c #BA0B00",
"* 	c #A50000",
"= 	c #EB0000",
"- 	c #5E381F",
"; 	c #EBC8AA",
"> 	c #EECBAB",
", 	c #613A20",
"' 	c #B20000",
") 	c #EE0000",
"! 	c #E40000",
"~ 	c #73391F",
"{ 	c #FBDABA",
"] 	c #FBFBFB",
"^ 	c #FBDBBA",
"/ 	c #49391F",
"( 	c #470000",
"_ 	c #FB3500",
": 	c #7E4322",
"< 	c #D7B79A",
"[ 	c #724427",
"} 	c #9B0000",
"| 	c #970000",
"1 	c #866148",
"2 	c #FBFBF4",
"3 	c #FBE1BF",
"4 	c #634325",
"5 	c #080000",
"6 	c #2E0000",
"7 	c #A80000",
"8 	c #A30000",
"9 	c #876348",
"0 	c #FBFBEA",
"a 	c #956F51",
"b 	c #290900",
"c 	c #4E3A20",
"d 	c #FBFBF5",
"e 	c #A57757",
"f 	c #4C1F00",
"g 	c #150300",
"h 	c #030000",
"i 	c #480000",
"j 	c #E10000",
"k 	c #733A20",
"l 	c #EFC8AB",
"m 	c #FAD0AF",
"n 	c #724C2A",
"o 	c #573E22",
"p 	c #F7CDAD",
"q 	c #744E2C",
"r 	c #301000",
"s 	c #0E0000",
"t 	c #290000",
"u 	c #A60000",
"v 	c #976349",
"w 	c #BF9172",
"x 	c #E6BD9C",
"y 	c #644729",
"z 	c #170200",
"A 	c #441D00",
"B 	c #4D2200",
"C 	c #4D2400",
"D 	c #513D20",
"E 	c #EEC8AA",
"F 	c #AD0800",
"G 	c #633A22",
"H 	c #E1BC9B",
"I 	c #7C5330",
"J 	c #612C03",
"K 	c #3D1800",
"L 	c #663009",
"M 	c #562900",
"N 	c #2E0E00",
"O 	c #7D6449",
"P 	c #FBDCBC",
"Q 	c #5C4225",
"R 	c #490000",
"S 	c #DCB89B",
"T 	c #875738",
"U 	c #5C2A00",
"V 	c #7D3E1A",
"W 	c #5E2E03",
"X 	c #6F3810",
"Y 	c #81421D",
"Z 	c #5A2A00",
"` 	c #2F1000",
" .	c #523E24",
"..	c #533D22",
"+.	c #3E1A00",
"@.	c #510300",
"#.	c #E00000",
"$.	c #A57858",
"%.	c #431A00",
"&.	c #6D350D",
"*.	c #6D350E",
"=.	c #512500",
"-.	c #492200",
";.	c #3F1D00",
">.	c #FBFBE9",
",.	c #150000",
"'.	c #331300",
").	c #270E00",
"!.	c #4C0000",
"~.	c #E90B00",
"{.	c #783E22",
"].	c #E4BC9C",
"^.	c #734E2E",
"/.	c #120000",
"(.	c #2E1200",
"_.	c #381700",
":.	c #100000",
"<.	c #290E00",
"[.	c #330000",
"}.	c #F00B00",
"|.	c #290D00",
"1.	c #2E1000",
"2.	c #040000",
"3.	c #060000",
"4.	c #2A0E00",
"5.	c #4D0000",
"6.	c #2A0000",
"7.	c #020000",
"8.	c #8C0000",
"9.	c #B30000",
"0.	c #FB1800",
"a.	c #FB5C00",
"                                                                                                ",
".   +   .   @   @   @   @   @   .   +   .   @   @   @   @   @   .   +   .   @   @   @   @   @   ",
"                                                                                                ",
"@   @   @   @   @   .   +   .   @   @   @   @   @   .   +   .   @   @   @   @   @   .   +   .   ",
"                                                                                                ",
"@   @   @   @   @   .   +   .   @   @   @   @   @   .   +   .   @   @   @   @   @   .   +   .   ",
"                                                                                                ",
"#   .   .   +   .   @   @   .   +   .   .   +   $   %   @   $   +   .   .   +   .   @   @   @   ",
"                                                                                                ",
"#   .   .   +   .   @   @   .   +   .   .   +   &   *   *   &   +   .   .   +   .   @   @   @   ",
"                                                                                                ",
"@   @   @   @   @   @   @   %   %   @   =   *   -   ;   >   ,   *   =   @   @   @   @   @   @   ",
"                                                                                                ",
"@   @   @   @   .   +   &   *   '   )   !   ~   {   ]   ^   /   (   !   %   @   .   +   .   @   ",
"                                                                                                ",
".   +   .   @   $   _   :   <   [   }   |   1   2   3   4   5   6   7   =   @   .   +   .   @   ",
"                                                                                                ",
".   +   .   @   =   8   9   0   a   b   c   ^   d   e   f   g   h   i   !   %   @   @   @   @   ",
"                                                                                                ",
"@   @   @   %   j   k   l   3   m   n   o   p   p   q   r   s       t   u   =   @   .   +   .   ",
"                                                                                                ",
"@   @   @   %   j   v   0   w   x   y   z   A   B   C   r   D   E   >   ,   u   =   .   +   .   ",
"                                                                                                ",
"#   .   .   +   F   G   H   I   J   K   K   L   M   C   N   O   2   P   Q   R   j   %   @   @   ",
"                                                                                                ",
"#   .   .   _   :   S   T   U   V   W   X   Y   Z   C   `    .  <   ..  +.  @.  j   %   @   @   ",
"                                                                                                ",
"@   @   %   #.  v   0   $.  %.  L   Z   &.  *.  M   =.  -.  g       g   ;.  @.  j   @   @   @   ",
"                                                                                                ",
"@   @   %   j   v   >.  a   ,.  '.  C   =.  =.  =.  C   '.  s   5   s   ).  !.  ~.  +   .   @   ",
"                                                                                                ",
".   +   $   j   {.  ].  ^.  /.  s   (.  '.  _.  -.  '.  s   5   :.  <.  [.  u   }.  +   .   @   ",
"                                                                                                ",
".   +   $   j   !.  |.  1.  :.  5   2.  3.  s   4.  s   5   5   :.  ).  5.  !   %   @   @   @   ",
"                                                                                                ",
"@   @   @   =   u   6.  7.  7.  6   8.  6   7.  h   2.  2.  2.  7.  6.  u   =   @   .   +   .   ",
"                                                                                                ",
"@   @   @   @   =   9.  u   u   9.  !   9.  u   u   u   u   u   u   9.  =   @   @   .   +   .   ",
"                                                                                                ",
"#   .   .   +   .   @   @   .   +   .   .   +   .   @   @   .   +   .   .   +   .   @   @   @   ",
"                                                                                                ",
"#   .   .   +   .   @   @   .   +   .   .   +   .   @   @   .   +   .   .   +   .   @   @   @   ",
"                                                                                                ",
"@   @   @   @   @   @   @   @   @   @   @   @   @   @   @   @   @   @   @   @   @   @   @   @   ",
"                                                                                                ",
"@   @   @   @   .   +   .   @   @   @   @   @   .   +   .   @   @   @   @   @   .   +   .   @   ",
"                                                                                                ",
"@   @   @   @   0.  a.  0.  @   @   @   @   @   0.  a.  0.  @   @   @   @   @   0.  a.  0.  @   "};
