/* XPM */
static char * sky_xpm[] = {
"48 48 2 1",
" 	c #0058FB",
".	c #000000",
" . . . . . . . . . . . . . . . . . . . . . . . .",
"................................................",
" . . . . . . . . . . . . . . . . . . . . . . . .",
"................................................",
" . . . . . . . . . . . . . . . . . . . . . . . .",
"................................................",
" . . . . . . . . . . . . . . . . . . . . . . . .",
"................................................",
" . . . . . . . . . . . . . . . . . . . . . . . .",
"................................................",
" . . . . . . . . . . . . . . . . . . . . . . . .",
"................................................",
" . . . . . . . . . . . . . . . . . . . . . . . .",
"................................................",
" . . . . . . . . . . . . . . . . . . . . . . . .",
"................................................",
" . . . . . . . . . . . . . . . . . . . . . . . .",
"................................................",
" . . . . . . . . . . . . . . . . . . . . . . . .",
"................................................",
" . . . . . . . . . . . . . . . . . . . . . . . .",
"................................................",
" . . . . . . . . . . . . . . . . . . . . . . . .",
"................................................",
" . . . . . . . . . . . . . . . . . . . . . . . .",
"................................................",
" . . . . . . . . . . . . . . . . . . . . . . . .",
"................................................",
" . . . . . . . . . . . . . . . . . . . . . . . .",
"................................................",
" . . . . . . . . . . . . . . . . . . . . . . . .",
"................................................",
" . . . . . . . . . . . . . . . . . . . . . . . .",
"................................................",
" . . . . . . . . . . . . . . . . . . . . . . . .",
"................................................",
" . . . . . . . . . . . . . . . . . . . . . . . .",
"................................................",
" . . . . . . . . . . . . . . . . . . . . . . . .",
"................................................",
" . . . . . . . . . . . . . . . . . . . . . . . .",
"................................................",
" . . . . . . . . . . . . . . . . . . . . . . . .",
"................................................",
" . . . . . . . . . . . . . . . . . . . . . . . .",
"................................................",
" . . . . . . . . . . . . . . . . . . . . . . . .",
"................................................"};
