/* XPM */
static char * sky_xpm[] = {
"48 48 2 1",
" 	c #007BFF",
".	c #343434",
" . . . . . . . . . . . . . . . . . . . . . . . .",
"................................................",
" . . . . . . . . . . . . . . . . . . . . . . . .",
"................................................",
" . . . . . . . . . . . . . . . . . . . . . . . .",
"................................................",
" . . . . . . . . . . . . . . . . . . . . . . . .",
"................................................",
" . . . . . . . . . . . . . . . . . . . . . . . .",
"................................................",
" . . . . . . . . . . . . . . . . . . . . . . . .",
"................................................",
" . . . . . . . . . . . . . . . . . . . . . . . .",
"................................................",
" . . . . . . . . . . . . . . . . . . . . . . . .",
"................................................",
" . . . . . . . . . . . . . . . . . . . . . . . .",
"................................................",
" . . . . . . . . . . . . . . . . . . . . . . . .",
"................................................",
" . . . . . . . . . . . . . . . . . . . . . . . .",
"................................................",
" . . . . . . . . . . . . . . . . . . . . . . . .",
"................................................",
" . . . . . . . . . . . . . . . . . . . . . . . .",
"................................................",
" . . . . . . . . . . . . . . . . . . . . . . . .",
"................................................",
" . . . . . . . . . . . . . . . . . . . . . . . .",
"................................................",
" . . . . . . . . . . . . . . . . . . . . . . . .",
"................................................",
" . . . . . . . . . . . . . . . . . . . . . . . .",
"................................................",
" . . . . . . . . . . . . . . . . . . . . . . . .",
"................................................",
" . . . . . . . . . . . . . . . . . . . . . . . .",
"................................................",
" . . . . . . . . . . . . . . . . . . . . . . . .",
"................................................",
" . . . . . . . . . . . . . . . . . . . . . . . .",
"................................................",
" . . . . . . . . . . . . . . . . . . . . . . . .",
"................................................",
" . . . . . . . . . . . . . . . . . . . . . . . .",
"................................................",
" . . . . . . . . . . . . . . . . . . . . . . . .",
"................................................"};
