/* XPM */
static char * start_xpm[] = {
"48 48 82 1",
" 	c #000000",
".	c #F90B00",
"+	c #FB3800",
"@	c #F40000",
"#	c #FB3F00",
"$	c #F9352A",
"%	c #FBC6C2",
"&	c #FBD6D2",
"*	c #F9392C",
"=	c #F9382A",
"-	c #FBC4C1",
";	c #FBE5E1",
">	c #FBFBFB",
",	c #FB5C53",
"'	c #F93427",
")	c #FBD5D2",
"!	c #F93829",
"~	c #FBE6E4",
"{	c #FB422C",
"]	c #FB3500",
"^	c #FB5F56",
"/	c #E1F4FB",
"(	c #D1E9FB",
"_	c #D2E9FB",
":	c #DCE5FB",
"<	c #FBDBF0",
"[	c #E6E4FB",
"}	c #FBDBF2",
"|	c #E1D6FB",
"1	c #F54857",
"2	c #5396FB",
"3	c #006EFB",
"4	c #006FFB",
"5	c #3A66FB",
"6	c #CC278C",
"7	c #6B5AFB",
"8	c #CC298D",
"9	c #685AFB",
"0	c #E01858",
"a	c #F50000",
"b	c #2986FB",
"c	c #156BFB",
"d	c #8252F0",
"e	c #3866FB",
"f	c #924EE4",
"g	c #AF3FC2",
"h	c #EA0B2A",
"i	c #FBD7E1",
"j	c #DCE6FB",
"k	c #D2EAFB",
"l	c #CCDAFB",
"m	c #B361D2",
"n	c #F01327",
"o	c #F90800",
"p	c #F93827",
"q	c #FBB8D1",
"r	c #477EFB",
"s	c #5697FB",
"t	c #FBD5D1",
"u	c #FB3F29",
"v	c #FB6156",
"w	c #D1EAFB",
"x	c #5297FB",
"y	c #C1DBFB",
"z	c #2583FB",
"A	c #006BFB",
"B	c #E1F5FB",
"C	c #FBE4E1",
"D	c #FBD2D1",
"E	c #F93325",
"F	c #FBE5E4",
"G	c #FBC2C1",
"H	c #FB7973",
"I	c #FBD6D5",
"J	c #FBD7D5",
"K	c #FBC7C4",
"L	c #F90400",
"M	c #FB3400",
"N	c #F90600",
"O	c #F90900",
"P	c #FB1800",
"Q	c #FB5C00",
"                                                ",
". + . @ @ @ @ @ . + . @ @ @ @ @ . + . @ @ @ @ @ ",
"                                                ",
"@ @ @ @ @ . + . @ @ @ @ @ . + . @ @ @ @ @ . + . ",
"                                                ",
"@ @ @ @ @ . + . @ @ @ @ @ . + . @ @ @ @ @ . + . ",
"                                                ",
"# . . + . @ @ @ @ @ @ @ @ @ @ . + . . + . @ @ @ ",
"                                                ",
"# . . + . @ @ @ $ % & % * @ @ . + . . + . @ @ @ ",
"                                                ",
"@ @ @ @ @ @ = - ; > > > , @ @ @ @ @ @ @ @ @ @ @ ",
"                                                ",
"@ @ @ @ @ ' ) > > > > > ; - $ @ @ @ @ @ . + . @ ",
"                                                ",
". + . @ ! ) > > > > > > > > ~ % { ] . @ . + . @ ",
"                                                ",
". + . @ ^ > > > / ( _ : < [ } | 1 ] . @ @ @ @ @ ",
"                                                ",
"@ @ @ @ ^ > > > 2 3 4 5 6 7 8 9 0 a @ @ @ . + . ",
"                                                ",
"@ @ @ @ ^ > > > _ b 3 c d e f g h @ @ @ @ . + . ",
"                                                ",
"# . . ] { - i j k _ _ _ k l m n + . . + . @ @ @ ",
"                                                ",
"# . . + o p q r s > > > > > t u ] . . + . @ @ @ ",
"                                                ",
"@ @ @ @ @ v > w x y _ / > > > ^ @ @ @ @ @ @ @ @ ",
"                                                ",
"@ @ @ @ @ ! t > _ z A 2 > > > ^ @ @ @ @ . + . @ ",
"                                                ",
". + . @ @ ! t > > B ( / > > ) ! o + . @ . + . @ ",
"                                                ",
". + . @ @ ^ > > C t ; > > D E @ . + . @ @ @ @ @ ",
"                                                ",
"@ @ @ @ @ ^ > > F G H > > F % * @ @ @ @ @ . + . ",
"                                                ",
"@ @ @ @ @ * % & I % ^ - & J K * @ @ @ @ @ . + . ",
"                                                ",
"# . . + . @ @ L M N O ] L @ @ . + . . + . @ @ @ ",
"                                                ",
"# . . + . @ @ . + . . + . @ @ . + . . + . @ @ @ ",
"                                                ",
"@ @ @ @ @ @ @ @ @ @ @ @ @ @ @ @ @ @ @ @ @ @ @ @ ",
"                                                ",
"@ @ @ @ . + . @ @ @ @ @ . + . @ @ @ @ @ . + . @ ",
"                                                ",
"@ @ @ @ P Q P @ @ @ @ @ P Q P @ @ @ @ @ P Q P @ "};
