/* XPM */
static char * p_xpm[] = {
"48 48 89 1",
" 	c #121212",
".	c #FD3D00",
"+	c #FF6100",
"@	c #F93100",
"#	c #F92F00",
"$	c #FF6700",
"%	c #F92A00",
"&	c #F92700",
"*	c #FD5F56",
"=	c #FFD4D1",
"-	c #FFE1DE",
";	c #FD6257",
">	c #F92D00",
",	c #FD6156",
"'	c #FFD2D0",
")	c #FFEDEA",
"!	c #FFFFFF",
"~	c #FF7E77",
"{	c #F92200",
"]	c #FD5E53",
"^	c #FFE0DE",
"/	c #FD6155",
"(	c #FFEEEC",
"_	c #FF6957",
":	c #FF5F00",
"<	c #F92900",
"[	c #FF8179",
"}	c #EAF9FF",
"|	c #DDF0FF",
"1	c #DEF0FF",
"2	c #E6EDFF",
"3	c #FFE5F6",
"4	c #EEECFF",
"5	c #FFE5F8",
"6	c #EAE1FF",
"7	c #FA6E7A",
"8	c #77ADFF",
"9	c #008DFF",
"0	c #008EFF",
"a	c #6386FF",
"b	c #D953A5",
"c	c #8A7DFF",
"d	c #D955A6",
"e	c #887DFF",
"f	c #E9477B",
"g	c #FA2F00",
"h	c #55A0FF",
"i	c #458AFF",
"j	c #9D76F6",
"k	c #6186FF",
"l	c #AA73EC",
"m	c #C167D1",
"n	c #F13D56",
"o	c #FFE2EA",
"p	c #E6EEFF",
"q	c #DEF1FF",
"r	c #D9E4FF",
"s	c #C582DE",
"t	c #F64353",
"u	c #FD3A00",
"v	c #FD6153",
"w	c #FFC9DD",
"x	c #6D9AFF",
"y	c #79AEFF",
"z	c #FFE0DD",
"A	c #FF6755",
"B	c #FF8279",
"C	c #DDF1FF",
"D	c #76AEFF",
"E	c #D0E5FF",
"F	c #529EFF",
"G	c #008AFF",
"H	c #EAFAFF",
"I	c #FFECEA",
"J	c #FFDEDD",
"K	c #FD5D52",
"L	c #F92B00",
"M	c #FFEDEC",
"N	c #FFD1D0",
"O	c #FF9691",
"P	c #FFE1E0",
"Q	c #FFE2E0",
"R	c #FFD5D2",
"S	c #FD3700",
"T	c #FF5E00",
"U	c #FD3900",
"V	c #FD3B00",
"W	c #FF4700",
"X	c #FF7E00",
"                                                ",
". + . @ @ @ @ @ . + . @ @ @ @ @ . + . @ @ @ @ @ ",
"                                                ",
"@ @ @ @ @ . + . @ @ @ @ @ . + . @ @ @ @ @ . + . ",
"                                                ",
"# @ @ @ @ . + . @ @ @ @ @ . + . # @ @ @ @ . + . ",
"                                                ",
"$ . . + . @ @ @ # % % % # @ # . + . . + . @ @ @ ",
"                                                ",
"$ . . + . @ # & * = - = ; > @ . + . . + . @ @ @ ",
"                                                ",
"# @ @ @ @ > , ' ) ! ! ! ~ { # @ @ @ @ @ @ @ @ @ ",
"                                                ",
"@ @ @ @ > ] ^ ! ! ! ! ! ) ' * & # @ @ @ . + . @ ",
"                                                ",
". + . > / ^ ! ! ! ! ! ! ! ! ( = _ : . @ . + . @ ",
"                                                ",
". + . < [ ! ! ! } | 1 2 3 4 5 6 7 : . @ @ @ @ @ ",
"                                                ",
"@ @ @ % [ ! ! ! 8 9 0 a b c d e f g @ @ @ . + . ",
"                                                ",
"# @ @ < [ ! ! ! 1 h 9 i j k l m n @ @ @ @ . + . ",
"                                                ",
"$ . . : _ ' o p q 1 1 1 q r s t + . . + . @ @ @ ",
"                                                ",
"$ . . + u v w x y ! ! ! ! ! z A : . . + . @ @ @ ",
"                                                ",
"# @ @ @ % B ! C D E 1 } ! ! ! [ < @ @ @ @ @ @ @ ",
"                                                ",
"@ @ @ @ > / z ! 1 F G 8 ! ! ! [ % @ @ @ . + . @ ",
"                                                ",
". + . @ > / z ! ! H | } ! ! ^ / u + . @ . + . @ ",
"                                                ",
". + . @ % [ ! ! I z ) ! ! J K L . + . @ @ @ @ @ ",
"                                                ",
"@ @ @ @ % [ ! ! M N O ! ! M = ; > @ @ @ @ . + . ",
"                                                ",
"# @ @ @ > ; = - P = [ ' - Q R ; > @ @ @ @ . + . ",
"                                                ",
"$ . . + . # % S T U V : S < % . + . . + . @ @ @ ",
"                                                ",
"$ . . + . @ @ . + . . + . @ @ . + . . + . @ @ @ ",
"                                                ",
"# @ @ @ @ @ @ @ @ @ @ @ @ @ @ @ @ @ @ @ @ @ @ @ ",
"                                                ",
"@ @ @ @ . + . @ @ @ @ @ . + . @ @ @ @ @ . + . @ ",
"                                                ",
"@ @ @ # W X W # @ @ @ # W X W # @ @ @ # W X W # "};
