/* XPM */
static char * u_p_xpm[] = {
"48 48 83 1",
" 	c #000000",
".	c #480000",
"+	c #6F0000",
"@	c #3A0000",
"#	c #780000",
"$	c #370000",
"%	c #440000",
"&	c #6D0000",
"*	c #EE0000",
"=	c #760000",
"-	c #680000",
";	c #FB0000",
">	c #6B0000",
",	c #5F0000",
"'	c #C29EB1",
")	c #1700CA",
"!	c #0000B3",
"~	c #960000",
"{	c #410000",
"]	c #7D0000",
"^	c #FBFBFB",
"/	c #4A48DC",
"(	c #0000C7",
"_	c #0000AF",
":	c #4E0000",
"<	c #F19896",
"[	c #890000",
"}	c #CC9A98",
"|	c #EACAC7",
"1	c #4844DB",
"2	c #0000DB",
"3	c #0044FB",
"4	c #DCD0F0",
"5	c #FB6666",
"6	c #E4C7C7",
"7	c #93332F",
"8	c #800000",
"9	c #9E0800",
"0	c #4441DB",
"a	c #006FFB",
"b	c #FB625F",
"c	c #FBF0EE",
"d	c #D6B1B1",
"e	c #F4DCDB",
"f	c #4841D9",
"g	c #0000D9",
"h	c #006DFB",
"i	c #FB6BEE",
"j	c #E1DFFB",
"k	c #9E0D00",
"l	c #820000",
"m	c #0076FB",
"n	c #0024FB",
"o	c #0072FB",
"p	c #F6DCDB",
"q	c #D9B1AF",
"r	c #96372F",
"s	c #C29693",
"t	c #FAD2C7",
"u	c #0051FB",
"v	c #B1D5FB",
"w	c #CAE5FB",
"x	c #C7E5FB",
"y	c #AB6662",
"z	c #DBF1FB",
"A	c #0008FB",
"B	c #F04AEE",
"C	c #5D0000",
"D	c #E5C7C7",
"E	c #666DEE",
"F	c #DBB6FB",
"G	c #FB002F",
"H	c #FBC7C5",
"I	c #870000",
"J	c #93372F",
"K	c #F49896",
"L	c #A80000",
"M	c #D5B1B1",
"N	c #E7CAC7",
"O	c #660000",
"P	c #F00000",
"Q	c #330000",
"R	c #510000",
"                                                ",
". + . @ @ @ @ @ . + . @ @ @ @ @ . + . @ @ @ @ @ ",
"                                                ",
"@ @ @ @ @ . + . @ @ @ @ @ . + . @ @ @ @ @ . + . ",
"                                                ",
"@ @ @ @ @ . + . @ @ @ @ @ . + . @ @ @ @ @ . + . ",
"                                                ",
"# . . + . @ @ . + . . + . @ $ % + . . + . @ @ @ ",
"                                                ",
"# . . + . @ @ . + . . + % & * = & . . + . @ @ @ ",
"                                                ",
"@ @ @ @ @ @ @ @ @ @ @ $ - ; ; ; - $ @ @ @ @ @ @ ",
"                                                ",
"@ @ @ @ . + . @ $ @ @ & ; ; ; ; ; > $ @ . + . @ ",
"                                                ",
". + . @ . + % , ' ) ! - ; ; ; ; ; ~ { @ . + . @ ",
"                                                ",
". + . @ @ @ $ ] ^ / ( _ : < ; < , [ } , $ @ @ @ ",
"                                                ",
"@ @ @ @ @ % [ | ^ 1 2 3 4 ^ 5 ^ 6 7 ^ 8 $ . + . ",
"                                                ",
"@ @ @ @ @ { 9 ^ ^ 0 2 a ^ ^ b ^ ^ c ^ ] $ . + . ",
"                                                ",
"# . . + - d e ^ ^ f g h ^ ^ i j ^ ^ ^ k % @ @ @ ",
"                                                ",
"# . . & l ^ ^ ^ ^ m n m ^ ^ o o ^ p q [ % @ @ @ ",
"                                                ",
"@ @ @ $ ] ^ ^ ^ ^ m n o ^ ^ o m ^ r s , $ @ @ @ ",
"                                                ",
"@ @ @ $ - t ^ ^ ^ o u v w v m x ^ y ^ 8 % + . @ ",
"                                                ",
". + . @ { 9 ^ ^ ^ z z ^ m A B ^ ^ c ^ ] % + . @ ",
"                                                ",
". + . @ $ C D ^ ^ ^ ^ ^ E F G H ^ ^ ^ ] $ @ @ @ ",
"                                                ",
"@ @ @ @ @ % I | ^ ^ ^ ^ J K ; L M N d , $ . + . ",
"                                                ",
"@ @ @ @ @ . + O d D D d C > P & Q $ $ @ @ . + . ",
"                                                ",
"# . . + . @ @ . + { { + . @ $ % + . . + . @ @ @ ",
"                                                ",
"# . . + . @ @ . + . . + . @ @ . + . . + . @ @ @ ",
"                                                ",
"@ @ @ @ @ @ @ @ @ @ @ @ @ @ @ @ @ @ @ @ @ @ @ @ ",
"                                                ",
"@ @ @ @ . + . @ @ @ @ @ . + . @ @ @ @ @ . + . @ ",
"                                                ",
"@ @ @ @ R ~ R @ @ @ @ @ R ~ R @ @ @ @ @ R ~ R @ "};
