/* XPM */
static char * void_xpm[] = {
"48 48 68 1",
" 	c #000000",
".	c #111111",
"+	c #D0D0D0",
"@	c #090909",
"#	c #353535",
"$	c #262626",
"%	c #0B0B0B",
"&	c #060606",
"*	c #121212",
"=	c #1A1A1A",
"-	c #080808",
";	c #878787",
">	c #C7C7C7",
",	c #101010",
"'	c #222222",
")	c #323232",
"!	c #050505",
"~	c #191919",
"{	c #242424",
"]	c #0A0A0A",
"^	c #7B7B7B",
"/	c #010101",
"(	c #070707",
"_	c #1F1F1F",
":	c #313131",
"<	c #161616",
"[	c #151515",
"}	c #FCFCFC",
"|	c #414141",
"1	c #0D0D0D",
"2	c #2E2E2E",
"3	c #030303",
"4	c #212121",
"5	c #858585",
"6	c #020202",
"7	c #1E1E1E",
"8	c #141414",
"9	c #EFEFEF",
"0	c #E0E0E0",
"a	c #3D3D3D",
"b	c #181818",
"c	c #868686",
"d	c #383838",
"e	c #2C2C2C",
"f	c #292929",
"g	c #0C0C0C",
"h	c #A2A2A2",
"i	c #1D1D1D",
"j	c #1C1C1C",
"k	c #CDCDCD",
"l	c #343434",
"m	c #252525",
"n	c #040404",
"o	c #5A5A5A",
"p	c #0F0F0F",
"q	c #B2B2B2",
"r	c #3A3A3A",
"s	c #2D2D2D",
"t	c #0E0E0E",
"u	c #2F2F2F",
"v	c #FFFFFF",
"w	c #444444",
"x	c #696969",
"y	c #1B1B1B",
"z	c #131313",
"A	c #515151",
"B	c #565656",
"C	c #434343",
"                    .+.                         ",
"                    @#@                         ",
"                     $                          ",
"                     %                     &*&  ",
"=-                                         %;%  ",
">,                                         &'&  ",
")-                       !,!                ~   ",
"{                        ]^]      ///       (   ",
"]                        !_!      %:%           ",
"                          <       [}[           ",
"          ///             &       ]|]           ",
"          /1/                      2            ",
" !*!      /3/                      1       ]4]  ",
" %5%       6                         @7@   898  ",
" !4!                              &*&*0*   ]a]  ",
"  b                               %c%@d@    e   ",
"  (                               &'& f     1   ",
"                                   b  g         ",
"                          ([(      (            ",
"                          1h1                   ",
"                          (f(                   ",
"                           i                    ",
"                           -                    ",
"                                     -j-        ",
"                                     .k.        ",
"                      /              -l-        ",
"                                      m         ",
"                                      %         ",
"                                          n%n   ",
"                          (b(             (o(   ",
"               6-6        pqp             n<n   ",
"               !r!        (s(              ,    ",
"               6t6         4               n    ",
"               %u%         @                    ",
"               <v<                              ",
" 6&6           %w%                              ",
" n2n            :                               ",
" 6%6  /n/       t    !*!                        ",
"  -   373        ntn %5%                        ",
"  6   /-/        @x@ !4!                        ",
"       !         nyn  b                         ",
"       /          z   (                     /3/ ",
"                  !                        3gb6 ",
"                                           (A%/ ",
"                                   n%n     3[&  ",
"%{%                                (B(      t/  ",
"<v<                                n[n      n   ",
"%C%                 n1n             ,           "};
