/* XPM */
static char * w1_xpm[] = {
"33 37 29 1",
" 	c None",
".	c #B82928",
"+	c #CD9CBC",
"@	c #811E13",
"#	c #50090F",
"$	c #D0847E",
"%	c #FFFFFF",
"&	c #F4D4D2",
"*	c #0C0C0C",
"=	c #9B4246",
"-	c #8C1836",
";	c #0F0F0F",
">	c #5776BE",
",	c #E4E4E4",
"'	c #C8C0CD",
")	c #B4DEE2",
"!	c #7E63A1",
"~	c #58297E",
"{	c #797979",
"]	c #AEAEAE",
"^	c #2E194D",
"/	c #454C8A",
"(	c #5971BC",
"_	c #532C82",
":	c #DBD6EC",
"<	c #7252B9",
"[	c #2E2E2E",
"}	c #B5A25F",
"|	c #484632",
"                                 ",
"                      ..         ",
"                     .++.        ",
"                    .+.@@@       ",
"                    @..#    @@@  ",
"                    @..@@  @..@@ ",
"                    #@@@@@@+.@   ",
"      @@@@@@@@  @@@@@.+++..@@    ",
"    @@++++++++@@@@@..++......@   ",
"   @++.......@+.@@.$..........@  ",
"   #@...++######@@$%$....$&&$.@  ",
"    @..+##*##@#@@.=&%$.-$$;;$&@  ",
"   @..+#**#**@#@@.=&%$-$$;;;=$=  ",
"   @.+# *#***@#@@.$$%--$&>,;;''  ",
"  @.+#  #*****@##@$&&$;-$)%,'%%! ",
"  @.#      ****#@@@&$&&;;=;!%%%%!",
"  ##        **@@++.@=&&!;;;~''%%!",
"            @@@++..@=&&!,{],~!''~",
"           @@@.+..@#=$&!,%{]~!!!~",
"          ^..@...@#@#=&%!,,%,~~~ ",
"       ###^/@...@#@@#=$&&!'''!   ",
"     ##  ^/(#.+..@#@@#=$&&&%&$   ",
"   ##    ^/(#@.+.___@@#===$&&=   ",
"  #      ^@@##@._:<_>>>____==    ",
" #.#     @.+.##_:<_)))::<:<[     ",
"  #      #.+.##_<_)::::::[[<[    ",
"        #@+.@#/_<_:)):<[_::[[[   ",
"     }}#...@#^/[_[<:::::[[_<[<[  ",
"    }%%#@@##^^^/[[_<<:[_::[[[__[ ",
"    }%%|##|#@^^^^^[[_<:[[_[_[[_[ ",
"   }%%}| |}#@##^^^^^[[<:[[__[[[  ",
"   }%%}  |%}#         [[[[[[[[   ",
"   |}%}  |}%|             [[     ",
"    |}%}  |}}|                   ",
"     |||   |}|                   ",
"            ||                   ",
"                                 "};
