/* XPM */
static char * w2_xpm[] = {
"33 37 30 1",
" 	c None",
".	c #B82928",
"+	c #CD9CBC",
"@	c #811E13",
"#	c #50090F",
"$	c #818181",
"%	c #0C0C0C",
"&	c #D0847E",
"*	c #FFFFFF",
"=	c #F4D4D2",
"-	c #9B4246",
";	c #8C1836",
">	c #0F0F0F",
",	c #5776BE",
"'	c #E4E4E4",
")	c #C8C0CD",
"!	c #B4DEE2",
"~	c #7E63A1",
"{	c #58297E",
"]	c #797979",
"^	c #AEAEAE",
"/	c #2E194D",
"(	c #454C8A",
"_	c #5971BC",
":	c #532C82",
"<	c #DBD6EC",
"[	c #7252B9",
"}	c #2E2E2E",
"|	c #B5A25F",
"1	c #484632",
"                                 ",
"                      ..         ",
"                     .++.        ",
"       @@@@@@@      .+.@@@       ",
"     @@+++++++@@@@@ @..#    @@@  ",
"    @++......@+.@@@@@..@@  @..@@ ",
"   @....++######@@@$#@@@@@@+.@   ",
"   #@..+##%%#@#@@@$@@.+++..@@    ",
"   @..+#%%%#%@#@@@@..++......@   ",
"   @.+# %%#%%@#@@@.&..........@  ",
"  @.+#  %#%%%@#@@@&*&....&==&.@  ",
"  @+#   #%%%%@#@@.-=*&.;&&>>&=@  ",
"  @.#     %%%%@#@.-=*&;&&>>>-&-  ",
"  ##       %%%@##.&&*;;&=,'>>))  ",
"           %%%%@#@&==&>;&!*')**~ ",
"            %%%#@@@=&==>>->~****~",
"            %%@@++.@-==~>>>{))**~",
"            @@@++..@-==~']^'{~)){",
"    ####   @.@.+..@#-&=~'*]^{~~~{",
"  ##   ###/..@...@#@#-=*~''*'{{{ ",
" #.#     #/(@...@#@@#-&==~)))~   ",
"  #      /(_#.+..@#@@#-&===*=&   ",
"         /(_#@.+.:::@@#---&==-   ",
"         /@@##@.:<[:,,,::::--    ",
"         @.+.##:<[:!!!<<[<[}}}   ",
"         #.+.##:[:!<<<<<<}}[}[}  ",
"        #@+.@#(:[:<!!<[}:<<}}:[} ",
"     ||#...@#/(}:}[<<<<<}}:[}}}} ",
"    |**#@@##///(}}:[[<}:<<}}}:}} ",
"    |**1##1#@/////}}:[<}}:}[}}}  ",
"    |**|11|#@##/////}}[<}}}}}}   ",
"    |**|$1*|#         }} }}}     ",
"    1|*|$1|*1                    ",
"     1|*| 11|1                   ",
"      111  11|1                  ",
"             11                  ",
"                                 "};
