/* XPM */
static char * wall_xpm[] = {
"48 48 9 1",
" 	c #000000",
".	c #FF6B00",
"+	c #FFA500",
"@	c #FF5700",
"#	c #FFA700",
"$	c #FF5400",
"%	c #FFB000",
"&	c #FF7C00",
"*	c #FFD500",
"                                                ",
". + . @ @ @ @ @ . + . @ @ @ @ @ . + . @ @ @ @ @ ",
"                                                ",
"@ @ @ @ @ . # . @ @ @ @ @ . # . @ @ @ @ @ . # . ",
"                                                ",
"@ @ @ @ @ . # . @ @ @ @ @ . # . $ @ @ @ @ . # . ",
"                                                ",
"% . . # . @ @ @ @ @ @ @ @ @ $ . # . . # . @ @ @ ",
"                                                ",
"% . . # . @ @ @ @ @ @ @ @ @ @ . # . . # . @ @ @ ",
"                                                ",
"@ @ @ @ @ @ @ @ @ @ @ @ @ @ @ @ @ @ @ @ @ @ @ @ ",
"                                                ",
"@ @ @ @ @ @ @ @ @ @ @ @ . # . @ @ @ @ @ . # . @ ",
"                                                ",
". # . @ @ @ @ @ . # . @ . # . @ . # . @ . # . @ ",
"                                                ",
". # . @ @ @ @ @ . # . @ @ @ @ @ . # . @ @ @ @ @ ",
"                                                ",
"@ @ @ @ @ . # . @ @ @ @ @ @ @ @ @ @ @ @ @ . # . ",
"                                                ",
"@ @ @ @ @ . # . $ @ @ @ @ @ @ @ @ @ @ @ @ . # . ",
"                                                ",
"% . . # . @ $ . # . . # . @ @ . # . . # . @ @ @ ",
"                                                ",
"% . . # . @ @ . # . . # . @ @ . # . . # . @ @ @ ",
"                                                ",
"@ @ @ @ @ @ @ @ @ @ @ @ @ @ @ @ @ @ @ @ @ @ @ @ ",
"                                                ",
"@ @ @ @ @ @ @ @ @ @ @ @ . # . @ @ @ @ @ . # . @ ",
"                                                ",
". # . @ @ @ @ @ . # . @ . # . @ @ @ @ @ . # . @ ",
"                                                ",
". # . @ @ @ @ @ . # . @ @ @ @ @ @ @ @ @ @ @ @ @ ",
"                                                ",
"@ @ @ @ @ . # . @ @ @ @ @ . # . @ @ @ @ @ . # . ",
"                                                ",
"@ @ @ @ @ . # . $ @ @ @ @ . # . $ @ @ @ @ . # . ",
"                                                ",
"% . . # . @ $ . # . . # . @ $ . # . . # . @ @ @ ",
"                                                ",
"% . . # . @ @ . # . . # . @ @ . # . . # . @ @ @ ",
"                                                ",
"@ @ @ @ @ @ @ @ @ @ @ @ @ @ @ @ @ @ @ @ @ @ @ @ ",
"                                                ",
"@ @ @ @ . + . @ @ @ @ @ . + . @ @ @ @ @ . + . @ ",
"                                                ",
"@ @ @ @ & * & @ @ @ @ @ & * & @ @ @ @ @ & * & @ "};
