/* XPM */
static char * wall_xpm[] = {
"48 48 96 2",
"  	c #3E3E3E",
". 	c #838383",
"+ 	c #757575",
"@ 	c #717171",
"# 	c #6E6E6E",
"$ 	c #767676",
"% 	c #787878",
"& 	c #7C7C7C",
"* 	c #808080",
"= 	c #848484",
"- 	c #868686",
"; 	c #898989",
"> 	c #939393",
", 	c #959595",
"' 	c #919191",
") 	c #8E8E8E",
"! 	c #8A8A8A",
"~ 	c #777777",
"{ 	c #7F7F7F",
"] 	c #353535",
"^ 	c #5F5F5F",
"/ 	c #6F6F6F",
"( 	c #6A6A6A",
"_ 	c #6B6B6B",
": 	c #7B7B7B",
"< 	c #424242",
"[ 	c #888888",
"} 	c #7A7A7A",
"| 	c #3B3B3B",
"1 	c #858585",
"2 	c #9F9F9F",
"3 	c #282828",
"4 	c #111111",
"5 	c #313131",
"6 	c #000000",
"7 	c #727272",
"8 	c #737373",
"9 	c #8B8B8B",
"0 	c #7E7E7E",
"a 	c #696969",
"b 	c #676767",
"c 	c #9E9E9E",
"d 	c #040404",
"e 	c #373737",
"f 	c #191919",
"g 	c #4C4C4C",
"h 	c #6D6D6D",
"i 	c #818181",
"j 	c #8F8F8F",
"k 	c #8D8D8D",
"l 	c #1F1F1F",
"m 	c #626262",
"n 	c #636363",
"o 	c #393939",
"p 	c #989898",
"q 	c #585858",
"r 	c #0B0B0B",
"s 	c #1C1C1C",
"t 	c #151515",
"u 	c #909090",
"v 	c #5B5B5B",
"w 	c #606060",
"x 	c #252525",
"y 	c #4D4D4D",
"z 	c #4A4A4A",
"A 	c #505050",
"B 	c #595959",
"C 	c #484848",
"D 	c #969696",
"E 	c #5C5C5C",
"F 	c #474747",
"G 	c #555555",
"H 	c #404040",
"I 	c #4F4F4F",
"J 	c #333333",
"K 	c #5E5E5E",
"L 	c #434343",
"M 	c #565656",
"N 	c #525252",
"O 	c #2C2C2C",
"P 	c #535353",
"Q 	c #3C3C3C",
"R 	c #949494",
"S 	c #2F2F2F",
"T 	c #656565",
"U 	c #222222",
"V 	c #454545",
"W 	c #9B9B9B",
"X 	c #9A9A9A",
"Y 	c #999999",
"Z 	c #A0A0A0",
"` 	c #A7A7A7",
" .	c #A4A4A4",
"..	c #9C9C9C",
"+.	c #A5A5A5",
"@.	c #A6A6A6",
"  . + @ @ # # @ $ $ % & * . = - ; > , > ' ) ! * & ~ { ] ^ / ( _ ( @ : < [ } | ! & 1 [ = 2 3 4 5 ",
"6 < * @ 7 @ / 8 $ ~ : : . . 1 9 ) ' ' ' ) [ = 0 & 8 0 ] ^ _ a ( b % + 6 6 6 6 . { * 1 c ^ d e ] ",
"{ f g ~ h / @ 8 % * * } i = [ ! ! ) j k ; 0 } : % # & < b 8 @ 7 ~ 7 l m n a o 6 * - p q l ) ; - ",
"} - f 6 6 6 6 6 6 r / = 0 . - 0 = k 9 1 = { % } ~ _ [ e 6 s r f s t ~ * % % i | 6 # g l u [ i & ",
"$ i g v $ # / @ + w 6 h ! i = = - ! 1 i 0 & : % / & n x y z A B 6 y { ( 8 ~ } - C 6 6 D i i 0 ~ ",
"+ . C # : + % } 0 ; @ 6 / ; * - 1 1 = i & } % @ { w 3 * ~ $ 8 * w z 0 @ / } } & ; E   , & * & % ",
"8 = F ( ~ @ ~ } & & ; @ 6 # 9 . . = . 0 } } 8 * m ] . @ _ _ _ $ G y i h h % % $ - ( | ' % 0 : } ",
"8 . H b } + } : & * * ; ~ 6 _ ; { . * : } + = w e ! / @ @ @ / & v I * 7 $ % $ / i b o ' ~ } % ~ ",
"8 i H b : } % : * i 0 0 ! & 6 # ; i . * } = m < ) 8 @ / 7 + 7 { B A i 7 $ ~ ~ ~ { _ J ; $ $ $ % ",
"@ { H ( 0 ~ : } & { 0 i * ! - f n + 7 7 $ K L ' + $ + 7 ~ + 8 * M N * 8 ~ $ } % 0 ( 5 i + $ 8 + ",
"# {   b } $ : } % ~ 0 { * 0 ; ! s f l O 6 J D } } : } $ ~ $ $ * P A * $ % % } % 0 a 3 & 7 7 @ / ",
"_ 0 Q b : $ } & & $ } * { { & i ! ; k R } K ) } & : 0 : ~ : } . N M = 7 ~ } ~ 7 & a O ~ # _ h # ",
"7 1 F m : + $ % 0 : ~ { & 0 { & { * { - & I ! { * : & & : & & . B B j { i i 1 $ { a J 0 / 7 + + ",
"  I 6 h : @ ~ $ : & % & & : & 0 { { & ; } N k * i i * : & i : j M 6 6 6 6 6 6 6 6 6 6 y H o e | ",
"O 3 6 t { $ $ ~ ~ } } : : % $ $ { 0 & - & G k * i = . 0 * 0 ) _ S h T T w v w E G ( U 6 4 s x O ",
": : { V 6 . $ $ } } $ ~ : } % ~ 0 { & - { q , i = . . = * ) _ S [ [ [ [ i i { : 7 : e a ~ 7 + ~ ",
"_ h / * V 6 . } ~ : ~ + + % } : : { { i $ G > = - . = i j h S ; - 1 1 i * 0 : + a : o K ( m n b ",
"@ / 7 _ i < 6 i $ ~ % $ + % ~ % : { { = @ N , - ; [ = p @ O 1 [ 1 - = = i { } ~ / 1 y n # T b h ",
"h # 7 $ 8 * | 6 * $ + ~ $ ~ % % % & : 1 $ P , . - = W $ J [ - = [ - 1 = . { : + h 1 g a @ b _ / ",
"# @ @ 7 8 / & | 6 * + 7 7 8 % ~ 8 % : [ ~ A > i 1 X / | [ - - 1 [ [ [ 1 * { : $ h = L ( 7 a # / ",
"@ @ 8 7 8 ~ $ 0   6 : $ 8 8 7 / 7 % : = + z R . p K e R : { [ ; ; - [ = * * : $ / * < 7 $ @ # / ",
"+ + + 8 8 $ ~ 7 { < 6 ~ * 0 0 0 : % } { 7 F R k M ] p ! - { ; ! ; ; - = * * { + ~ { o 8 % 8 7 7 ",
"~ $ + ~ + + $ + / & g 6 F   o ] N & + . _ 6 6 6 6 c ! ; 9 9 ! [ 9 9 [ . . * & $ ~ { e @ } @ 7 + ",
"~ + + ~ % ~ $ 7 7 i e 6 r r t 3 6   = / f h b b x ] > 1 ; ! ! [ ) 9 ; [ 1 . { 0 & 1 o # : + 8 + ",
"} $ ~ ~ + 7 $ + [ J U $ $ ~ % ~ : t 6 4 & = i - * 6 | ) = ; ! j k ; ! ; 1 [ 1 i { [ e & : % % : ",
"& & & 0 % 8 8 ; e J ~ _ ( _ _ T h } 6 I 1 % { { ! = 6 * , j 9 9 k ! - . - - 1 1 i = O F 9 ~ 0 : ",
"0 0 0 { : ~ 9 o e } / / _ ( ( a n # F   ~ 7 ~ ~ $ - e * R ; k [ 9 [ - i - - = 1 1 * : 6 F ) 0 * ",
"& { { & : j   o : h # # _ b b b T / V 6 6 6 6 6 6 6 6 B j . ; [ = = = [ 1 i = = i . ! { 6 K - & ",
": & ~ + k   H 0 # h # h a a b a w # x z m w T a _ _ n 6 g p i 1 1 1 * . . i i = . . = ) m | , { ",
"{ % : i S   i 7 7 / _ _ a b b b T / l ^ 7 / % 0 & * ! 7 6 M R 0 * i 0 : & 0 i . . 1 1 j ( L D i ",
"0 0 ' Q | 0 7 $ 8 @ # ( b b b ( ( 7 U v @ 7 + $ 8 % : . 8 6 y ; & & % % ~ : i i = 1 - u a < R i ",
"0 ) | o i $ ~ + + 7 / # h b ( # a 7 U w 7 7 8 $ $ + % 8 i 8 6 Q * + + % } & 0 : . = = ) a   > { ",
", ] ] { + ~ ~ + + 8 # 7 7 _ # h b 8 U ^ 7 @ @ 8 8 ~ $ ~ % } _ 6 C % 7 $ + } & { i - 1 ) m V Y . ",
"J ] & $ $ $ $ 8 7 $ 7 7 8 @ @ / _ ~ x E 7 # @ h _ + + + + / $ a 6 B % _ $ } : 0 { = = ) # ] } 0 ",
"< : $ 7 7 8 7 8 + ~ $ @ 7 $ @ 7 _ $ x w h _ # # # 7 / # h / h 7 b 6 q } 7 % } & * = i R A 6 6 6 ",
"h } 8 @ / 7 / 8 8 8 7 7 8 + 8 ~ @ $ U T @ / / / / @ / _ a ( a T _ ( 6 q $ $ } } % 0 u N r ( $ C ",
"n ~ @ / @ @ 7 8 $ + + $ + + $ ~ / } ] a 8 @ # _ _ ( ( a b n n T ^ a % l _ } ~ } : [ # s 1 { . I ",
"n ~ / / / @ @ 8 $ ~ $ 8 $ ~ ~ + + 0 6 $ % h # h _ b T b T w n n n E 1 v _ & % : & ! I K u % { z ",
"T + @ # # # / 7 7 7 $ ~ ~ % ~ ~ & S r r & 8 # h h ( T m m ^ K w w E . q n + $ & & ; G w ' : [ A ",
"b + / # _ # _ 7 + 7 % } } % : ! 3 b > | 6 * + 7 # ( T w K ^ w ^ w E - K T ~ : 0 0 ) B ^ R & 9 G ",
"( ~ h / # # # 7 7 + $ ~ $ : p O b > ~ [ e 6 - + / h n m w ^ w m n K [ K # 0 : { & ! M ^ R & ! N ",
"# % h / h / / / / 8 % $ ~ Z e _ X : i * ; U 6 = 7 _ T n w K w n b K 1 B @ { : * * ) B w , : ! N ",
"7 } 8 @ h @ h # @ + + ~ `   +  .* [ - [ = - 4 6 & @ a T w m w n T ^ = G # & } & 1 ..w m > { 9 N ",
"+ : 7 7 _ a # _ / 8 8 ` V + +.{ ! 9 ! 9 1 i = U 6 + _ n T n n T T m = A # : 8 . / f 6 N W { ! y ",
"$ : / h a b ( _ # 8 @.C ( c } [ k ) ! 9 ; - - ; ] 6 @ h T n m T T m 1 g @ : = # f b m 6 P R j I ",
"} j . & % $ ~ % $ p A b c ~ i - ) ' j u ' ) [ 0 ;   6 # 7 # # # @ _ ! y v + ( l ) > j & 6 A ) G ",
"t O 5 5 O U 3 3 S t b X : * i ; k > , R R ) [ i : = | 6 z   ] e | | F r 6 6 6 1 [ * - u : 6 6 6 ",
"] I L V C z C z A + ' + & . = ; [ ) D , ' ) ! . 0 8 . l 6 6 6 r t f 6 O 9 7 S 9 0 - 9 - , e 8 # "};
